<svg xmlns="http://www.w3.org/2000/svg" xmlns:xlink="http://www.w3.org/1999/xlink" width="500" zoomAndPan="magnify" viewBox="0 0 375 374.999991" height="500" preserveAspectRatio="xMidYMid meet" version="1.0"><defs><clipPath id="f980b48fae"><path d="M 0 1.023438 L 375 1.023438 L 375 373.773438 L 0 373.773438 Z M 0 1.023438 " clip-rule="nonzero"/></clipPath></defs><g clip-path="url(#f980b48fae)"><path fill="#727272" d="M 367.617188 161.714844 L 342.734375 161.714844 C 338.828125 138.003906 329.496094 115.476562 315.464844 95.898438 L 333.0625 78.300781 C 335.933594 75.429688 335.933594 70.773438 333.0625 67.902344 L 307.074219 41.914062 C 304.203125 39.046875 299.546875 39.042969 296.675781 41.914062 L 279.078125 59.511719 C 259.5 45.480469 236.972656 36.148438 213.261719 32.242188 L 213.261719 8.398438 C 213.261719 4.339844 209.972656 1.050781 205.910156 1.050781 C 166.964844 1.0625 169.121094 1.015625 168.417969 1.085938 C 67.226562 12.597656 0.0078125 95.792969 0.105469 187.433594 C 0.214844 286.261719 75.582031 364.511719 168.390625 373.902344 C 169.136719 373.980469 166.960938 373.929688 205.914062 373.945312 C 209.972656 373.945312 213.261719 370.652344 213.261719 366.59375 L 213.261719 342.636719 C 236.976562 338.734375 259.5 329.398438 279.078125 315.367188 L 296.679688 332.964844 C 299.546875 335.835938 304.203125 335.835938 307.074219 332.96875 L 333.0625 306.976562 C 335.933594 304.105469 335.933594 299.453125 333.0625 296.582031 L 315.464844 278.984375 C 329.496094 259.40625 338.828125 236.878906 342.734375 213.164062 L 367.617188 213.164062 C 371.675781 213.164062 374.96875 209.875 374.96875 205.816406 L 374.96875 169.066406 C 374.964844 165.003906 371.675781 161.714844 367.617188 161.714844 Z M 169.160156 224.191406 C 165.101562 224.191406 161.808594 227.484375 161.808594 231.542969 L 161.808594 327.710938 C 128.992188 321.746094 100.351562 304.644531 79.636719 280.640625 L 85.074219 275.203125 C 87.945312 272.332031 87.945312 267.679688 85.074219 264.808594 C 82.203125 261.9375 77.550781 261.9375 74.679688 264.808594 L 70.546875 268.941406 C 55.6875 247.625 46.535156 222.132812 45.136719 194.789062 L 51.5625 194.789062 C 55.621094 194.789062 58.910156 191.5 58.910156 187.441406 C 58.910156 183.382812 55.621094 180.089844 51.5625 180.089844 L 45.136719 180.089844 C 46.707031 149.375 58.0625 120.996094 76.296875 98.25 L 80.359375 102.3125 C 83.230469 105.183594 87.882812 105.183594 90.757812 102.3125 C 93.625 99.441406 93.625 94.789062 90.757812 91.917969 L 86.085938 87.246094 C 106.121094 66.925781 132.273438 52.539062 161.808594 47.167969 L 161.808594 143.339844 C 161.808594 147.398438 165.101562 150.6875 169.160156 150.6875 C 189.425781 150.6875 205.910156 167.175781 205.910156 187.441406 C 205.910156 207.707031 189.425781 224.191406 169.160156 224.191406 Z M 14.8125 187.5 C 14.761719 103.125 76.238281 29.558594 161.808594 16.734375 L 161.808594 32.25 C 86.363281 44.644531 30.242188 110.238281 30.242188 187.441406 C 30.242188 264.894531 86.625 330.28125 161.808594 342.632812 L 161.808594 358.226562 C 74.203125 344.394531 14.863281 270.34375 14.8125 187.5 Z M 360.265625 198.464844 L 336.363281 198.464844 C 332.648438 198.464844 329.515625 201.238281 329.066406 204.925781 C 325.945312 230.503906 315.886719 254.789062 299.972656 275.152344 C 297.6875 278.078125 297.941406 282.25 300.566406 284.875 L 317.472656 301.78125 L 301.875 317.375 L 284.972656 300.46875 C 282.347656 297.847656 278.175781 297.589844 275.25 299.875 C 254.882812 315.789062 230.601562 325.851562 205.019531 328.972656 C 201.332031 329.421875 198.5625 332.550781 198.5625 336.269531 L 198.5625 359.246094 L 176.511719 359.246094 L 176.511719 238.359375 C 201.410156 234.78125 220.613281 213.3125 220.613281 187.441406 C 220.613281 161.566406 201.410156 140.101562 176.511719 136.523438 C 176.511719 123.6875 176.511719 30.589844 176.511719 15.75 L 198.5625 15.75 L 198.5625 38.613281 C 198.5625 42.332031 201.332031 45.460938 205.019531 45.910156 C 230.601562 49.03125 254.882812 59.09375 275.25 75.003906 C 278.171875 77.292969 282.34375 77.035156 284.972656 74.410156 L 301.875 57.507812 L 317.472656 73.101562 L 300.566406 90.003906 C 297.941406 92.632812 297.6875 96.804688 299.972656 99.730469 C 315.886719 120.09375 325.945312 144.378906 329.066406 169.957031 C 329.515625 173.644531 332.648438 176.417969 336.363281 176.417969 L 360.265625 176.417969 Z M 360.265625 198.464844 " fill-opacity="1" fill-rule="nonzero"/></g><path fill="#727272" d="M 169.160156 165.390625 C 159.578125 165.390625 151.410156 171.535156 148.375 180.089844 L 80.957031 180.089844 C 76.898438 180.089844 73.609375 183.382812 73.609375 187.441406 C 73.609375 191.5 76.898438 194.789062 80.957031 194.789062 L 147.738281 194.789062 L 105.160156 237.371094 C 102.289062 240.238281 102.289062 244.894531 105.160156 247.765625 C 108.03125 250.636719 112.683594 250.636719 115.554688 247.765625 L 157.304688 206.019531 C 171.804688 215.308594 191.210938 204.925781 191.210938 187.441406 C 191.210938 175.28125 181.320312 165.390625 169.160156 165.390625 Z M 169.160156 194.789062 C 165.109375 194.789062 161.808594 191.492188 161.808594 187.441406 C 161.808594 183.386719 165.109375 180.089844 169.160156 180.089844 C 173.214844 180.089844 176.511719 183.386719 176.511719 187.441406 C 176.511719 191.492188 173.214844 194.789062 169.160156 194.789062 Z M 169.160156 194.789062 " fill-opacity="1" fill-rule="nonzero"/></svg>