<svg xmlns="http://www.w3.org/2000/svg" xmlns:xlink="http://www.w3.org/1999/xlink" width="500" zoomAndPan="magnify" viewBox="0 0 375 374.999991" height="500" preserveAspectRatio="xMidYMid meet" version="1.0"><defs><clipPath id="abb5468983"><path d="M 0 1.023438 L 375 1.023438 L 375 373.773438 L 0 373.773438 Z M 0 1.023438 " clip-rule="nonzero"/></clipPath><clipPath id="a1d362e5c9"><path d="M 10.417969 13 L 207 13 L 207 367.867188 L 10.417969 367.867188 Z M 10.417969 13 " clip-rule="nonzero"/></clipPath><clipPath id="4b96259f79"><path d="M 157.800781 39.824219 C 130.800781 40.5 124.726562 42.148438 122.25 42.074219 C 121.351562 42.074219 121.050781 41.476562 120.375 41.699219 C 119.175781 42.074219 117.75 45.300781 116.023438 46.425781 C 114.226562 47.550781 111.601562 48.300781 109.875 48.601562 C 108.675781 48.824219 107.851562 48.75 106.648438 48.523438 C 104.925781 48.148438 102.300781 47.324219 100.648438 46.125 C 98.925781 44.851562 97.351562 43.050781 96.449219 41.175781 C 95.476562 39.300781 94.949219 36.898438 95.023438 34.800781 C 95.023438 32.773438 95.175781 30.449219 96.675781 28.574219 C 99.074219 25.726562 106.125 23.023438 110.851562 21.75 C 115.125 20.550781 118.800781 21.449219 123.601562 20.476562 C 129.976562 19.199219 140.324219 13.800781 145.574219 13.425781 C 148.351562 13.273438 150.148438 13.726562 152.101562 14.625 C 154.125 15.523438 156.074219 17.023438 157.425781 18.75 C 158.699219 20.398438 159.75 22.648438 160.125 24.75 C 160.574219 26.925781 160.425781 29.398438 159.824219 31.425781 C 159.148438 33.523438 157.574219 35.773438 156.375 37.199219 C 155.550781 38.175781 155.175781 38.398438 153.75 39.300781 C 149.023438 42 130.875 47.324219 121.050781 52.125 C 112.425781 56.324219 105.375 59.699219 97.648438 65.851562 C 88.199219 73.273438 75.824219 87.449219 69.523438 94.949219 C 65.925781 99.300781 64.199219 100.800781 61.648438 105.675781 C 57.375 114.148438 53.324219 134.101562 49.800781 142.726562 C 47.773438 147.675781 45.523438 149.324219 44.175781 153.976562 C 42.375 160.648438 43.199219 172.726562 42.375 179.851562 C 41.773438 184.875 40.273438 187.273438 40.273438 192.675781 C 40.273438 202.273438 43.273438 223.351562 46.5 232.199219 C 48.300781 237.226562 51.148438 239.25 52.949219 243.148438 C 54.824219 247.050781 55.273438 250.949219 57.375 255.601562 C 60.375 261.976562 64.875 270.976562 69.976562 277.648438 C 75.074219 284.324219 82.726562 291 87.976562 295.648438 C 91.648438 298.875 94.351562 300.976562 97.875 303.300781 C 101.699219 305.773438 106.351562 307.5 110.101562 309.898438 C 113.699219 312.226562 116.550781 315.074219 120.074219 317.398438 C 123.601562 319.800781 127.351562 322.648438 131.324219 324.226562 C 135.226562 325.726562 139.574219 326.101562 143.773438 326.625 C 148.050781 327.074219 152.550781 326.550781 156.824219 327.074219 C 160.949219 327.601562 164.851562 329.101562 168.976562 329.699219 C 173.101562 330.375 181.425781 330.148438 181.5 330.898438 C 181.574219 331.273438 177.675781 333 177.300781 332.550781 C 176.851562 332.023438 179.398438 327.976562 181.050781 326.324219 C 182.773438 324.675781 185.476562 323.25 187.273438 322.574219 C 188.625 322.050781 189.523438 321.898438 190.949219 321.898438 C 192.898438 321.898438 195.898438 322.273438 198.074219 323.25 C 200.25 324.226562 202.5 326.25 203.851562 327.75 C 204.75 328.800781 205.199219 329.550781 205.726562 330.898438 C 206.398438 332.699219 207 335.101562 207 338.023438 C 207 342.824219 204.824219 352.875 203.398438 356.851562 C 202.726562 358.949219 202.050781 359.925781 201.074219 361.199219 C 200.101562 362.476562 198.898438 363.675781 197.550781 364.574219 C 196.199219 365.476562 194.625 366.226562 193.050781 366.675781 C 191.476562 367.050781 189.75 367.273438 188.175781 367.199219 C 186.523438 367.050781 184.875 366.675781 183.375 366.074219 C 181.875 365.476562 180.375 364.574219 179.175781 363.523438 C 177.898438 362.476562 176.851562 361.199219 175.949219 359.773438 C 175.125 358.425781 174.523438 356.773438 174.148438 355.199219 C 173.851562 353.625 173.773438 351.898438 173.925781 350.324219 C 174.074219 348.675781 174.601562 347.023438 175.273438 345.523438 C 175.949219 344.101562 176.925781 342.675781 178.050781 341.476562 C 179.175781 340.351562 180.523438 339.300781 181.949219 338.550781 C 183.375 337.800781 185.023438 337.273438 186.601562 336.976562 C 188.25 336.75 189.976562 336.75 191.550781 336.976562 C 193.125 337.273438 194.773438 337.800781 196.199219 338.550781 C 197.625 339.375 198.976562 340.425781 200.101562 341.550781 C 201.226562 342.75 202.199219 344.175781 202.875 345.675781 C 203.550781 347.101562 204 348.75 204.148438 350.398438 C 204.300781 351.976562 204.226562 353.699219 203.851562 355.273438 C 203.550781 356.851562 202.875 358.5 202.050781 359.851562 C 201.226562 361.273438 200.101562 362.550781 198.824219 363.601562 C 197.625 364.648438 196.125 365.550781 194.625 366.148438 C 193.125 366.75 191.398438 367.050781 189.824219 367.199219 C 188.175781 367.273438 186.449219 367.050781 184.949219 366.601562 C 183.375 366.148438 181.800781 365.476562 180.449219 364.574219 C 179.101562 363.601562 177.898438 362.398438 176.925781 361.125 C 175.949219 359.851562 175.125 358.648438 174.601562 356.773438 C 173.851562 354.148438 173.699219 350.25 174 346.574219 C 174.375 342.226562 175.800781 336.226562 177.300781 332.550781 C 178.351562 330 179.398438 327.976562 181.050781 326.324219 C 182.773438 324.675781 185.476562 323.25 187.273438 322.574219 C 188.625 322.050781 189.523438 321.898438 190.949219 321.898438 C 192.898438 321.898438 195.898438 322.273438 198.074219 323.25 C 200.25 324.226562 202.5 326.25 203.851562 327.75 C 204.75 328.800781 205.199219 329.550781 205.726562 330.898438 C 206.398438 332.699219 207 336 207 338.023438 C 207 339.449219 207 340.273438 206.324219 341.773438 C 205.125 344.851562 201.523438 350.925781 198.148438 354.148438 C 194.925781 357.226562 190.726562 359.851562 186.675781 360.976562 C 182.699219 362.023438 179.023438 361.199219 174.148438 360.824219 C 167.023438 360.226562 155.398438 357.601562 148.351562 357 C 143.476562 356.550781 140.101562 357.226562 135.976562 356.699219 C 131.625 356.175781 127.125 354.976562 123 353.625 C 118.949219 352.273438 116.101562 351.074219 111.375 348.523438 C 102.976562 343.949219 88.5 334.425781 78 326.476562 C 67.726562 318.601562 57.074219 310.949219 48.976562 301.125 C 40.800781 291.148438 33.226562 275.550781 29.324219 266.851562 C 27.074219 261.898438 27 258.449219 25.273438 254.550781 C 23.476562 250.726562 20.625 248.625 18.75 243.675781 C 15.523438 235.050781 13.125 215.101562 11.773438 205.574219 C 10.949219 200.023438 10.351562 197.398438 10.425781 192.226562 C 10.5 185.101562 13.199219 173.851562 13.800781 166.574219 C 14.25 161.25 13.5 157.199219 14.25 152.699219 C 15 148.273438 16.574219 144 18.148438 139.800781 C 19.726562 135.675781 21.75 132.75 23.625 127.875 C 26.398438 120.601562 29.625 107.175781 32.324219 99.976562 C 34.125 95.324219 34.875 92.699219 37.425781 88.574219 C 41.023438 82.648438 47.175781 75.75 53.476562 68.773438 C 61.425781 60.226562 72.449219 48.523438 81.75 41.625 C 89.25 36 97.648438 32.324219 104.023438 29.101562 C 108.675781 26.699219 111.226562 25.425781 116.25 23.398438 C 123.824219 20.324219 140.550781 14.175781 145.574219 13.5 C 147.148438 13.273438 147.675781 13.351562 148.875 13.648438 C 150.675781 14.101562 153.300781 15 155.023438 16.351562 C 156.675781 17.699219 158.25 19.648438 159.148438 21.601562 C 160.050781 23.550781 160.351562 26.324219 160.351562 28.125 C 160.425781 29.398438 160.273438 30.226562 159.824219 31.425781 C 159.148438 33.148438 157.875 35.625 156.375 37.199219 C 154.875 38.699219 153.074219 39.523438 150.675781 40.648438 C 147.074219 42.375 141.375 44.476562 136.5 45.824219 C 131.699219 47.101562 126.675781 47.851562 121.800781 48.375 C 117.074219 48.824219 108.074219 49.800781 107.773438 48.675781 C 107.476562 47.550781 120 41.175781 120.375 41.699219 C 120.675781 42 117.449219 45.375 116.023438 46.425781 C 114.976562 47.175781 114.074219 47.550781 113.101562 47.851562 C 112.050781 48.226562 111.148438 48.523438 109.875 48.601562 C 108.148438 48.675781 105.449219 48.449219 103.5 47.699219 C 101.550781 46.875 99.449219 45.148438 98.25 43.875 C 97.351562 42.976562 96.898438 42.148438 96.449219 41.175781 C 95.925781 40.199219 95.550781 39.300781 95.324219 38.101562 C 95.023438 36.375 94.949219 33.601562 95.476562 31.574219 C 95.925781 29.773438 96.523438 28.199219 97.949219 26.476562 C 100.199219 23.851562 105 20.25 109.125 18.375 C 113.25 16.5 118.199219 16.125 122.699219 15.449219 C 127.125 14.699219 130.949219 14.398438 135.898438 14.175781 C 142.273438 13.875 152.851562 13.800781 157.800781 14.398438 C 160.425781 14.773438 161.925781 15 163.648438 15.898438 C 165.449219 16.800781 167.101562 18.300781 168.226562 19.875 C 169.351562 21.523438 170.101562 24 170.398438 25.574219 C 170.625 26.773438 170.625 27.523438 170.398438 28.648438 C 170.101562 30.300781 169.050781 32.925781 168.226562 34.351562 C 167.625 35.324219 166.949219 35.925781 166.199219 36.601562 C 165.449219 37.273438 164.773438 37.875 163.648438 38.398438 C 162.148438 39.074219 157.800781 39.824219 157.800781 39.824219 " clip-rule="nonzero"/></clipPath><clipPath id="ff2abe9afa"><path d="M 155.261719 174.71875 L 179.585938 174.71875 L 179.585938 199.519531 L 155.261719 199.519531 Z M 155.261719 174.71875 " clip-rule="nonzero"/></clipPath><clipPath id="51e0f6a19c"><path d="M 179.550781 183.449219 C 179.550781 191.25 178.648438 193.199219 177.449219 194.773438 C 176.324219 196.273438 174.601562 197.625 172.800781 198.375 C 171.074219 199.199219 168.898438 199.574219 167.023438 199.5 C 165.074219 199.351562 162.976562 198.675781 161.324219 197.699219 C 159.675781 196.726562 158.175781 195.148438 157.125 193.5 C 156.148438 191.851562 155.476562 189.75 155.398438 187.875 C 155.25 185.925781 155.699219 183.75 156.449219 182.023438 C 157.273438 180.300781 158.625 178.574219 160.125 177.375 C 161.625 176.175781 163.648438 175.273438 165.523438 174.976562 C 167.398438 174.601562 169.574219 174.75 171.449219 175.273438 C 173.25 175.875 176.476562 178.351562 176.476562 178.351562 " clip-rule="nonzero"/></clipPath><clipPath id="36fad755c4"><path d="M 170.761719 91.8125 L 271.4375 91.8125 L 271.4375 344.75 L 170.761719 344.75 Z M 170.761719 91.8125 " clip-rule="nonzero"/></clipPath><clipPath id="baf5f8969a"><path d="M 170.851562 115.199219 C 171.074219 114.148438 171 113.925781 171.074219 113.625 C 171.148438 113.175781 171.449219 112.574219 171.601562 112.050781 C 171.75 111.601562 171.824219 110.925781 171.976562 110.550781 C 172.125 110.25 172.351562 110.101562 172.425781 109.875 C 172.574219 109.574219 172.574219 109.351562 172.726562 109.050781 C 172.949219 108.675781 173.398438 108.226562 173.699219 107.851562 C 174.074219 107.398438 174.300781 106.800781 174.601562 106.425781 C 174.824219 106.199219 175.050781 106.125 175.199219 105.976562 C 175.425781 105.75 175.5 105.523438 175.726562 105.300781 C 176.101562 105 176.625 104.773438 177.074219 104.476562 C 177.523438 104.175781 177.976562 103.648438 178.351562 103.425781 C 178.648438 103.273438 178.875 103.273438 179.101562 103.199219 C 179.324219 103.050781 179.476562 102.824219 179.773438 102.75 C 180.226562 102.523438 180.824219 102.523438 181.351562 102.375 C 181.875 102.148438 182.476562 101.851562 182.851562 101.773438 C 183.148438 101.699219 183.449219 101.773438 183.675781 101.773438 C 183.976562 101.699219 184.199219 101.625 184.5 101.550781 C 184.949219 101.550781 185.550781 101.699219 186.074219 101.699219 C 186.601562 101.699219 187.273438 101.625 187.726562 101.625 C 187.949219 101.699219 188.175781 102 188.398438 101.851562 C 189.375 101.476562 189.449219 94.800781 192.226562 93.148438 C 196.574219 90.523438 210.300781 92.175781 216.75 94.949219 C 222.148438 97.351562 225.449219 102.449219 229.273438 106.648438 C 233.175781 110.851562 236.550781 115.574219 240 120.226562 C 243.375 124.726562 248.398438 132.148438 249.675781 134.101562 C 250.050781 134.625 250.050781 134.851562 250.351562 135.074219 C 250.648438 135.300781 251.101562 135.226562 251.550781 135.375 C 252.074219 135.449219 253.199219 135.75 253.273438 135.75 C 253.273438 135.75 254.324219 136.273438 254.851562 136.5 C 255.375 136.800781 256.351562 137.25 256.425781 137.25 C 256.425781 137.324219 257.324219 138.074219 257.773438 138.449219 C 258.226562 138.824219 259.050781 139.5 259.125 139.574219 C 259.125 139.574219 259.800781 140.476562 260.101562 141 C 260.476562 141.449219 261.148438 142.351562 261.148438 142.425781 C 261.148438 142.425781 261.601562 143.476562 261.824219 144 C 262.050781 144.601562 262.5 145.648438 262.5 145.648438 C 262.5 145.648438 262.648438 146.851562 262.726562 147.375 C 262.800781 147.976562 262.949219 149.101562 262.949219 149.101562 C 262.949219 149.175781 262.875 150.300781 262.800781 150.898438 C 262.726562 151.5 262.648438 152.625 262.648438 152.625 C 262.648438 152.699219 261.449219 158.476562 261.675781 158.773438 C 261.675781 158.851562 261.75 158.851562 261.75 158.851562 C 261.824219 158.851562 262.800781 159.375 263.324219 159.601562 C 263.851562 159.898438 264.898438 160.425781 264.898438 160.425781 C 264.898438 160.425781 265.800781 161.175781 266.25 161.550781 C 266.699219 161.925781 267.523438 162.675781 267.523438 162.75 C 267.601562 162.75 268.199219 163.648438 268.574219 164.175781 C 268.875 164.625 269.550781 165.523438 269.550781 165.601562 C 269.625 165.601562 270 166.648438 270.226562 167.25 C 270.449219 167.773438 270.824219 168.824219 270.898438 168.824219 C 270.898438 168.898438 271.050781 170.023438 271.125 170.550781 C 271.199219 171.148438 271.351562 172.273438 271.351562 172.351562 C 271.351562 172.351562 271.199219 173.476562 271.125 174.074219 C 271.050781 174.675781 270.976562 175.800781 270.976562 175.800781 C 270.976562 175.800781 270.523438 176.925781 270.375 177.449219 C 270.148438 177.976562 270 178.351562 269.773438 179.101562 C 269.175781 180.601562 268.125 183.449219 267.074219 186.074219 C 265.648438 189.75 264.074219 194.773438 261.976562 198.824219 C 259.726562 202.949219 256.800781 207 254.023438 210.601562 C 251.398438 214.050781 248.851562 217.050781 245.773438 220.050781 C 242.625 223.125 238.648438 225.675781 235.273438 228.675781 C 231.824219 231.75 228.675781 234.976562 225.148438 238.125 C 221.398438 241.5 217.425781 245.175781 213.449219 248.175781 C 209.550781 251.175781 203.550781 252.601562 201.601562 256.199219 C 199.648438 259.726562 201.449219 264.898438 201.375 269.398438 C 201.300781 274.125 201.300781 279.074219 201.074219 283.800781 C 200.851562 288.375 200.25 292.648438 199.875 297.148438 C 199.574219 301.726562 199.273438 306.375 199.050781 310.949219 C 198.898438 315.375 198.898438 320.324219 198.824219 324.074219 C 198.824219 327 198.898438 329.773438 198.75 331.800781 C 198.675781 333 198.675781 333.824219 198.375 334.800781 C 198.148438 335.773438 197.773438 336.75 197.324219 337.648438 C 196.875 338.550781 196.273438 339.449219 195.601562 340.199219 C 194.925781 340.949219 194.101562 341.699219 193.273438 342.226562 C 192.449219 342.824219 191.476562 343.351562 190.574219 343.648438 C 189.601562 344.023438 188.625 344.25 187.574219 344.398438 C 186.601562 344.550781 185.550781 344.550781 184.5 344.398438 C 183.523438 344.25 182.476562 344.023438 181.5 343.648438 C 180.601562 343.351562 179.625 342.824219 178.800781 342.226562 C 177.976562 341.699219 177.148438 340.949219 176.476562 340.199219 C 175.875 339.449219 175.273438 338.550781 174.75 337.648438 C 174.300781 336.75 173.925781 335.773438 173.699219 334.800781 C 173.398438 333.824219 173.324219 331.800781 173.324219 331.800781 C 173.324219 331.800781 173.25 327 173.25 324.074219 C 173.175781 320.324219 173.023438 315.300781 173.023438 310.949219 C 173.023438 306.601562 173.023438 302.25 173.175781 297.898438 C 173.324219 293.476562 173.925781 288.976562 174.074219 284.625 C 174.148438 280.199219 174 275.925781 174 271.574219 C 174 267.226562 173.851562 262.726562 173.851562 258.375 C 173.773438 254.101562 172.726562 249.898438 173.699219 245.699219 C 174.824219 241.050781 177.148438 235.050781 180.601562 231.976562 C 183.824219 229.199219 189.449219 229.648438 193.273438 227.550781 C 196.949219 225.523438 200.101562 222.300781 203.175781 219.601562 C 206.023438 217.050781 211.199219 213.148438 211.050781 211.875 C 211.050781 211.425781 210 211.648438 209.699219 211.050781 C 208.574219 209.023438 207.976562 198.300781 209.925781 194.398438 C 211.425781 191.324219 217.199219 190.574219 217.800781 188.175781 C 218.324219 186.148438 215.25 183.976562 214.726562 181.273438 C 214.050781 177.976562 215.925781 170.925781 215.023438 169.800781 C 214.726562 169.425781 213.75 169.574219 213.75 169.574219 C 213.75 169.574219 212.625 169.125 212.101562 168.824219 C 211.574219 168.601562 210.523438 168.148438 210.523438 168.148438 C 210.449219 168.148438 209.550781 167.398438 209.101562 167.023438 C 208.648438 166.648438 207.75 165.976562 207.675781 165.976562 C 207.675781 165.976562 207 165 206.625 164.550781 C 206.25 164.101562 205.5 163.199219 205.5 163.199219 C 205.5 163.125 205.050781 162.074219 204.75 161.550781 C 204.523438 161.023438 204.074219 159.976562 204.074219 159.976562 C 204.074219 159.898438 203.851562 158.773438 203.699219 158.25 C 203.625 157.648438 203.398438 156.523438 203.398438 156.449219 C 203.324219 156.375 195.523438 153 191.699219 150.824219 C 187.726562 148.648438 183.148438 146.550781 180.074219 143.398438 C 177.226562 140.398438 175.273438 136.5 173.773438 132.601562 C 172.273438 128.699219 171.449219 120.601562 171.226562 120.074219 C 171.226562 120 171.226562 120 171.226562 120 C 171.226562 120 171.226562 119.925781 171.226562 119.851562 C 171.226562 119.699219 171 118.949219 170.925781 118.425781 C 170.851562 117.898438 171 117.375 171 116.773438 C 170.925781 116.25 170.851562 115.199219 170.851562 115.199219 " clip-rule="nonzero"/></clipPath><clipPath id="35789cc0a1"><path d="M 172.046875 5 L 367.652344 5 L 367.652344 333 L 172.046875 333 Z M 172.046875 5 " clip-rule="nonzero"/></clipPath><clipPath id="97df9b9a0f"><path d="M 172.050781 25.726562 C 177.824219 8.25 182.925781 5.476562 186.976562 5.175781 C 191.023438 4.800781 196.800781 6.75 199.648438 9.523438 C 202.5 12.226562 203.476562 17.25 204.300781 21.375 C 205.125 25.648438 204.226562 31.949219 204.449219 34.949219 C 204.601562 36.375 204.074219 37.425781 204.898438 38.25 C 206.398438 39.675781 212.324219 38.476562 215.925781 39.601562 C 219.75 40.800781 223.199219 43.648438 227.175781 45.375 C 231.523438 47.324219 236.625 48.523438 240.976562 50.476562 C 245.101562 52.351562 248.851562 54.449219 252.675781 56.625 C 256.5 58.800781 260.25 60.898438 263.925781 63.449219 C 267.824219 66.148438 273.675781 70.875 275.324219 72.449219 C 275.851562 72.898438 275.851562 73.425781 276.226562 73.425781 C 277.125 73.425781 279.75 69.898438 280.351562 69.449219 C 280.5 69.375 280.574219 69.300781 280.648438 69.300781 C 280.648438 69.226562 280.648438 69.226562 280.648438 69.226562 C 280.949219 68.773438 282.75 63.148438 283.875 60.675781 C 284.773438 58.726562 286.648438 55.574219 286.648438 55.574219 C 286.648438 55.5 287.398438 54.601562 287.773438 54.074219 C 288.148438 53.625 288.824219 52.648438 288.824219 52.648438 C 288.824219 52.648438 289.800781 51.898438 290.25 51.523438 C 290.699219 51.148438 291.601562 50.398438 291.601562 50.324219 C 291.601562 50.324219 291.601562 50.324219 291.675781 50.324219 C 291.675781 50.324219 292.726562 49.875 293.25 49.574219 C 293.851562 49.351562 294.898438 48.824219 294.898438 48.824219 C 294.898438 48.824219 296.101562 48.523438 296.699219 48.449219 C 297.300781 48.300781 298.425781 48.074219 298.425781 48.074219 C 298.5 48.074219 299.625 48.148438 300.226562 48.148438 C 300.824219 48.148438 302.023438 48.226562 302.101562 48.226562 C 302.101562 48.226562 303.226562 48.523438 303.824219 48.75 C 304.351562 48.898438 305.550781 49.199219 305.550781 49.199219 C 305.550781 49.199219 306.601562 49.800781 307.125 50.101562 C 307.648438 50.398438 308.625 51 308.699219 51 C 308.699219 51.074219 309.523438 51.898438 309.976562 52.273438 C 310.425781 52.726562 311.25 53.550781 311.324219 53.550781 C 311.324219 53.550781 311.925781 54.523438 312.226562 55.050781 C 312.601562 55.574219 313.199219 56.550781 313.199219 56.625 C 313.273438 56.625 313.648438 57.75 313.800781 58.273438 C 314.023438 58.875 314.398438 60 314.398438 60 C 314.398438 60.074219 314.175781 61.425781 314.550781 61.726562 C 314.851562 62.101562 315.976562 61.351562 316.648438 61.800781 C 318.226562 63.074219 321 70.273438 320.175781 74.023438 C 319.199219 78.226562 312.148438 83.550781 309.824219 85.574219 C 308.851562 86.398438 307.875 86.625 307.5 87.148438 C 307.273438 87.375 307.351562 87.675781 307.199219 87.898438 C 307.050781 88.199219 306.824219 88.273438 306.601562 88.648438 C 305.925781 89.851562 303.675781 94.949219 303.601562 96.300781 C 303.523438 96.75 303.675781 97.125 303.824219 97.273438 C 303.824219 97.351562 303.898438 97.273438 303.976562 97.351562 C 304.199219 97.425781 305.625 97.949219 305.625 97.949219 C 305.625 97.949219 306.601562 98.625 307.125 98.925781 C 307.574219 99.300781 308.550781 99.898438 308.625 99.976562 C 308.625 99.976562 309.375 100.800781 309.824219 101.25 C 310.199219 101.699219 310.949219 102.601562 310.949219 102.601562 C 311.023438 102.601562 311.550781 103.648438 311.851562 104.175781 C 312.074219 104.699219 312.375 105.148438 312.675781 105.75 C 313.050781 106.574219 313.273438 107.324219 313.800781 108.523438 C 314.851562 111.148438 317.101562 116.398438 318.75 120.300781 C 320.398438 124.199219 321.976562 127.949219 323.699219 132 C 325.5 136.273438 328.351562 140.550781 329.476562 145.199219 C 330.523438 150 330.148438 156.523438 330 160.199219 C 329.925781 162.375 329.25 163.648438 329.476562 165.375 C 329.699219 167.25 330 170.324219 331.5 171.226562 C 333.375 172.273438 337.5 169.648438 340.875 169.273438 C 344.851562 168.824219 349.648438 167.773438 353.625 169.050781 C 358.050781 170.398438 364.199219 174.148438 366.148438 177.976562 C 367.875 181.5 366.898438 186.675781 365.925781 190.726562 C 364.949219 194.699219 363.148438 199.648438 360.074219 202.125 C 356.925781 204.601562 351.300781 205.574219 346.949219 205.351562 C 342.523438 205.125 334.875 200.851562 333.976562 200.851562 C 333.898438 200.851562 333.824219 200.851562 333.824219 200.925781 C 333.601562 201.074219 333.300781 201.976562 333.074219 202.351562 C 332.925781 202.648438 332.773438 202.726562 332.699219 203.101562 C 332.25 204.675781 333.074219 210.824219 332.175781 214.648438 C 331.199219 218.699219 328.5 222.601562 326.773438 226.574219 C 325.125 230.550781 323.550781 234.601562 322.199219 238.648438 C 320.925781 242.550781 320.023438 246.523438 318.75 250.574219 C 317.550781 254.625 316.574219 258.75 314.925781 262.800781 C 313.199219 267 310.125 272.699219 308.550781 275.25 C 307.800781 276.449219 306.824219 276.601562 306.675781 277.726562 C 306.449219 279.75 309.601562 286.050781 310.574219 286.726562 C 310.875 286.949219 311.324219 286.726562 311.324219 286.726562 C 311.398438 286.726562 312.449219 287.023438 312.976562 287.175781 C 313.574219 287.324219 314.625 287.625 314.625 287.625 C 314.699219 287.699219 315.675781 288.226562 316.125 288.523438 C 316.648438 288.75 317.625 289.351562 317.625 289.351562 C 317.625 289.351562 318.449219 290.101562 318.898438 290.476562 C 319.273438 290.851562 320.101562 291.675781 320.101562 291.675781 C 320.101562 291.675781 320.773438 292.648438 321.074219 293.101562 C 321.375 293.550781 321.976562 294.523438 321.976562 294.523438 C 321.976562 294.523438 322.351562 295.574219 322.574219 296.175781 C 322.726562 296.699219 323.101562 297.75 323.101562 297.75 C 323.101562 297.75 323.25 298.875 323.25 299.476562 C 323.324219 300 323.398438 301.125 323.398438 301.125 C 323.398438 301.199219 323.25 302.25 323.175781 302.851562 C 323.101562 303.375 322.949219 304.5 322.949219 304.5 C 322.949219 304.574219 322.5 305.625 322.273438 306.148438 C 322.050781 306.675781 321.675781 307.648438 321.601562 307.726562 C 321.601562 307.726562 320.925781 308.625 320.625 309.074219 C 320.25 309.523438 319.648438 310.425781 319.574219 310.425781 C 319.574219 310.5 318.75 311.175781 318.300781 311.550781 C 317.851562 311.925781 317.023438 312.601562 317.023438 312.675781 C 316.949219 312.675781 315.976562 313.125 315.449219 313.425781 C 314.925781 313.648438 314.550781 313.726562 313.949219 314.175781 C 312.523438 315 309.074219 318.601562 307.949219 318.898438 C 307.574219 318.976562 307.5 318.675781 307.125 318.75 C 305.925781 319.050781 302.699219 323.851562 299.851562 323.773438 C 295.648438 323.773438 286.574219 316.648438 284.699219 312.898438 C 283.5 310.5 285.148438 307.648438 284.699219 305.699219 C 284.324219 304.125 283.574219 301.875 282.675781 301.726562 C 281.773438 301.5 280.726562 303.148438 279.300781 304.273438 C 276.523438 306.226562 271.425781 309.976562 267.449219 312.375 C 263.699219 314.625 260.101562 316.648438 256.050781 318.148438 C 251.851562 319.648438 246.976562 320.25 242.550781 321.300781 C 238.273438 322.351562 234.074219 322.949219 230.101562 324.449219 C 225.976562 325.949219 222.375 329.023438 218.324219 330.375 C 214.273438 331.726562 210.226562 333.75 205.648438 332.699219 C 198.976562 331.273438 185.773438 322.875 183.523438 317.175781 C 181.949219 313.273438 184.5 308.925781 185.925781 304.875 C 187.425781 300.601562 190.800781 296.550781 192.523438 292.273438 C 194.101562 288.148438 196.125 283.949219 196.050781 279.75 C 196.050781 275.476562 193.273438 270.75 192.148438 267 C 191.175781 264.148438 190.125 261.074219 189.601562 259.425781 C 189.375 258.675781 189.226562 258.300781 189.074219 257.699219 C 188.925781 257.175781 188.550781 256.050781 188.550781 255.976562 C 188.550781 255.976562 188.550781 254.773438 188.476562 254.175781 C 188.476562 253.574219 188.398438 252.449219 188.398438 252.375 C 188.398438 252.375 188.625 251.25 188.773438 250.648438 C 188.851562 250.050781 189.074219 248.851562 189.074219 248.851562 C 189.074219 248.851562 189.601562 247.800781 189.824219 247.199219 C 190.125 246.675781 190.574219 245.625 190.648438 245.625 C 190.648438 245.550781 191.398438 244.648438 191.773438 244.199219 C 192.148438 243.75 192.824219 242.773438 192.898438 242.773438 C 192.898438 242.773438 193.800781 242.023438 194.324219 241.648438 C 194.773438 241.351562 195.75 240.601562 195.75 240.601562 C 195.75 240.601562 196.875 240.074219 197.398438 239.851562 C 197.925781 239.625 199.050781 239.175781 199.050781 239.175781 C 199.050781 239.175781 200.25 238.949219 200.851562 238.875 C 201.449219 238.726562 202.574219 238.574219 202.574219 238.574219 C 202.648438 238.574219 203.773438 238.648438 204.375 238.648438 C 204.976562 238.726562 206.175781 238.800781 206.175781 238.800781 C 206.175781 238.800781 206.476562 239.023438 206.625 238.949219 C 207.675781 238.574219 211.574219 231.824219 214.125 228.375 C 216.601562 225 218.925781 221.625 221.699219 218.476562 C 224.625 215.101562 227.925781 211.949219 231.148438 208.800781 C 234.300781 205.574219 237.898438 202.574219 240.976562 199.351562 C 243.976562 196.199219 248.398438 193.199219 249.300781 189.601562 C 250.199219 186.148438 247.800781 182.25 247.050781 178.273438 C 246.300781 174.074219 245.023438 167.324219 244.875 165.074219 C 244.800781 164.398438 244.949219 164.101562 244.875 163.648438 C 244.875 163.125 244.726562 162.601562 244.800781 162.148438 C 244.800781 161.851562 244.875 161.699219 244.949219 161.476562 C 244.949219 161.175781 244.875 161.023438 244.949219 160.726562 C 245.023438 160.351562 245.324219 159.824219 245.476562 159.300781 C 245.550781 158.851562 245.625 158.25 245.773438 157.875 C 245.925781 157.648438 246.074219 157.5 246.148438 157.273438 C 246.300781 157.050781 246.300781 156.824219 246.449219 156.601562 C 246.601562 156.226562 247.050781 155.773438 247.351562 155.398438 C 247.574219 155.101562 247.875 155.023438 247.875 154.574219 C 247.949219 153.300781 245.625 149.550781 244.199219 146.699219 C 242.398438 143.25 240.449219 139.574219 237.976562 135.449219 C 234.75 130.125 229.949219 123.226562 226.125 117.375 C 222.601562 111.976562 216.148438 102.375 215.851562 101.699219 C 215.625 101.398438 213 100.574219 211.050781 99.898438 C 208.050781 98.773438 200.925781 96.449219 199.351562 95.851562 C 198.898438 95.699219 198.75 95.398438 198.601562 95.550781 C 197.851562 96 198.449219 102.375 198.375 105.75 C 198.375 108.898438 198.523438 112.875 198.375 115.199219 C 198.300781 116.476562 198.226562 117.226562 198 118.199219 C 197.773438 119.175781 197.398438 120.148438 196.875 121.050781 C 196.425781 121.949219 195.824219 122.851562 195.148438 123.601562 C 194.476562 124.351562 193.726562 125.101562 192.898438 125.625 C 192 126.226562 191.101562 126.75 190.125 127.050781 C 189.226562 127.425781 188.175781 127.648438 187.199219 127.800781 C 186.148438 127.949219 185.101562 127.949219 184.125 127.800781 C 183.074219 127.648438 182.101562 127.425781 181.125 127.050781 C 180.148438 126.675781 179.25 126.226562 178.425781 125.625 C 177.601562 125.101562 176.773438 124.351562 176.101562 123.601562 C 175.425781 122.851562 174.824219 121.949219 174.375 121.050781 C 173.851562 120.148438 173.550781 119.175781 173.25 118.199219 C 173.023438 117.226562 172.875 115.199219 172.875 115.199219 C 172.875 115.199219 172.875 109.199219 172.875 105.75 C 172.800781 101.476562 172.726562 96.148438 172.648438 91.5 C 172.574219 87.148438 172.351562 83.101562 172.425781 78.824219 C 172.5 74.476562 173.023438 70.050781 173.101562 65.773438 C 173.25 61.5 173.023438 57.523438 172.949219 53.175781 C 172.875 48.601562 172.875 43.648438 172.726562 39 C 172.574219 34.5 172.050781 25.726562 172.050781 25.726562 " clip-rule="nonzero"/></clipPath></defs><g clip-path="url(#abb5468983)"><path fill="#002190" d="M 367.617188 161.714844 L 342.734375 161.714844 C 338.828125 138.003906 329.496094 115.476562 315.464844 95.898438 L 333.0625 78.300781 C 335.933594 75.429688 335.933594 70.773438 333.0625 67.902344 L 307.074219 41.914062 C 304.203125 39.046875 299.546875 39.042969 296.675781 41.914062 L 279.078125 59.511719 C 259.5 45.480469 236.972656 36.148438 213.261719 32.242188 L 213.261719 8.398438 C 213.261719 4.339844 209.972656 1.050781 205.910156 1.050781 C 166.964844 1.0625 169.121094 1.015625 168.417969 1.085938 C 67.226562 12.597656 0.0078125 95.792969 0.105469 187.433594 C 0.214844 286.261719 75.582031 364.511719 168.390625 373.902344 C 169.136719 373.980469 166.960938 373.929688 205.914062 373.945312 C 209.972656 373.945312 213.261719 370.652344 213.261719 366.59375 L 213.261719 342.636719 C 236.976562 338.734375 259.5 329.398438 279.078125 315.367188 L 296.679688 332.964844 C 299.546875 335.835938 304.203125 335.835938 307.074219 332.96875 L 333.0625 306.976562 C 335.933594 304.105469 335.933594 299.453125 333.0625 296.582031 L 315.464844 278.984375 C 329.496094 259.40625 338.828125 236.878906 342.734375 213.164062 L 367.617188 213.164062 C 371.675781 213.164062 374.96875 209.875 374.96875 205.816406 L 374.96875 169.066406 C 374.964844 165.003906 371.675781 161.714844 367.617188 161.714844 Z M 169.160156 224.191406 C 165.101562 224.191406 161.808594 227.484375 161.808594 231.542969 L 161.808594 327.710938 C 128.992188 321.746094 100.351562 304.644531 79.636719 280.640625 L 85.074219 275.203125 C 87.945312 272.332031 87.945312 267.679688 85.074219 264.808594 C 82.203125 261.9375 77.550781 261.9375 74.679688 264.808594 L 70.546875 268.941406 C 55.6875 247.625 46.535156 222.132812 45.136719 194.789062 L 51.5625 194.789062 C 55.621094 194.789062 58.910156 191.5 58.910156 187.441406 C 58.910156 183.382812 55.621094 180.089844 51.5625 180.089844 L 45.136719 180.089844 C 46.707031 149.375 58.0625 120.996094 76.296875 98.25 L 80.359375 102.3125 C 83.230469 105.183594 87.882812 105.183594 90.757812 102.3125 C 93.625 99.441406 93.625 94.789062 90.757812 91.917969 L 86.085938 87.246094 C 106.121094 66.925781 132.273438 52.539062 161.808594 47.167969 L 161.808594 143.339844 C 161.808594 147.398438 165.101562 150.6875 169.160156 150.6875 C 189.425781 150.6875 205.910156 167.175781 205.910156 187.441406 C 205.910156 207.707031 189.425781 224.191406 169.160156 224.191406 Z M 14.8125 187.5 C 14.761719 103.125 76.238281 29.558594 161.808594 16.734375 L 161.808594 32.25 C 86.363281 44.644531 30.242188 110.238281 30.242188 187.441406 C 30.242188 264.894531 86.625 330.28125 161.808594 342.632812 L 161.808594 358.226562 C 74.203125 344.394531 14.863281 270.34375 14.8125 187.5 Z M 360.265625 198.464844 L 336.363281 198.464844 C 332.648438 198.464844 329.515625 201.238281 329.066406 204.925781 C 325.945312 230.503906 315.886719 254.789062 299.972656 275.152344 C 297.6875 278.078125 297.941406 282.25 300.566406 284.875 L 317.472656 301.78125 L 301.875 317.375 L 284.972656 300.46875 C 282.347656 297.847656 278.175781 297.589844 275.25 299.875 C 254.882812 315.789062 230.601562 325.851562 205.019531 328.972656 C 201.332031 329.421875 198.5625 332.550781 198.5625 336.269531 L 198.5625 359.246094 L 176.511719 359.246094 L 176.511719 238.359375 C 201.410156 234.78125 220.613281 213.3125 220.613281 187.441406 C 220.613281 161.566406 201.410156 140.101562 176.511719 136.523438 C 176.511719 123.6875 176.511719 30.589844 176.511719 15.75 L 198.5625 15.75 L 198.5625 38.613281 C 198.5625 42.332031 201.332031 45.460938 205.019531 45.910156 C 230.601562 49.03125 254.882812 59.09375 275.25 75.003906 C 278.171875 77.292969 282.34375 77.035156 284.972656 74.410156 L 301.875 57.507812 L 317.472656 73.101562 L 300.566406 90.003906 C 297.941406 92.632812 297.6875 96.804688 299.972656 99.730469 C 315.886719 120.09375 325.945312 144.378906 329.066406 169.957031 C 329.515625 173.644531 332.648438 176.417969 336.363281 176.417969 L 360.265625 176.417969 Z M 360.265625 198.464844 " fill-opacity="1" fill-rule="nonzero"/></g><path fill="#002190" d="M 169.160156 165.390625 C 159.578125 165.390625 151.410156 171.535156 148.375 180.089844 L 80.957031 180.089844 C 76.898438 180.089844 73.609375 183.382812 73.609375 187.441406 C 73.609375 191.5 76.898438 194.789062 80.957031 194.789062 L 147.738281 194.789062 L 105.160156 237.371094 C 102.289062 240.238281 102.289062 244.894531 105.160156 247.765625 C 108.03125 250.636719 112.683594 250.636719 115.554688 247.765625 L 157.304688 206.019531 C 171.804688 215.308594 191.210938 204.925781 191.210938 187.441406 C 191.210938 175.28125 181.320312 165.390625 169.160156 165.390625 Z M 169.160156 194.789062 C 165.109375 194.789062 161.808594 191.492188 161.808594 187.441406 C 161.808594 183.386719 165.109375 180.089844 169.160156 180.089844 C 173.214844 180.089844 176.511719 183.386719 176.511719 187.441406 C 176.511719 191.492188 173.214844 194.789062 169.160156 194.789062 Z M 169.160156 194.789062 " fill-opacity="1" fill-rule="nonzero"/><g clip-path="url(#a1d362e5c9)"><g clip-path="url(#4b96259f79)"><path fill="#002190" d="M 7.425781 10.425781 L 210.074219 10.425781 L 210.074219 370.109375 L 7.425781 370.109375 Z M 7.425781 10.425781 " fill-opacity="1" fill-rule="nonzero"/></g></g><g clip-path="url(#ff2abe9afa)"><g clip-path="url(#51e0f6a19c)"><path fill="#002190" d="M 152.398438 171.976562 L 182.925781 171.976562 L 182.925781 202.621094 L 152.398438 202.621094 Z M 152.398438 171.976562 " fill-opacity="1" fill-rule="nonzero"/></g></g><g clip-path="url(#36fad755c4)"><g clip-path="url(#baf5f8969a)"><path fill="#002190" d="M 167.851562 90.148438 L 274.351562 90.148438 L 274.351562 347.246094 L 167.851562 347.246094 Z M 167.851562 90.148438 " fill-opacity="1" fill-rule="nonzero"/></g></g><g clip-path="url(#35789cc0a1)"><g clip-path="url(#97df9b9a0f)"><path fill="#002190" d="M 169.050781 2.175781 L 369.148438 2.175781 L 369.148438 335.675781 L 169.050781 335.675781 Z M 169.050781 2.175781 " fill-opacity="1" fill-rule="nonzero"/></g></g></svg>