<svg xmlns="http://www.w3.org/2000/svg" xmlns:xlink="http://www.w3.org/1999/xlink" width="500" zoomAndPan="magnify" viewBox="0 0 375 374.999991" height="500" preserveAspectRatio="xMidYMid meet" version="1.0"><defs><clipPath id="82125a8a1e"><path d="M 70.90625 74 L 304.15625 74 L 304.15625 303 L 70.90625 303 Z M 70.90625 74 " clip-rule="nonzero"/></clipPath><clipPath id="8e38f504fa"><path d="M 70.90625 75 L 304.15625 75 L 304.15625 305 L 70.90625 305 Z M 70.90625 75 " clip-rule="nonzero"/></clipPath></defs><g clip-path="url(#82125a8a1e)"><path fill="#727272" d="M 193.960938 99.722656 C 190.046875 97.109375 184.945312 97.109375 181.027344 99.722656 L 99.414062 154.128906 C 96.171875 156.292969 94.222656 159.933594 94.222656 163.832031 L 94.222656 267.941406 C 94.222656 274.382812 99.441406 279.601562 105.882812 279.601562 L 140.859375 279.601562 L 140.859375 232.964844 C 140.859375 213.648438 156.519531 197.988281 175.835938 197.988281 L 199.152344 197.988281 C 218.472656 197.988281 234.128906 213.648438 234.128906 232.964844 L 234.128906 279.601562 L 269.109375 279.601562 C 275.546875 279.601562 280.765625 274.382812 280.765625 267.941406 L 280.765625 163.832031 C 280.765625 159.933594 278.820312 156.292969 275.574219 154.128906 Z M 168.09375 80.320312 C 179.84375 72.488281 195.148438 72.488281 206.898438 80.320312 L 288.507812 134.730469 C 298.238281 141.214844 304.085938 152.136719 304.085938 163.832031 L 304.085938 267.941406 C 304.085938 287.257812 288.425781 302.917969 269.109375 302.917969 L 222.472656 302.917969 C 216.03125 302.917969 210.8125 297.699219 210.8125 291.257812 L 210.8125 232.964844 C 210.8125 226.527344 205.59375 221.304688 199.152344 221.304688 L 175.835938 221.304688 C 169.398438 221.304688 164.175781 226.527344 164.175781 232.964844 L 164.175781 291.257812 C 164.175781 297.699219 158.957031 302.917969 152.519531 302.917969 L 105.882812 302.917969 C 86.566406 302.917969 70.90625 287.257812 70.90625 267.941406 L 70.90625 163.832031 C 70.90625 152.136719 76.75 141.214844 86.480469 134.730469 Z M 168.09375 80.320312 " fill-opacity="1" fill-rule="evenodd"/></g><g clip-path="url(#8e38f504fa)"><path fill="#002190" d="M 206.898438 81.660156 C 195.148438 73.828125 179.84375 73.828125 168.09375 81.660156 L 86.480469 136.070312 C 76.75 142.554688 70.90625 153.476562 70.90625 165.171875 L 70.90625 269.28125 C 70.90625 288.597656 86.566406 304.257812 105.882812 304.257812 L 152.519531 304.257812 C 158.957031 304.257812 164.175781 299.039062 164.175781 292.601562 L 164.175781 234.304688 C 164.175781 227.867188 169.398438 222.648438 175.835938 222.648438 L 199.152344 222.648438 C 205.59375 222.648438 210.8125 227.867188 210.8125 234.304688 L 210.8125 292.601562 C 210.8125 299.039062 216.03125 304.257812 222.472656 304.257812 L 269.109375 304.257812 C 288.425781 304.257812 304.085938 288.597656 304.085938 269.28125 L 304.085938 165.171875 C 304.085938 153.476562 298.238281 142.554688 288.507812 136.070312 Z M 206.898438 81.660156 " fill-opacity="1" fill-rule="evenodd"/></g></svg>