<svg xmlns="http://www.w3.org/2000/svg" xmlns:xlink="http://www.w3.org/1999/xlink" width="500" zoomAndPan="magnify" viewBox="0 0 375 374.999991" height="500" preserveAspectRatio="xMidYMid meet" version="1.0"><defs><clipPath id="5bddd7fa91"><path d="M 77.949219 35.496094 L 117.089844 35.496094 L 117.089844 72.671875 L 77.949219 72.671875 Z M 77.949219 35.496094 " clip-rule="nonzero"/></clipPath><clipPath id="1ca82c6349"><path d="M 89.476562 41.925781 C 113.773438 64.125 108.675781 65.175781 105.976562 65.175781 C 103.351562 65.175781 100.800781 63.898438 98.023438 62.324219 C 94.425781 60.375 90.226562 56.101562 86.851562 53.25 C 84.148438 50.851562 80.851562 48.75 79.425781 46.574219 C 78.449219 45.148438 78 43.875 78 42.449219 C 78 41.101562 78.675781 39.300781 79.351562 38.324219 C 79.800781 37.574219 80.175781 37.199219 80.925781 36.75 C 81.898438 36.148438 83.925781 35.625 85.125 35.550781 C 85.949219 35.550781 86.550781 35.625 87.300781 36 C 88.351562 36.523438 89.925781 37.875 90.675781 38.773438 C 91.125 39.449219 91.351562 40.125 91.5 40.800781 C 91.648438 41.550781 91.800781 42.226562 91.648438 43.050781 C 91.425781 44.175781 90.75 46.050781 89.851562 47.023438 C 88.875 48.074219 87.375 48.898438 86.023438 49.125 C 84.675781 49.351562 82.800781 48.898438 81.675781 48.449219 C 80.925781 48.148438 80.476562 47.773438 79.875 47.175781 C 79.199219 46.273438 78.226562 44.550781 78 43.199219 C 77.851562 41.851562 78.375 39.976562 78.898438 38.925781 C 79.273438 38.175781 79.648438 37.726562 80.324219 37.199219 C 81.300781 36.523438 83.023438 35.625 84.375 35.550781 C 85.726562 35.476562 86.851562 35.773438 88.574219 36.675781 C 92.851562 38.925781 103.726562 49.125 107.851562 53.101562 C 109.949219 55.199219 111 56.324219 112.425781 58.199219 C 114.074219 60.375 116.699219 63.148438 117 65.550781 C 117.300781 67.574219 116.851562 70.351562 115.351562 71.476562 C 113.324219 72.976562 108.375 72.898438 104.324219 71.398438 C 97.726562 68.851562 84.824219 54.898438 81.601562 51.375 C 80.625 50.25 80.175781 49.949219 79.875 48.976562 C 79.425781 47.773438 79.273438 45.898438 79.726562 44.625 C 80.175781 43.351562 81.300781 41.925781 82.5 41.25 C 83.699219 40.574219 85.574219 40.425781 86.851562 40.648438 C 87.824219 40.800781 89.476562 41.925781 89.476562 41.925781 " clip-rule="nonzero"/></clipPath><clipPath id="1d920a7fe1"><path d="M 36.074219 43.496094 L 104.097656 43.496094 L 104.097656 106 L 36.074219 106 Z M 36.074219 43.496094 " clip-rule="nonzero"/></clipPath><clipPath id="021cefe612"><path d="M 36.148438 87.148438 C 42.898438 80.925781 41.175781 80.175781 41.476562 78.898438 C 42.148438 75.601562 51.601562 67.949219 56.625 63.300781 C 61.273438 59.023438 67.125 54.824219 70.648438 51.976562 C 72.675781 50.25 74.101562 48.976562 75.601562 47.773438 C 76.800781 46.875 77.773438 46.050781 79.050781 45.449219 C 80.25 44.851562 81.523438 44.324219 82.875 44.023438 C 84.226562 43.726562 85.648438 43.574219 87 43.574219 C 88.351562 43.574219 89.773438 43.726562 91.125 44.101562 C 92.398438 44.398438 93.75 44.925781 94.949219 45.601562 C 96.148438 46.199219 97.351562 47.023438 98.324219 47.925781 C 99.375 48.824219 100.273438 49.949219 101.023438 51.074219 C 101.851562 52.199219 102.449219 53.476562 102.976562 54.75 C 103.425781 56.023438 103.726562 57.375 103.875 58.726562 C 104.101562 60.074219 104.023438 61.5 103.875 62.851562 C 103.726562 64.199219 103.351562 65.625 102.824219 66.898438 C 102.375 68.175781 101.699219 69.375 100.949219 70.5 C 100.125 71.625 98.175781 73.574219 98.175781 73.574219 C 98.175781 73.574219 94.949219 76.574219 93.375 78 C 91.875 79.351562 89.476562 80.925781 88.949219 81.898438 C 88.726562 82.351562 88.875 82.648438 88.726562 83.023438 C 88.648438 83.324219 88.425781 83.550781 88.273438 83.851562 C 88.125 84.226562 88.125 84.523438 87.976562 84.824219 C 87.75 85.351562 87.148438 85.949219 86.851562 86.476562 C 86.476562 87.074219 85.875 88.273438 85.875 88.273438 C 85.875 88.273438 83.925781 91.949219 81.976562 93.976562 C 78.675781 97.273438 71.101562 103.351562 66.375 104.925781 C 63 106.050781 58.273438 104.851562 56.925781 105.148438 C 56.550781 105.300781 56.25 105.523438 56.175781 105.523438 C 56.175781 105.523438 56.699219 105.300781 56.699219 105.148438 C 56.550781 104.851562 50.851562 106.875 48.148438 105.449219 C 43.800781 103.199219 36.148438 87.148438 36.148438 87.148438 " clip-rule="nonzero"/></clipPath><clipPath id="7b47497ae3"><path d="M 26.746094 54.722656 L 111.402344 54.722656 L 111.402344 242 L 26.746094 242 Z M 26.746094 54.722656 " clip-rule="nonzero"/></clipPath><clipPath id="5f1fe8bc3f"><path d="M 107.175781 82.949219 C 75.375 127.800781 71.925781 141.074219 69.523438 150.449219 C 67.875 156.976562 67.273438 161.625 66.675781 167.324219 C 66 173.25 65.773438 178.351562 65.851562 185.324219 C 66 195.148438 68.324219 213.523438 68.25 220.5 C 68.25 223.5 68.25 224.851562 67.726562 226.875 C 67.199219 228.898438 66.300781 231 65.175781 232.726562 C 64.050781 234.523438 62.550781 236.175781 60.898438 237.523438 C 59.25 238.800781 57.300781 239.925781 55.351562 240.601562 C 53.324219 241.351562 51.148438 241.800781 49.050781 241.800781 C 46.949219 241.875 44.699219 241.574219 42.675781 240.976562 C 40.648438 240.300781 38.699219 239.324219 36.976562 238.050781 C 35.25 236.851562 33.675781 235.273438 32.476562 233.550781 C 31.273438 231.824219 30.226562 229.800781 29.625 227.773438 C 29.023438 225.75 28.726562 223.574219 28.800781 221.476562 C 28.875 219.375 29.324219 217.125 30 215.175781 C 30.75 213.226562 31.875 211.273438 33.226562 209.625 C 34.5 207.976562 36.226562 206.476562 37.949219 205.351562 C 39.75 204.226562 41.773438 203.324219 43.875 202.875 C 45.898438 202.351562 48.148438 202.199219 50.25 202.351562 C 52.351562 202.574219 54.523438 203.101562 56.398438 203.925781 C 58.351562 204.75 60.226562 205.949219 61.800781 207.375 C 63.375 208.800781 64.800781 210.523438 65.773438 212.398438 C 66.824219 214.199219 67.574219 216.300781 67.949219 218.398438 C 68.398438 220.5 68.398438 222.675781 68.101562 224.773438 C 67.875 226.875 67.199219 229.050781 66.226562 230.925781 C 65.324219 232.800781 63.976562 234.601562 62.476562 236.101562 C 60.976562 237.601562 59.175781 238.875 57.300781 239.773438 C 55.425781 240.75 53.25 241.351562 51.148438 241.648438 C 49.050781 241.949219 46.800781 241.875 44.773438 241.425781 C 42.675781 241.050781 40.574219 240.300781 38.773438 239.25 C 36.976562 238.199219 35.175781 236.773438 33.824219 235.199219 C 32.398438 233.625 31.199219 231.75 30.375 229.800781 C 29.550781 227.851562 29.324219 226.425781 28.875 223.574219 C 27.898438 217.5 27.074219 202.875 26.925781 194.398438 C 26.773438 187.875 27 182.773438 27.375 177 C 27.75 171.226562 28.199219 165.449219 29.023438 159.675781 C 29.925781 153.824219 31.125 147.824219 32.550781 142.125 C 33.976562 136.574219 35.101562 132.148438 37.5 125.925781 C 41.023438 117 46.199219 104.625 53.101562 94.125 C 61.050781 81.976562 78.449219 62.625 83.925781 58.125 C 85.5 56.773438 86.023438 56.625 87.523438 56.101562 C 89.625 55.351562 93.375 54.824219 95.625 54.898438 C 97.199219 54.898438 98.175781 55.125 99.675781 55.726562 C 101.699219 56.625 104.925781 58.648438 106.5 60.226562 C 107.699219 61.273438 108.300781 62.101562 108.976562 63.523438 C 109.949219 65.550781 111.074219 68.773438 111.148438 71.476562 C 111.226562 74.101562 110.25 77.398438 109.425781 79.5 C 108.824219 80.925781 107.175781 82.949219 107.175781 82.949219 " clip-rule="nonzero"/></clipPath><clipPath id="a1ef5b27c5"><path d="M 5.652344 146 L 42.464844 146 L 42.464844 229.492188 L 5.652344 229.492188 Z M 5.652344 146 " clip-rule="nonzero"/></clipPath><clipPath id="9cf971643d"><path d="M 41.550781 163.125 C 42.226562 214.050781 42.074219 215.101562 41.476562 216.976562 C 40.800781 218.773438 39.898438 220.648438 38.699219 222.148438 C 37.5 223.726562 36 225.148438 34.425781 226.199219 C 32.851562 227.324219 30.976562 228.148438 29.101562 228.675781 C 27.226562 229.199219 25.125 229.425781 23.25 229.351562 C 21.300781 229.199219 19.273438 228.75 17.476562 228.074219 C 15.675781 227.324219 13.875 226.273438 12.449219 225 C 10.949219 223.726562 9.601562 222.148438 8.625 220.5 C 7.648438 218.851562 6.898438 216.976562 6.449219 215.023438 C 6 213.148438 5.925781 211.125 6.148438 209.175781 C 6.375 207.226562 6.898438 205.273438 7.726562 203.476562 C 8.550781 201.75 9.675781 200.023438 11.023438 198.675781 C 12.375 197.25 13.949219 195.976562 15.675781 195.074219 C 17.398438 194.175781 19.351562 193.5 21.300781 193.199219 C 23.175781 192.898438 25.273438 192.898438 27.148438 193.199219 C 29.101562 193.5 31.050781 194.175781 32.699219 195.074219 C 34.425781 195.976562 36.074219 197.25 37.425781 198.675781 C 38.773438 200.023438 39.898438 201.75 40.726562 203.550781 C 41.550781 205.273438 42.074219 207.226562 42.300781 209.175781 C 42.523438 211.125 42.375 213.148438 42 215.101562 C 41.550781 216.976562 40.800781 218.851562 39.824219 220.5 C 38.773438 222.226562 37.425781 223.800781 36 225 C 34.5 226.273438 32.773438 227.324219 30.976562 228.074219 C 29.175781 228.75 27.148438 229.199219 25.199219 229.351562 C 23.25 229.425781 21.226562 229.199219 19.351562 228.675781 C 17.476562 228.148438 15.601562 227.324219 14.023438 226.199219 C 12.375 225.148438 10.875 223.726562 9.75 222.148438 C 8.550781 220.648438 7.574219 218.773438 6.976562 216.976562 C 6.375 215.101562 6.226562 214.050781 6 211.125 C 5.476562 202.875 6.074219 172.351562 7.273438 163.125 C 7.800781 159.300781 8.324219 157.199219 9.226562 155.175781 C 9.898438 153.75 10.726562 152.773438 11.625 151.800781 C 12.523438 150.75 13.351562 149.851562 14.699219 149.023438 C 16.574219 147.898438 19.726562 146.398438 22.351562 146.101562 C 24.976562 145.800781 28.351562 146.476562 30.523438 147.074219 C 32.023438 147.601562 32.925781 148.050781 34.199219 149.023438 C 35.925781 150.375 38.398438 152.851562 39.601562 155.175781 C 40.875 157.5 41.550781 163.125 41.550781 163.125 " clip-rule="nonzero"/></clipPath><clipPath id="65d8d57c78"><path d="M 34.089844 218.066406 L 118.886719 218.066406 L 118.886719 334.878906 L 34.089844 334.878906 Z M 34.089844 218.066406 " clip-rule="nonzero"/></clipPath><clipPath id="75b277d601"><path d="M 67.5 230.023438 C 71.625 239.324219 77.699219 244.5 81.148438 249.226562 C 84.523438 253.875 86.023438 258.300781 90 263.699219 C 95.925781 271.648438 110.476562 282.449219 114.898438 291.300781 C 117.976562 297.675781 119.398438 304.050781 118.351562 309.898438 C 117.226562 315.824219 112.726562 322.351562 108.300781 326.550781 C 103.949219 330.523438 97.726562 334.125 92.101562 334.574219 C 86.476562 335.101562 80.625 332.925781 74.625 329.550781 C 66.074219 324.898438 49.5 309.074219 47.925781 305.699219 C 47.550781 304.949219 48.148438 304.648438 47.851562 304.125 C 47.25 303.074219 44.101562 302.023438 42.601562 300.523438 C 41.023438 299.101562 39.675781 297.300781 38.699219 295.5 C 37.726562 293.625 37.050781 291.523438 36.675781 289.425781 C 36.375 287.324219 36.375 285.148438 36.75 283.050781 C 37.050781 280.949219 37.800781 278.851562 38.773438 276.976562 C 39.75 275.175781 41.101562 273.375 42.601562 271.949219 C 44.175781 270.523438 46.050781 269.25 47.925781 268.351562 C 49.800781 267.523438 51.976562 266.925781 54.074219 266.699219 C 56.175781 266.476562 58.351562 266.550781 60.449219 267 C 62.476562 267.449219 64.574219 268.351562 66.375 269.398438 C 68.175781 270.523438 69.824219 271.949219 71.175781 273.523438 C 72.523438 275.175781 73.726562 277.050781 74.476562 279 C 75.226562 280.949219 75.75 283.125 75.824219 285.226562 C 75.976562 287.324219 75.675781 289.574219 75.148438 291.601562 C 74.550781 293.625 73.648438 295.648438 72.449219 297.375 C 71.25 299.101562 69.75 300.75 68.023438 301.949219 C 66.375 303.226562 64.425781 304.273438 62.398438 304.949219 C 60.449219 305.625 58.199219 306 56.101562 306 C 54 306 51.824219 305.625 49.800781 304.949219 C 47.851562 304.273438 45.898438 303.226562 44.175781 301.949219 C 42.523438 300.675781 41.023438 299.023438 39.824219 297.300781 C 38.625 295.574219 37.726562 293.550781 37.125 291.523438 C 36.601562 289.5 36.375 287.25 36.449219 285.148438 C 36.601562 283.050781 37.050781 280.875 37.875 278.925781 C 38.625 276.976562 39.824219 275.101562 41.175781 273.449219 C 42.523438 271.875 44.25 270.449219 46.050781 269.324219 C 47.851562 268.273438 49.949219 267.449219 51.976562 267 C 54 266.550781 56.25 266.476562 58.351562 266.699219 C 60.449219 266.925781 61.875 267.074219 64.5 268.425781 C 70.199219 271.273438 83.625 281.324219 89.550781 288 C 94.050781 292.949219 100.425781 300.148438 98.925781 303.074219 C 97.273438 306.375 76.800781 306.75 76.125 304.875 C 75.449219 303.074219 91.875 293.023438 91.875 293.023438 C 91.875 293.023438 81.675781 304.5 77.175781 304.125 C 72.675781 303.75 69.449219 297 64.875 291.074219 C 57 280.875 41.023438 256.050781 36.824219 246.375 C 34.949219 242.101562 34.5 239.175781 34.273438 236.625 C 34.050781 234.976562 34.050781 234.074219 34.425781 232.5 C 34.949219 230.324219 36.074219 227.101562 37.648438 225 C 39.300781 222.898438 41.625 221.023438 44.023438 219.898438 C 46.425781 218.773438 49.425781 218.175781 52.050781 218.25 C 54.675781 218.398438 57.898438 219.601562 59.851562 220.574219 C 61.273438 221.324219 62.101562 221.925781 63.148438 223.050781 C 64.648438 224.699219 67.5 230.023438 67.5 230.023438 " clip-rule="nonzero"/></clipPath><clipPath id="84e9c3ebe0"><path d="M 94.296875 294 L 230.101562 294 L 230.101562 372.457031 L 94.296875 372.457031 Z M 94.296875 294 " clip-rule="nonzero"/></clipPath><clipPath id="8842be993c"><path d="M 94.351562 311.625 C 95.101562 306.148438 95.550781 304.875 96.148438 303.675781 C 96.75 302.398438 97.5 301.273438 98.398438 300.226562 C 99.300781 299.175781 100.351562 298.199219 101.398438 297.449219 C 102.523438 296.625 103.726562 295.949219 105 295.425781 C 106.273438 294.898438 107.625 294.601562 108.976562 294.375 C 110.324219 294.148438 111.75 294.148438 113.101562 294.300781 C 114.449219 294.449219 117.074219 295.199219 117.074219 295.199219 C 117.074219 295.199219 119.699219 295.949219 121.648438 296.699219 C 125.398438 298.050781 132.300781 301.351562 137.773438 303.300781 C 143.25 305.175781 150.074219 306.375 154.5 308.175781 C 157.648438 309.375 161.25 312.148438 162.148438 312 C 162.375 312 162.375 311.773438 162.523438 311.625 C 162.75 311.476562 163.199219 311.324219 163.5 311.175781 C 163.800781 310.949219 163.949219 310.726562 164.324219 310.5 C 164.851562 310.199219 165.75 310.050781 166.351562 309.75 C 167.023438 309.523438 167.773438 309 168.300781 308.851562 C 168.75 308.699219 169.050781 308.773438 169.425781 308.699219 C 169.726562 308.625 170.023438 308.398438 170.398438 308.324219 C 171 308.25 171.824219 308.324219 172.574219 308.25 C 173.25 308.25 174 308.023438 174.675781 308.023438 C 175.273438 308.023438 176.023438 308.175781 176.398438 308.175781 C 176.625 308.25 176.699219 308.175781 176.851562 308.175781 C 176.925781 308.25 177 308.25 177.148438 308.324219 C 177.75 308.398438 180 308.625 182.175781 308.851562 C 186.148438 309.375 193.425781 310.351562 199.125 310.949219 C 204.824219 311.625 211.5 309.75 216.226562 312.75 C 221.699219 316.351562 226.425781 326.550781 228.523438 333.601562 C 230.324219 339.898438 230.476562 346.949219 229.050781 352.800781 C 227.699219 358.5 224.851562 365.101562 220.5 368.324219 C 216.074219 371.550781 208.648438 371.550781 202.800781 372 C 197.023438 372.449219 191.175781 371.699219 185.476562 371.023438 C 179.699219 370.425781 173.925781 369.226562 168.148438 368.324219 C 162.523438 367.351562 155.476562 368.773438 151.425781 365.324219 C 146.550781 361.199219 148.199219 347.25 143.476562 342.523438 C 139.351562 338.476562 131.925781 339.074219 126.375 336.75 C 120.824219 334.5 113.925781 330.601562 110.175781 329.023438 C 108.226562 328.199219 107.101562 327.898438 105.675781 327.300781 C 104.398438 326.699219 103.125 326.175781 102 325.425781 C 100.875 324.675781 99.824219 323.773438 98.851562 322.800781 C 97.949219 321.824219 97.125 320.625 96.449219 319.5 C 95.851562 318.300781 95.324219 316.949219 94.949219 315.675781 C 94.574219 314.324219 94.351562 311.625 94.351562 311.625 " clip-rule="nonzero"/></clipPath><clipPath id="6ee7774b29"><path d="M 186.15625 202.5625 L 346.984375 202.5625 L 346.984375 346.492188 L 186.15625 346.492188 Z M 186.15625 202.5625 " clip-rule="nonzero"/></clipPath><clipPath id="8ea2a7937d"><path d="M 203.851562 311.550781 C 216.675781 310.875 223.199219 309.226562 228.449219 307.425781 C 233.851562 305.550781 239.023438 303.148438 244.125 300.375 C 249.226562 297.601562 254.398438 294.449219 259.050781 290.773438 C 263.773438 287.175781 268.125 282.898438 272.101562 278.550781 C 276.074219 274.273438 278.851562 270.449219 282.976562 264.976562 C 288.898438 257.25 300.148438 244.875 303.824219 236.101562 C 306.375 229.875 305.398438 222.75 306.675781 218.699219 C 307.351562 216.449219 307.949219 215.324219 308.925781 213.675781 C 309.976562 211.949219 311.175781 209.925781 312.675781 208.425781 C 314.175781 206.925781 315.976562 205.648438 317.851562 204.675781 C 319.726562 203.699219 321.898438 203.101562 324 202.800781 C 326.101562 202.5 328.351562 202.5 330.449219 202.949219 C 332.476562 203.324219 334.648438 204.074219 336.449219 205.125 C 338.324219 206.175781 340.050781 207.523438 341.476562 209.101562 C 342.898438 210.675781 344.175781 212.550781 345 214.5 C 345.824219 216.449219 346.425781 218.625 346.574219 220.726562 C 346.726562 222.824219 346.574219 225.074219 346.050781 227.175781 C 345.601562 229.199219 344.699219 231.300781 343.574219 233.101562 C 342.449219 234.824219 340.949219 236.550781 339.300781 237.898438 C 337.648438 239.175781 335.699219 240.300781 333.675781 241.050781 C 331.726562 241.800781 329.476562 242.25 327.375 242.324219 C 325.273438 242.398438 323.023438 242.101562 321 241.5 C 318.976562 240.824219 316.949219 239.851562 315.226562 238.648438 C 313.5 237.375 311.925781 235.800781 310.648438 234.074219 C 309.449219 232.425781 308.398438 230.398438 307.800781 228.375 C 307.199219 226.351562 306.824219 224.101562 306.898438 222 C 306.976562 219.898438 307.351562 217.648438 308.101562 215.699219 C 308.851562 213.675781 309.898438 211.726562 311.25 210.074219 C 312.523438 208.425781 314.25 206.925781 315.976562 205.726562 C 317.773438 204.601562 319.875 203.699219 321.898438 203.175781 C 323.925781 202.648438 326.175781 202.5 328.273438 202.648438 C 330.375 202.800781 332.625 203.324219 334.574219 204.148438 C 336.523438 204.976562 338.398438 206.175781 339.976562 207.601562 C 341.550781 209.023438 342.976562 210.75 344.023438 212.625 C 345.074219 214.425781 345.898438 216.523438 346.273438 218.625 C 346.648438 220.726562 346.875 222.375 346.5 225.074219 C 345.824219 229.648438 342.601562 237.449219 340.726562 243.375 C 338.851562 248.925781 338.175781 253.800781 335.101562 259.726562 C 330.824219 268.050781 322.199219 278.476562 315.074219 287.398438 C 307.800781 296.398438 298.875 306.976562 291.75 313.351562 C 286.726562 317.851562 282.601562 320.324219 277.648438 323.476562 C 272.699219 326.699219 268.273438 329.324219 261.976562 332.398438 C 253.351562 336.523438 240.375 343.125 230.101562 345.226562 C 221.101562 347.101562 210 346.5 203.851562 345.824219 C 200.398438 345.375 197.925781 344.773438 195.898438 343.800781 C 194.398438 343.199219 193.574219 342.601562 192.449219 341.476562 C 190.875 339.898438 188.773438 337.199219 187.800781 334.726562 C 186.898438 332.25 186.523438 329.25 186.824219 326.625 C 187.125 324 188.550781 320.851562 189.75 318.976562 C 190.574219 317.625 191.25 316.875 192.449219 315.898438 C 194.25 314.476562 197.625 312.75 199.726562 312.074219 C 201.226562 311.625 203.851562 311.550781 203.851562 311.550781 " clip-rule="nonzero"/></clipPath><clipPath id="c90a6b01b3"><path d="M 251.742188 56 L 352 56 L 352 239.402344 L 251.742188 239.402344 Z M 251.742188 56 " clip-rule="nonzero"/></clipPath><clipPath id="cf67b3f2ea"><path d="M 309.824219 221.324219 C 310.800781 203.851562 314.699219 186.449219 314.773438 176.773438 C 314.851562 170.023438 314.25 165.148438 312.898438 159.601562 C 311.550781 153.976562 309.226562 148.5 306.824219 143.324219 C 304.5 138.148438 301.875 133.273438 298.726562 128.398438 C 295.425781 123.300781 290.851562 118.5 287.476562 113.398438 C 284.25 108.449219 282.675781 101.398438 278.699219 98.398438 C 275.324219 95.773438 269.699219 96.226562 266.398438 95.023438 C 264 94.199219 262.273438 93.523438 260.550781 92.324219 C 258.824219 91.125 257.175781 89.550781 255.898438 87.898438 C 254.625 86.175781 253.574219 84.226562 252.898438 82.199219 C 252.226562 80.175781 251.851562 78 251.851562 75.898438 C 251.851562 73.726562 252.226562 71.550781 252.898438 69.523438 C 253.574219 67.5 254.699219 65.550781 255.976562 63.898438 C 257.25 62.175781 258.898438 60.675781 260.625 59.476562 C 262.351562 58.273438 264.449219 57.300781 266.476562 56.773438 C 268.5 56.25 270.75 55.949219 272.851562 56.101562 C 274.949219 56.175781 277.125 56.699219 279.148438 57.523438 C 281.101562 58.273438 282.976562 59.476562 284.625 60.824219 C 286.199219 62.175781 287.699219 63.898438 288.75 65.699219 C 289.875 67.5 290.699219 69.601562 291.148438 71.699219 C 291.601562 73.726562 291.675781 75.976562 291.449219 78.074219 C 291.226562 80.175781 290.625 82.351562 289.726562 84.300781 C 288.824219 86.175781 287.550781 88.050781 286.125 89.625 C 284.625 91.125 282.824219 92.476562 280.949219 93.449219 C 279.148438 94.425781 276.976562 95.175781 274.875 95.550781 C 272.773438 95.851562 270.523438 95.851562 268.5 95.476562 C 266.398438 95.175781 264.226562 94.425781 262.425781 93.449219 C 260.550781 92.476562 258.75 91.050781 257.25 89.550781 C 255.824219 87.976562 254.550781 86.101562 253.726562 84.226562 C 252.824219 82.273438 252.226562 80.101562 252 78 C 251.773438 75.898438 251.925781 73.648438 252.375 71.625 C 252.824219 69.523438 253.648438 67.425781 254.773438 65.625 C 255.824219 63.824219 257.324219 62.101562 258.898438 60.75 C 260.550781 59.398438 262.425781 58.199219 264.449219 57.449219 C 266.398438 56.699219 268.050781 56.175781 270.675781 56.101562 C 275.175781 55.875 283.5 56.398438 289.050781 58.351562 C 294.449219 60.226562 299.398438 63.523438 303.601562 67.351562 C 308.023438 71.398438 311.550781 77.25 314.851562 82.273438 C 318 87.148438 320.175781 92.324219 323.175781 97.050781 C 326.25 101.851562 330.226562 106.125 333.148438 111 C 336 115.875 338.324219 120.898438 340.648438 126.226562 C 343.050781 131.625 345.300781 137.398438 347.101562 143.175781 C 348.976562 148.949219 350.925781 154.800781 351.601562 160.875 C 352.273438 166.875 351.75 172.273438 351 179.398438 C 350.023438 189.074219 345.976562 204.675781 344.773438 213.449219 C 343.949219 219 344.25 223.949219 343.5 227.023438 C 343.050781 228.75 342.75 229.5 341.851562 230.851562 C 340.574219 232.726562 338.324219 235.351562 336.074219 236.699219 C 333.824219 238.125 330.449219 238.949219 328.273438 239.25 C 326.699219 239.476562 325.5 239.324219 324.148438 239.101562 C 322.726562 238.875 321.523438 238.648438 320.175781 237.898438 C 318.148438 236.925781 315.074219 234.601562 313.574219 232.875 C 312.523438 231.75 312 230.851562 311.398438 229.425781 C 310.574219 227.324219 309.824219 221.324219 309.824219 221.324219 " clip-rule="nonzero"/></clipPath><clipPath id="a3f9351d5f"><path d="M 87.25 22.386719 L 294.753906 22.386719 L 294.753906 90.5 L 87.25 90.5 Z M 87.25 22.386719 " clip-rule="nonzero"/></clipPath><clipPath id="861f38a978"><path d="M 271.425781 89.398438 C 225.675781 69.675781 221.324219 68.023438 215.550781 66.449219 C 209.625 64.800781 203.101562 63.675781 197.101562 62.851562 C 191.324219 62.101562 185.851562 61.875 180.226562 61.648438 C 174.523438 61.425781 168.75 60.976562 162.976562 61.648438 C 156.976562 62.398438 150.300781 63.75 144.75 66.148438 C 139.273438 68.476562 134.550781 72.300781 129.75 75.675781 C 124.875 79.125 119.550781 84.601562 115.648438 86.625 C 113.25 87.75 111.523438 88.125 109.425781 88.351562 C 107.324219 88.574219 105.074219 88.425781 102.976562 87.976562 C 100.875 87.523438 98.773438 86.625 96.976562 85.574219 C 95.175781 84.449219 93.449219 82.949219 92.023438 81.375 C 90.675781 79.726562 89.476562 77.773438 88.726562 75.824219 C 87.898438 73.875 87.449219 71.625 87.375 69.523438 C 87.226562 67.351562 87.449219 65.101562 88.050781 63.074219 C 88.648438 61.050781 89.550781 58.949219 90.75 57.226562 C 91.949219 55.5 93.523438 53.851562 95.25 52.574219 C 96.898438 51.226562 98.925781 50.175781 100.949219 49.5 C 102.976562 48.824219 105.226562 48.449219 107.324219 48.449219 C 109.425781 48.523438 111.675781 48.824219 113.699219 49.574219 C 115.726562 50.25 117.675781 51.300781 119.398438 52.574219 C 121.125 53.851562 122.625 55.5 123.824219 57.300781 C 125.023438 59.023438 126 61.125 126.523438 63.148438 C 127.125 65.175781 127.351562 67.425781 127.199219 69.601562 C 127.125 71.699219 126.601562 73.875 125.851562 75.898438 C 125.023438 77.851562 123.898438 79.800781 122.476562 81.449219 C 121.125 83.023438 119.398438 84.523438 117.523438 85.574219 C 115.726562 86.699219 113.625 87.523438 111.523438 87.976562 C 109.5 88.425781 107.175781 88.574219 105.074219 88.273438 C 102.976562 88.050781 100.800781 87.449219 98.851562 86.550781 C 96.976562 85.648438 95.101562 84.375 93.523438 82.949219 C 91.949219 81.449219 90.601562 79.648438 89.625 77.773438 C 88.648438 75.898438 87.898438 73.726562 87.601562 71.625 C 87.226562 69.523438 87.226562 67.273438 87.601562 65.175781 C 87.898438 63.074219 88.648438 60.976562 89.625 59.101562 C 90.675781 57.226562 91.425781 56.023438 93.601562 53.925781 C 98.851562 48.824219 115.800781 36.148438 124.949219 31.574219 C 131.023438 28.574219 135.824219 27.824219 141.449219 26.398438 C 147.148438 24.976562 153.148438 23.476562 159 22.875 C 164.773438 22.273438 169.5 22.425781 176.324219 22.800781 C 185.925781 23.25 201.824219 24.375 211.199219 26.25 C 217.648438 27.601562 221.101562 29.023438 227.324219 31.273438 C 236.324219 34.425781 250.875 39.675781 259.800781 44.175781 C 266.625 47.550781 271.875 51.976562 276.898438 54.601562 C 280.648438 56.550781 284.699219 57.523438 287.023438 59.023438 C 288.449219 59.925781 289.199219 60.523438 290.175781 61.726562 C 291.523438 63.449219 293.398438 66.824219 294.074219 69 C 294.523438 70.5 294.675781 71.476562 294.601562 73.125 C 294.449219 75.300781 293.925781 78.75 292.726562 81.074219 C 291.449219 83.476562 289.050781 85.875 287.324219 87.300781 C 286.050781 88.273438 284.925781 88.726562 283.648438 89.25 C 282.375 89.773438 281.175781 90.148438 279.601562 90.300781 C 277.425781 90.449219 271.425781 89.398438 271.425781 89.398438 " clip-rule="nonzero"/></clipPath><clipPath id="d943de1de2"><path d="M 147 3.25 L 227.902344 3.25 L 227.902344 40.777344 L 147 40.777344 Z M 147 3.25 " clip-rule="nonzero"/></clipPath><clipPath id="4d60efc165"><path d="M 164.101562 5.25 C 196.875 3.226562 203.550781 3.074219 207.898438 3.523438 C 210.449219 3.824219 212.101562 4.273438 214.050781 4.875 C 215.925781 5.476562 217.800781 6.148438 219.449219 7.199219 C 221.023438 8.25 222.601562 9.601562 223.800781 11.101562 C 225 12.601562 226.050781 14.398438 226.726562 16.199219 C 227.398438 18 227.773438 20.023438 227.851562 21.976562 C 227.925781 23.925781 227.625 25.949219 227.101562 27.75 C 226.5 29.625 225.601562 31.5 224.476562 33.074219 C 223.351562 34.648438 221.925781 36.074219 220.351562 37.199219 C 218.773438 38.324219 216.898438 39.300781 215.101562 39.824219 C 213.226562 40.425781 211.199219 40.726562 209.25 40.648438 C 207.300781 40.574219 205.273438 40.199219 203.476562 39.523438 C 201.675781 38.925781 199.875 37.875 198.375 36.675781 C 196.875 35.476562 195.449219 33.976562 194.476562 32.324219 C 193.425781 30.675781 192.601562 28.800781 192.074219 26.925781 C 191.625 25.050781 191.476562 23.023438 191.625 21.074219 C 191.773438 19.125 192.226562 17.175781 192.976562 15.375 C 193.800781 13.574219 194.851562 11.851562 196.125 10.425781 C 197.476562 9 199.050781 7.726562 200.699219 6.75 C 202.425781 5.773438 204.300781 5.101562 206.25 4.726562 C 208.125 4.351562 210.148438 4.273438 212.101562 4.5 C 214.050781 4.800781 216 5.398438 217.726562 6.226562 C 219.449219 7.050781 221.101562 8.25 222.523438 9.675781 C 223.875 11.023438 225.074219 12.675781 225.898438 14.398438 C 226.800781 16.125 227.398438 18.074219 227.699219 20.023438 C 227.925781 21.898438 227.925781 24 227.550781 25.875 C 227.175781 27.75 226.5 29.699219 225.523438 31.425781 C 224.550781 33.074219 223.273438 34.726562 221.851562 36 C 220.425781 37.273438 218.699219 38.398438 216.898438 39.148438 C 215.175781 39.898438 213.75 40.425781 211.199219 40.574219 C 206.550781 40.949219 198.074219 39.074219 190.800781 38.851562 C 182.550781 38.625 170.625 40.199219 164.398438 39.523438 C 160.875 39.148438 158.773438 38.851562 156.375 37.648438 C 154.050781 36.449219 151.726562 34.425781 150.226562 32.25 C 148.648438 30.074219 147.675781 26.773438 147.226562 24.601562 C 146.925781 23.023438 146.925781 22.050781 147.226562 20.476562 C 147.601562 18.226562 148.875 14.699219 150 12.75 C 150.824219 11.398438 151.5 10.648438 152.773438 9.675781 C 154.5 8.25 157.875 6.449219 159.976562 5.773438 C 161.476562 5.25 164.101562 5.25 164.101562 5.25 " clip-rule="nonzero"/></clipPath><clipPath id="7d0f574554"><path d="M 267.769531 38.34375 L 338.898438 38.34375 L 338.898438 106 L 267.769531 106 Z M 267.769531 38.34375 " clip-rule="nonzero"/></clipPath><clipPath id="bc358aafd2"><path d="M 292.875 40.5 C 301.800781 45.449219 307.648438 49.726562 311.851562 53.550781 C 316.050781 57.375 319.5 62.175781 323.550781 66.226562 C 327.523438 70.199219 333.601562 74.398438 335.925781 77.773438 C 337.351562 79.800781 337.800781 81.300781 338.25 83.25 C 338.699219 85.125 338.925781 87.148438 338.699219 89.101562 C 338.550781 91.050781 338.101562 93.074219 337.273438 94.800781 C 336.523438 96.601562 335.398438 98.324219 334.125 99.824219 C 332.851562 101.25 331.199219 102.523438 329.550781 103.5 C 327.824219 104.476562 325.875 105.148438 324 105.523438 C 322.050781 105.898438 320.023438 105.898438 318.074219 105.675781 C 316.125 105.375 314.175781 104.773438 312.449219 103.949219 C 310.726562 103.050781 309 101.851562 307.648438 100.5 C 306.300781 99.074219 305.101562 97.425781 304.199219 95.699219 C 303.375 93.976562 302.773438 91.949219 302.476562 90.074219 C 302.25 88.125 302.25 86.023438 302.625 84.148438 C 303 82.199219 303.75 80.324219 304.726562 78.601562 C 305.625 76.949219 306.976562 75.300781 308.398438 74.023438 C 309.824219 72.75 311.550781 71.625 313.351562 70.875 C 315.148438 70.050781 317.175781 69.601562 319.125 69.449219 C 321 69.300781 323.101562 69.449219 324.976562 69.898438 C 326.851562 70.351562 328.800781 71.175781 330.375 72.226562 C 332.023438 73.273438 333.601562 74.699219 334.800781 76.199219 C 336 77.699219 337.050781 79.5 337.648438 81.300781 C 338.324219 83.175781 338.773438 85.199219 338.773438 87.148438 C 338.851562 89.101562 338.550781 91.125 337.949219 93 C 337.425781 94.800781 336.523438 96.675781 335.324219 98.25 C 334.199219 99.824219 332.773438 101.324219 331.199219 102.449219 C 329.625 103.574219 327.75 104.476562 325.875 105.074219 C 324 105.601562 321.976562 105.898438 320.023438 105.824219 C 318.074219 105.75 316.273438 105.523438 314.25 104.699219 C 311.550781 103.574219 309 101.851562 305.625 98.925781 C 299.476562 93.675781 288.300781 78.675781 282.074219 73.574219 C 278.699219 70.800781 275.476562 69.976562 273.449219 68.324219 C 272.175781 67.199219 271.574219 66.523438 270.75 65.175781 C 269.625 63.300781 268.199219 60.148438 267.898438 57.523438 C 267.601562 54.898438 267.976562 51.898438 268.875 49.425781 C 269.851562 46.949219 271.574219 44.476562 273.601562 42.75 C 275.550781 40.949219 278.699219 39.601562 280.800781 38.925781 C 282.375 38.476562 283.351562 38.398438 284.925781 38.476562 C 287.175781 38.625 292.875 40.5 292.875 40.5 " clip-rule="nonzero"/></clipPath><clipPath id="ed5ed870c0"><path d="M 332.910156 147 L 369.75 147 L 369.75 228 L 332.910156 228 Z M 332.910156 147 " clip-rule="nonzero"/></clipPath><clipPath id="d5a2d21f06"><path d="M 368.851562 164.398438 C 369.148438 207.449219 369.75 208.5 369.675781 210.449219 C 369.601562 212.324219 369.148438 214.351562 368.476562 216.148438 C 367.800781 217.949219 366.75 219.75 365.550781 221.25 C 364.273438 222.75 362.699219 224.101562 361.050781 225.074219 C 359.398438 226.125 357.523438 226.875 355.648438 227.324219 C 353.773438 227.773438 351.675781 227.925781 349.800781 227.699219 C 347.851562 227.550781 345.898438 227.023438 344.101562 226.199219 C 342.375 225.449219 340.648438 224.324219 339.226562 222.976562 C 337.800781 221.699219 336.523438 220.050781 335.625 218.324219 C 334.648438 216.675781 333.976562 214.726562 333.675781 212.773438 C 333.300781 210.898438 333.300781 208.800781 333.601562 206.925781 C 333.898438 204.976562 334.5 203.023438 335.398438 201.300781 C 336.300781 199.648438 337.5 197.925781 338.925781 196.648438 C 340.273438 195.300781 342 194.101562 343.726562 193.273438 C 345.449219 192.449219 347.476562 191.851562 349.351562 191.625 C 351.300781 191.398438 353.324219 191.476562 355.273438 191.851562 C 357.148438 192.300781 359.023438 192.976562 360.75 193.949219 C 362.398438 195 363.976562 196.273438 365.25 197.773438 C 366.523438 199.199219 367.574219 200.925781 368.324219 202.726562 C 369.074219 204.523438 369.523438 206.550781 369.675781 208.5 C 369.75 210.375 369.601562 212.476562 369.074219 214.351562 C 368.625 216.148438 367.726562 218.023438 366.675781 219.675781 C 365.625 221.25 364.199219 222.824219 362.699219 223.949219 C 361.199219 225.148438 359.324219 226.125 357.523438 226.800781 C 355.726562 227.398438 353.699219 227.773438 351.75 227.851562 C 349.800781 227.851562 347.773438 227.550781 345.898438 226.949219 C 344.101562 226.351562 342.300781 225.375 340.726562 224.25 C 339.148438 223.050781 337.726562 221.625 336.601562 220.050781 C 335.550781 218.398438 334.648438 216.75 334.125 214.726562 C 333.375 212.324219 333.226562 210.300781 333.074219 206.476562 C 332.699219 197.851562 333.300781 172.351562 334.574219 163.800781 C 335.101562 160.050781 335.699219 157.875 336.675781 155.851562 C 337.351562 154.425781 337.949219 153.601562 339.074219 152.476562 C 340.648438 150.976562 343.425781 148.875 345.898438 147.976562 C 348.375 147.074219 351.824219 146.925781 354.074219 147.148438 C 355.648438 147.226562 356.625 147.523438 358.050781 148.199219 C 360.074219 149.101562 363 150.898438 364.726562 152.925781 C 366.449219 154.949219 367.800781 158.101562 368.398438 160.273438 C 368.851562 161.773438 368.851562 164.398438 368.851562 164.398438 " clip-rule="nonzero"/></clipPath><clipPath id="cb804a9681"><path d="M 268.703125 266.171875 L 335.496094 266.171875 L 335.496094 337 L 268.703125 337 Z M 268.703125 266.171875 " clip-rule="nonzero"/></clipPath><clipPath id="ca459592fd"><path d="M 330.300781 295.5 C 322.726562 303.824219 319.199219 310.125 315.75 314.699219 C 312.226562 319.351562 305.773438 328.5 304.574219 328.050781 C 303.976562 327.824219 304.875 323.925781 304.5 323.851562 C 304.125 323.773438 303.074219 327.601562 301.949219 329.175781 C 300.898438 330.75 299.398438 332.25 297.898438 333.375 C 296.324219 334.574219 294.449219 335.476562 292.648438 336.074219 C 290.773438 336.675781 288.75 336.976562 286.800781 336.976562 C 284.851562 336.976562 282.824219 336.601562 281.023438 335.925781 C 279.226562 335.324219 277.425781 334.273438 275.851562 333.148438 C 274.351562 331.949219 272.925781 330.375 271.875 328.800781 C 270.824219 327.148438 270 325.273438 269.476562 323.398438 C 268.949219 321.523438 268.800781 319.5 268.949219 317.550781 C 269.023438 315.601562 269.550781 313.648438 270.226562 311.851562 C 270.976562 310.050781 272.101562 308.324219 273.375 306.824219 C 274.648438 305.398438 276.226562 304.050781 277.875 303.074219 C 279.523438 302.101562 281.476562 301.351562 283.351562 300.976562 C 285.300781 300.601562 287.324219 300.523438 289.273438 300.75 C 291.148438 300.976562 293.175781 301.574219 294.898438 302.398438 C 296.625 303.226562 298.351562 304.425781 299.699219 305.773438 C 301.125 307.125 302.324219 308.773438 303.226562 310.5 C 304.125 312.226562 304.726562 314.175781 305.023438 316.050781 C 305.324219 318 305.324219 320.023438 304.949219 321.976562 C 304.648438 323.851562 303.898438 325.800781 303 327.523438 C 302.101562 329.175781 300.824219 330.824219 299.398438 332.175781 C 297.976562 333.449219 296.25 334.574219 294.449219 335.398438 C 292.726562 336.148438 290.699219 336.675781 288.75 336.898438 C 286.875 337.050781 284.773438 336.898438 282.898438 336.523438 C 281.023438 336.074219 279.148438 335.25 277.5 334.273438 C 275.851562 333.226562 274.273438 331.875 273.074219 330.375 C 271.800781 328.875 270.75 327.074219 270.074219 325.273438 C 269.398438 323.476562 268.949219 321.449219 268.875 319.5 C 268.800781 317.625 268.5 316.050781 269.625 313.726562 C 272.101562 308.101562 284.851562 296.699219 290.625 289.726562 C 294.824219 284.625 297.75 279.75 301.199219 276.074219 C 303.976562 273.074219 307.125 270.300781 309.449219 268.800781 C 310.800781 267.824219 311.625 267.449219 313.199219 267.074219 C 315.300781 266.550781 318.75 266.101562 321.300781 266.625 C 323.925781 267.074219 326.699219 268.351562 328.800781 269.925781 C 330.824219 271.574219 332.699219 273.976562 333.824219 276.375 C 334.875 278.773438 335.25 282.226562 335.25 284.398438 C 335.25 285.976562 335.101562 287.023438 334.574219 288.449219 C 333.75 290.550781 330.300781 295.5 330.300781 295.5 " clip-rule="nonzero"/></clipPath></defs><path fill="#002190" d="M 234.71875 25.410156 L 234.71875 13.484375 C 234.71875 6.035156 228.683594 0 221.234375 0 L 153.761719 0 C 146.3125 0 140.277344 6.035156 140.277344 13.484375 L 140.277344 25.410156 C 128.351562 28.882812 116.972656 33.632812 106.292969 39.511719 C 106.292969 39.511719 97.839844 31.058594 97.839844 31.058594 C 95.3125 28.527344 91.882812 27.113281 88.304688 27.113281 C 84.734375 27.113281 81.296875 28.527344 78.773438 31.058594 L 31.058594 78.773438 C 28.527344 81.296875 27.113281 84.734375 27.113281 88.304688 C 27.113281 91.882812 28.527344 95.3125 31.058594 97.839844 C 31.058594 97.839844 39.511719 106.292969 39.511719 106.292969 C 33.632812 116.972656 28.882812 128.351562 25.410156 140.277344 L 13.484375 140.277344 C 6.035156 140.277344 0 146.3125 0 153.761719 L 0 221.234375 C 0 228.683594 6.035156 234.71875 13.484375 234.71875 L 25.410156 234.71875 C 28.882812 246.644531 33.632812 258.023438 39.511719 268.703125 C 39.511719 268.703125 31.058594 277.15625 31.058594 277.15625 C 28.527344 279.683594 27.113281 283.113281 27.113281 286.691406 C 27.113281 290.261719 28.527344 293.699219 31.058594 296.222656 L 78.773438 343.9375 C 81.296875 346.46875 84.734375 347.882812 88.304688 347.882812 C 91.882812 347.882812 95.3125 346.46875 97.839844 343.9375 C 97.839844 343.9375 106.292969 335.480469 106.292969 335.480469 C 116.972656 341.363281 128.351562 346.113281 140.277344 349.585938 L 140.277344 361.511719 C 140.277344 368.960938 146.3125 374.996094 153.761719 374.996094 L 221.234375 374.996094 C 228.683594 374.996094 234.71875 368.960938 234.71875 361.511719 L 234.71875 349.585938 C 246.644531 346.113281 258.023438 341.363281 268.703125 335.480469 C 268.703125 335.480469 277.15625 343.9375 277.15625 343.9375 C 279.683594 346.46875 283.113281 347.882812 286.691406 347.882812 C 290.261719 347.882812 293.699219 346.46875 296.222656 343.9375 L 343.9375 296.222656 C 346.46875 293.699219 347.882812 290.261719 347.882812 286.691406 C 347.882812 283.113281 346.46875 279.683594 343.9375 277.15625 C 343.9375 277.15625 335.480469 268.703125 335.480469 268.703125 C 341.363281 258.023438 346.113281 246.644531 349.585938 234.71875 L 361.511719 234.71875 C 368.960938 234.71875 374.996094 228.683594 374.996094 221.234375 L 374.996094 153.761719 C 374.996094 146.3125 368.960938 140.277344 361.511719 140.277344 L 349.585938 140.277344 C 346.113281 128.351562 341.363281 116.972656 335.480469 106.292969 C 335.480469 106.292969 343.9375 97.839844 343.9375 97.839844 C 346.46875 95.3125 347.882812 91.882812 347.882812 88.304688 C 347.882812 84.734375 346.46875 81.296875 343.9375 78.773438 L 296.222656 31.058594 C 293.699219 28.527344 290.261719 27.113281 286.691406 27.113281 C 283.113281 27.113281 279.683594 28.527344 277.15625 31.058594 C 277.15625 31.058594 268.703125 39.511719 268.703125 39.511719 C 258.023438 33.632812 246.644531 28.882812 234.71875 25.410156 Z M 221.328125 30.515625 C 221.328125 33.566406 223.390625 36.234375 226.351562 37 C 240.597656 40.671875 254.058594 46.316406 266.414062 53.621094 C 269.046875 55.179688 272.402344 54.757812 274.558594 52.59375 L 286.628906 40.53125 C 286.640625 40.511719 286.664062 40.503906 286.691406 40.503906 C 286.714844 40.503906 286.734375 40.511719 286.753906 40.53125 C 286.753906 40.53125 334.464844 88.242188 334.464844 88.242188 C 334.484375 88.261719 334.492188 88.28125 334.492188 88.304688 C 334.492188 88.332031 334.484375 88.355469 334.464844 88.367188 L 322.402344 100.4375 C 320.238281 102.59375 319.816406 105.949219 321.375 108.582031 C 328.679688 120.945312 334.324219 134.398438 337.996094 148.644531 C 338.761719 151.605469 341.429688 153.667969 344.480469 153.667969 L 361.511719 153.667969 C 361.5625 153.667969 361.605469 153.710938 361.605469 153.761719 C 361.605469 153.761719 361.605469 221.234375 361.605469 221.234375 C 361.605469 221.28125 361.5625 221.328125 361.511719 221.328125 C 361.511719 221.328125 344.480469 221.328125 344.480469 221.328125 C 341.429688 221.328125 338.761719 223.390625 337.996094 226.351562 C 334.324219 240.597656 328.679688 254.058594 321.375 266.414062 C 319.816406 269.046875 320.238281 272.402344 322.402344 274.558594 L 334.464844 286.628906 C 334.484375 286.640625 334.492188 286.664062 334.492188 286.691406 C 334.492188 286.714844 334.484375 286.734375 334.464844 286.753906 C 334.464844 286.753906 286.753906 334.464844 286.753906 334.464844 C 286.734375 334.484375 286.714844 334.492188 286.691406 334.492188 C 286.664062 334.492188 286.640625 334.484375 286.628906 334.464844 L 274.558594 322.402344 C 272.402344 320.238281 269.046875 319.816406 266.414062 321.375 C 254.050781 328.679688 240.597656 334.324219 226.351562 337.996094 C 223.390625 338.761719 221.328125 341.429688 221.328125 344.480469 L 221.328125 361.511719 C 221.328125 361.5625 221.28125 361.605469 221.234375 361.605469 C 221.234375 361.605469 153.761719 361.605469 153.761719 361.605469 C 153.710938 361.605469 153.667969 361.5625 153.667969 361.511719 C 153.667969 361.511719 153.667969 344.480469 153.667969 344.480469 C 153.667969 341.429688 151.605469 338.761719 148.644531 337.996094 C 134.398438 334.324219 120.9375 328.679688 108.582031 321.375 C 105.949219 319.816406 102.59375 320.238281 100.4375 322.402344 L 88.367188 334.464844 C 88.355469 334.484375 88.332031 334.492188 88.304688 334.492188 C 88.28125 334.492188 88.261719 334.484375 88.242188 334.464844 C 88.242188 334.464844 40.53125 286.753906 40.53125 286.753906 C 40.511719 286.734375 40.503906 286.714844 40.503906 286.691406 C 40.503906 286.664062 40.511719 286.640625 40.53125 286.628906 L 52.59375 274.558594 C 54.757812 272.402344 55.179688 269.046875 53.621094 266.414062 C 46.316406 254.050781 40.671875 240.597656 37 226.351562 C 36.234375 223.390625 33.566406 221.328125 30.515625 221.328125 L 13.484375 221.328125 C 13.433594 221.328125 13.390625 221.28125 13.390625 221.234375 C 13.390625 221.234375 13.390625 153.761719 13.390625 153.761719 C 13.390625 153.710938 13.433594 153.667969 13.484375 153.667969 C 13.484375 153.667969 30.515625 153.667969 30.515625 153.667969 C 33.566406 153.667969 36.234375 151.605469 37 148.644531 C 40.671875 134.398438 46.316406 120.9375 53.621094 108.582031 C 55.179688 105.949219 54.757812 102.59375 52.59375 100.4375 L 40.53125 88.367188 C 40.511719 88.355469 40.503906 88.332031 40.503906 88.304688 C 40.503906 88.28125 40.511719 88.261719 40.53125 88.242188 C 40.53125 88.242188 88.242188 40.53125 88.242188 40.53125 C 88.261719 40.511719 88.28125 40.503906 88.304688 40.503906 C 88.332031 40.503906 88.355469 40.511719 88.367188 40.53125 L 100.4375 52.59375 C 102.59375 54.757812 105.949219 55.179688 108.582031 53.621094 C 120.945312 46.316406 134.398438 40.671875 148.644531 37 C 151.605469 36.234375 153.667969 33.566406 153.667969 30.515625 L 153.667969 13.484375 C 153.667969 13.433594 153.710938 13.390625 153.761719 13.390625 C 153.761719 13.390625 221.234375 13.390625 221.234375 13.390625 C 221.28125 13.390625 221.328125 13.433594 221.328125 13.484375 C 221.328125 13.484375 221.328125 30.515625 221.328125 30.515625 Z M 187.496094 56.109375 C 114.984375 56.109375 56.109375 114.984375 56.109375 187.496094 C 56.109375 260.011719 114.984375 318.886719 187.496094 318.886719 C 260.011719 318.886719 318.886719 260.011719 318.886719 187.496094 C 318.886719 114.984375 260.011719 56.109375 187.496094 56.109375 Z M 187.496094 69.5 C 252.625 69.5 305.492188 122.371094 305.492188 187.496094 C 305.492188 252.625 252.625 305.492188 187.496094 305.492188 C 122.371094 305.492188 69.5 252.625 69.5 187.496094 C 69.5 122.371094 122.371094 69.5 187.496094 69.5 Z M 187.496094 69.5 " fill-opacity="1" fill-rule="evenodd"/><g clip-path="url(#5bddd7fa91)"><g clip-path="url(#1ca82c6349)"><path fill="#002190" d="M 75 32.550781 L 120.035156 32.550781 L 120.035156 74.476562 L 75 74.476562 Z M 75 32.550781 " fill-opacity="1" fill-rule="nonzero"/></g></g><g clip-path="url(#1d920a7fe1)"><g clip-path="url(#021cefe612)"><path fill="#002190" d="M 33.148438 40.574219 L 107.019531 40.574219 L 107.019531 108.601562 L 33.148438 108.601562 Z M 33.148438 40.574219 " fill-opacity="1" fill-rule="nonzero"/></g></g><g clip-path="url(#7b47497ae3)"><g clip-path="url(#5f1fe8bc3f)"><path fill="#002190" d="M 23.925781 51.898438 L 114.226562 51.898438 L 114.226562 244.84375 L 23.925781 244.84375 Z M 23.925781 51.898438 " fill-opacity="1" fill-rule="nonzero"/></g></g><g clip-path="url(#a1ef5b27c5)"><g clip-path="url(#9cf971643d)"><path fill="#002190" d="M 3 143.101562 L 45.449219 143.101562 L 45.449219 232.3125 L 3 232.3125 Z M 3 143.101562 " fill-opacity="1" fill-rule="nonzero"/></g></g><g clip-path="url(#65d8d57c78)"><g clip-path="url(#75b277d601)"><path fill="#002190" d="M 31.273438 215.25 L 121.351562 215.25 L 121.351562 337.695312 L 31.273438 337.695312 Z M 31.273438 215.25 " fill-opacity="1" fill-rule="nonzero"/></g></g><g clip-path="url(#84e9c3ebe0)"><g clip-path="url(#8842be993c)"><path fill="#002190" d="M 91.351562 291.300781 L 232.066406 291.300781 L 232.066406 375.074219 L 91.351562 375.074219 Z M 91.351562 291.300781 " fill-opacity="1" fill-rule="nonzero"/></g></g><g clip-path="url(#6ee7774b29)"><g clip-path="url(#8ea2a7937d)"><path fill="#002190" d="M 183.824219 199.648438 L 349.316406 199.648438 L 349.316406 348.824219 L 183.824219 348.824219 Z M 183.824219 199.648438 " fill-opacity="1" fill-rule="nonzero"/></g></g><g clip-path="url(#c90a6b01b3)"><g clip-path="url(#cf67b3f2ea)"><path fill="#002190" d="M 248.851562 53.101562 L 354.601562 53.101562 L 354.601562 242.292969 L 248.851562 242.292969 Z M 248.851562 53.101562 " fill-opacity="1" fill-rule="nonzero"/></g></g><g clip-path="url(#a3f9351d5f)"><g clip-path="url(#861f38a978)"><path fill="#002190" d="M 84.375 19.800781 L 297.628906 19.800781 L 297.628906 93.375 L 84.375 93.375 Z M 84.375 19.800781 " fill-opacity="1" fill-rule="nonzero"/></g></g><g clip-path="url(#d943de1de2)"><g clip-path="url(#4d60efc165)"><path fill="#002190" d="M 144.226562 0.375 L 230.945312 0.375 L 230.945312 43.648438 L 144.226562 43.648438 Z M 144.226562 0.375 " fill-opacity="1" fill-rule="nonzero"/></g></g><g clip-path="url(#7d0f574554)"><g clip-path="url(#bc358aafd2)"><path fill="#002190" d="M 264.898438 35.476562 L 341.765625 35.476562 L 341.765625 108.898438 L 264.898438 108.898438 Z M 264.898438 35.476562 " fill-opacity="1" fill-rule="nonzero"/></g></g><g clip-path="url(#ed5ed870c0)"><g clip-path="url(#d5a2d21f06)"><path fill="#002190" d="M 330.074219 144.148438 L 372.75 144.148438 L 372.75 230.832031 L 330.074219 230.832031 Z M 330.074219 144.148438 " fill-opacity="1" fill-rule="nonzero"/></g></g><g clip-path="url(#cb804a9681)"><g clip-path="url(#ca459592fd)"><path fill="#002190" d="M 265.875 263.625 L 338.324219 263.625 L 338.324219 340.035156 L 265.875 340.035156 Z M 265.875 263.625 " fill-opacity="1" fill-rule="nonzero"/></g></g></svg>