<svg xmlns="http://www.w3.org/2000/svg" xmlns:xlink="http://www.w3.org/1999/xlink" width="500" zoomAndPan="magnify" viewBox="0 0 375 374.999991" height="500" preserveAspectRatio="xMidYMid meet" version="1.0"><path fill="#727272" d="M 234.71875 25.410156 L 234.71875 13.484375 C 234.71875 6.035156 228.683594 0 221.234375 0 L 153.761719 0 C 146.3125 0 140.277344 6.035156 140.277344 13.484375 L 140.277344 25.410156 C 128.351562 28.882812 116.972656 33.632812 106.292969 39.511719 C 106.292969 39.511719 97.839844 31.058594 97.839844 31.058594 C 95.3125 28.527344 91.882812 27.113281 88.304688 27.113281 C 84.734375 27.113281 81.296875 28.527344 78.773438 31.058594 L 31.058594 78.773438 C 28.527344 81.296875 27.113281 84.734375 27.113281 88.304688 C 27.113281 91.882812 28.527344 95.3125 31.058594 97.839844 C 31.058594 97.839844 39.511719 106.292969 39.511719 106.292969 C 33.632812 116.972656 28.882812 128.351562 25.410156 140.277344 L 13.484375 140.277344 C 6.035156 140.277344 0 146.3125 0 153.761719 L 0 221.234375 C 0 228.683594 6.035156 234.71875 13.484375 234.71875 L 25.410156 234.71875 C 28.882812 246.644531 33.632812 258.023438 39.511719 268.703125 C 39.511719 268.703125 31.058594 277.15625 31.058594 277.15625 C 28.527344 279.683594 27.113281 283.113281 27.113281 286.691406 C 27.113281 290.261719 28.527344 293.699219 31.058594 296.222656 L 78.773438 343.9375 C 81.296875 346.46875 84.734375 347.882812 88.304688 347.882812 C 91.882812 347.882812 95.3125 346.46875 97.839844 343.9375 C 97.839844 343.9375 106.292969 335.480469 106.292969 335.480469 C 116.972656 341.363281 128.351562 346.113281 140.277344 349.585938 L 140.277344 361.511719 C 140.277344 368.960938 146.3125 374.996094 153.761719 374.996094 L 221.234375 374.996094 C 228.683594 374.996094 234.71875 368.960938 234.71875 361.511719 L 234.71875 349.585938 C 246.644531 346.113281 258.023438 341.363281 268.703125 335.480469 C 268.703125 335.480469 277.15625 343.9375 277.15625 343.9375 C 279.683594 346.46875 283.113281 347.882812 286.691406 347.882812 C 290.261719 347.882812 293.699219 346.46875 296.222656 343.9375 L 343.9375 296.222656 C 346.46875 293.699219 347.882812 290.261719 347.882812 286.691406 C 347.882812 283.113281 346.46875 279.683594 343.9375 277.15625 C 343.9375 277.15625 335.480469 268.703125 335.480469 268.703125 C 341.363281 258.023438 346.113281 246.644531 349.585938 234.71875 L 361.511719 234.71875 C 368.960938 234.71875 374.996094 228.683594 374.996094 221.234375 L 374.996094 153.761719 C 374.996094 146.3125 368.960938 140.277344 361.511719 140.277344 L 349.585938 140.277344 C 346.113281 128.351562 341.363281 116.972656 335.480469 106.292969 C 335.480469 106.292969 343.9375 97.839844 343.9375 97.839844 C 346.46875 95.3125 347.882812 91.882812 347.882812 88.304688 C 347.882812 84.734375 346.46875 81.296875 343.9375 78.773438 L 296.222656 31.058594 C 293.699219 28.527344 290.261719 27.113281 286.691406 27.113281 C 283.113281 27.113281 279.683594 28.527344 277.15625 31.058594 C 277.15625 31.058594 268.703125 39.511719 268.703125 39.511719 C 258.023438 33.632812 246.644531 28.882812 234.71875 25.410156 Z M 221.328125 30.515625 C 221.328125 33.566406 223.390625 36.234375 226.351562 37 C 240.597656 40.671875 254.058594 46.316406 266.414062 53.621094 C 269.046875 55.179688 272.402344 54.757812 274.558594 52.59375 L 286.628906 40.53125 C 286.640625 40.511719 286.664062 40.503906 286.691406 40.503906 C 286.714844 40.503906 286.734375 40.511719 286.753906 40.53125 C 286.753906 40.53125 334.464844 88.242188 334.464844 88.242188 C 334.484375 88.261719 334.492188 88.28125 334.492188 88.304688 C 334.492188 88.332031 334.484375 88.355469 334.464844 88.367188 L 322.402344 100.4375 C 320.238281 102.59375 319.816406 105.949219 321.375 108.582031 C 328.679688 120.945312 334.324219 134.398438 337.996094 148.644531 C 338.761719 151.605469 341.429688 153.667969 344.480469 153.667969 L 361.511719 153.667969 C 361.5625 153.667969 361.605469 153.710938 361.605469 153.761719 C 361.605469 153.761719 361.605469 221.234375 361.605469 221.234375 C 361.605469 221.28125 361.5625 221.328125 361.511719 221.328125 C 361.511719 221.328125 344.480469 221.328125 344.480469 221.328125 C 341.429688 221.328125 338.761719 223.390625 337.996094 226.351562 C 334.324219 240.597656 328.679688 254.058594 321.375 266.414062 C 319.816406 269.046875 320.238281 272.402344 322.402344 274.558594 L 334.464844 286.628906 C 334.484375 286.640625 334.492188 286.664062 334.492188 286.691406 C 334.492188 286.714844 334.484375 286.734375 334.464844 286.753906 C 334.464844 286.753906 286.753906 334.464844 286.753906 334.464844 C 286.734375 334.484375 286.714844 334.492188 286.691406 334.492188 C 286.664062 334.492188 286.640625 334.484375 286.628906 334.464844 L 274.558594 322.402344 C 272.402344 320.238281 269.046875 319.816406 266.414062 321.375 C 254.050781 328.679688 240.597656 334.324219 226.351562 337.996094 C 223.390625 338.761719 221.328125 341.429688 221.328125 344.480469 L 221.328125 361.511719 C 221.328125 361.5625 221.28125 361.605469 221.234375 361.605469 C 221.234375 361.605469 153.761719 361.605469 153.761719 361.605469 C 153.710938 361.605469 153.667969 361.5625 153.667969 361.511719 C 153.667969 361.511719 153.667969 344.480469 153.667969 344.480469 C 153.667969 341.429688 151.605469 338.761719 148.644531 337.996094 C 134.398438 334.324219 120.9375 328.679688 108.582031 321.375 C 105.949219 319.816406 102.59375 320.238281 100.4375 322.402344 L 88.367188 334.464844 C 88.355469 334.484375 88.332031 334.492188 88.304688 334.492188 C 88.28125 334.492188 88.261719 334.484375 88.242188 334.464844 C 88.242188 334.464844 40.53125 286.753906 40.53125 286.753906 C 40.511719 286.734375 40.503906 286.714844 40.503906 286.691406 C 40.503906 286.664062 40.511719 286.640625 40.53125 286.628906 L 52.59375 274.558594 C 54.757812 272.402344 55.179688 269.046875 53.621094 266.414062 C 46.316406 254.050781 40.671875 240.597656 37 226.351562 C 36.234375 223.390625 33.566406 221.328125 30.515625 221.328125 L 13.484375 221.328125 C 13.433594 221.328125 13.390625 221.28125 13.390625 221.234375 C 13.390625 221.234375 13.390625 153.761719 13.390625 153.761719 C 13.390625 153.710938 13.433594 153.667969 13.484375 153.667969 C 13.484375 153.667969 30.515625 153.667969 30.515625 153.667969 C 33.566406 153.667969 36.234375 151.605469 37 148.644531 C 40.671875 134.398438 46.316406 120.9375 53.621094 108.582031 C 55.179688 105.949219 54.757812 102.59375 52.59375 100.4375 L 40.53125 88.367188 C 40.511719 88.355469 40.503906 88.332031 40.503906 88.304688 C 40.503906 88.28125 40.511719 88.261719 40.53125 88.242188 C 40.53125 88.242188 88.242188 40.53125 88.242188 40.53125 C 88.261719 40.511719 88.28125 40.503906 88.304688 40.503906 C 88.332031 40.503906 88.355469 40.511719 88.367188 40.53125 L 100.4375 52.59375 C 102.59375 54.757812 105.949219 55.179688 108.582031 53.621094 C 120.945312 46.316406 134.398438 40.671875 148.644531 37 C 151.605469 36.234375 153.667969 33.566406 153.667969 30.515625 L 153.667969 13.484375 C 153.667969 13.433594 153.710938 13.390625 153.761719 13.390625 C 153.761719 13.390625 221.234375 13.390625 221.234375 13.390625 C 221.28125 13.390625 221.328125 13.433594 221.328125 13.484375 C 221.328125 13.484375 221.328125 30.515625 221.328125 30.515625 Z M 187.496094 56.109375 C 114.984375 56.109375 56.109375 114.984375 56.109375 187.496094 C 56.109375 260.011719 114.984375 318.886719 187.496094 318.886719 C 260.011719 318.886719 318.886719 260.011719 318.886719 187.496094 C 318.886719 114.984375 260.011719 56.109375 187.496094 56.109375 Z M 187.496094 69.5 C 252.625 69.5 305.492188 122.371094 305.492188 187.496094 C 305.492188 252.625 252.625 305.492188 187.496094 305.492188 C 122.371094 305.492188 69.5 252.625 69.5 187.496094 C 69.5 122.371094 122.371094 69.5 187.496094 69.5 Z M 187.496094 69.5 " fill-opacity="1" fill-rule="evenodd"/></svg>