<svg xmlns="http://www.w3.org/2000/svg" xmlns:xlink="http://www.w3.org/1999/xlink" width="500" zoomAndPan="magnify" viewBox="0 0 375 374.999991" height="500" preserveAspectRatio="xMidYMid meet" version="1.0"><defs><clipPath id="95215695d0"><path d="M 0 0 L 374.25 0 L 374.25 374 L 0 374 Z M 0 0 " clip-rule="nonzero"/></clipPath></defs><g clip-path="url(#95215695d0)"><path fill="#002190" d="M 367.773438 361.503906 L 361.542969 361.503906 L 361.542969 255.546875 C 361.542969 255.136719 361.503906 254.730469 361.421875 254.328125 C 361.34375 253.929688 361.222656 253.539062 361.066406 253.160156 C 360.910156 252.78125 360.71875 252.421875 360.492188 252.082031 C 360.265625 251.742188 360.007812 251.425781 359.714844 251.136719 C 359.425781 250.847656 359.113281 250.589844 358.773438 250.363281 C 358.433594 250.136719 358.074219 249.945312 357.695312 249.785156 C 357.316406 249.628906 356.925781 249.511719 356.523438 249.433594 C 356.125 249.351562 355.71875 249.3125 355.308594 249.3125 L 317.914062 249.3125 C 317.503906 249.3125 317.097656 249.351562 316.695312 249.433594 C 316.296875 249.511719 315.90625 249.628906 315.527344 249.785156 C 315.148438 249.945312 314.789062 250.136719 314.449219 250.363281 C 314.109375 250.589844 313.792969 250.847656 313.503906 251.136719 C 313.214844 251.425781 312.957031 251.742188 312.730469 252.082031 C 312.503906 252.421875 312.3125 252.78125 312.152344 253.160156 C 311.996094 253.539062 311.878906 253.929688 311.800781 254.328125 C 311.71875 254.730469 311.679688 255.136719 311.679688 255.546875 L 311.679688 361.503906 L 286.75 361.503906 L 286.75 6.234375 C 286.75 5.824219 286.707031 5.417969 286.628906 5.015625 C 286.546875 4.617188 286.429688 4.226562 286.273438 3.847656 C 286.117188 3.46875 285.925781 3.109375 285.699219 2.769531 C 285.46875 2.429688 285.210938 2.113281 284.921875 1.824219 C 284.632812 1.535156 284.320312 1.277344 283.976562 1.050781 C 283.636719 0.824219 283.277344 0.632812 282.902344 0.472656 C 282.523438 0.316406 282.132812 0.199219 281.730469 0.121094 C 281.328125 0.0390625 280.925781 0 280.515625 0 L 243.117188 0 C 242.710938 0 242.304688 0.0390625 241.902344 0.121094 C 241.5 0.199219 241.113281 0.316406 240.734375 0.472656 C 240.355469 0.632812 239.996094 0.824219 239.65625 1.050781 C 239.316406 1.277344 239 1.535156 238.710938 1.824219 C 238.421875 2.113281 238.164062 2.429688 237.9375 2.769531 C 237.707031 3.109375 237.515625 3.46875 237.359375 3.847656 C 237.203125 4.226562 237.085938 4.617188 237.003906 5.015625 C 236.925781 5.417969 236.886719 5.824219 236.886719 6.234375 L 236.886719 168.285156 C 236.886719 168.695312 236.925781 169.101562 237.003906 169.5 C 237.085938 169.902344 237.203125 170.292969 237.359375 170.671875 C 237.515625 171.050781 237.707031 171.410156 237.9375 171.75 C 238.164062 172.089844 238.421875 172.402344 238.710938 172.691406 C 239 172.984375 239.316406 173.242188 239.65625 173.46875 C 239.996094 173.695312 240.355469 173.886719 240.734375 174.042969 C 241.113281 174.199219 241.5 174.320312 241.902344 174.398438 C 242.304688 174.480469 242.710938 174.519531 243.117188 174.519531 C 243.527344 174.519531 243.933594 174.480469 244.335938 174.398438 C 244.734375 174.320312 245.125 174.199219 245.503906 174.042969 C 245.882812 173.886719 246.242188 173.695312 246.582031 173.46875 C 246.921875 173.242188 247.238281 172.984375 247.527344 172.691406 C 247.816406 172.402344 248.074219 172.089844 248.300781 171.75 C 248.527344 171.410156 248.71875 171.050781 248.878906 170.671875 C 249.035156 170.292969 249.152344 169.902344 249.230469 169.5 C 249.3125 169.101562 249.351562 168.695312 249.351562 168.285156 L 249.351562 12.464844 L 274.28125 12.464844 L 274.28125 361.503906 L 249.351562 361.503906 L 249.351562 218.148438 C 249.351562 217.738281 249.3125 217.332031 249.230469 216.933594 C 249.152344 216.53125 249.035156 216.140625 248.878906 215.761719 C 248.71875 215.386719 248.527344 215.027344 248.300781 214.6875 C 248.074219 214.34375 247.816406 214.03125 247.527344 213.742188 C 247.238281 213.453125 246.921875 213.195312 246.582031 212.964844 C 246.242188 212.738281 245.882812 212.546875 245.503906 212.390625 C 245.125 212.234375 244.734375 212.113281 244.335938 212.035156 C 243.933594 211.957031 243.527344 211.914062 243.117188 211.914062 C 242.710938 211.914062 242.304688 211.957031 241.902344 212.035156 C 241.5 212.113281 241.113281 212.234375 240.734375 212.390625 C 240.355469 212.546875 239.996094 212.738281 239.65625 212.964844 C 239.316406 213.195312 239 213.453125 238.710938 213.742188 C 238.421875 214.03125 238.164062 214.34375 237.9375 214.6875 C 237.707031 215.027344 237.515625 215.386719 237.359375 215.761719 C 237.203125 216.140625 237.085938 216.53125 237.003906 216.933594 C 236.925781 217.332031 236.886719 217.738281 236.886719 218.148438 L 236.886719 361.503906 L 211.953125 361.503906 L 211.953125 74.792969 C 211.953125 74.382812 211.914062 73.980469 211.835938 73.578125 C 211.753906 73.175781 211.636719 72.785156 211.480469 72.410156 C 211.324219 72.03125 211.132812 71.671875 210.902344 71.332031 C 210.675781 70.992188 210.417969 70.675781 210.128906 70.386719 C 209.839844 70.097656 209.523438 69.839844 209.183594 69.613281 C 208.84375 69.382812 208.484375 69.191406 208.105469 69.035156 C 207.730469 68.878906 207.339844 68.761719 206.9375 68.679688 C 206.535156 68.601562 206.132812 68.5625 205.722656 68.5625 L 168.324219 68.5625 C 167.914062 68.5625 167.511719 68.601562 167.109375 68.679688 C 166.707031 68.761719 166.316406 68.878906 165.941406 69.035156 C 165.5625 69.191406 165.203125 69.382812 164.863281 69.613281 C 164.523438 69.839844 164.207031 70.097656 163.917969 70.386719 C 163.628906 70.675781 163.371094 70.992188 163.140625 71.332031 C 162.914062 71.671875 162.722656 72.03125 162.566406 72.410156 C 162.410156 72.785156 162.292969 73.175781 162.210938 73.578125 C 162.132812 73.980469 162.09375 74.382812 162.09375 74.792969 L 162.09375 361.503906 L 137.160156 361.503906 L 137.160156 193.21875 C 137.160156 192.808594 137.121094 192.402344 137.042969 192 C 136.960938 191.601562 136.84375 191.210938 136.6875 190.832031 C 136.53125 190.453125 136.335938 190.09375 136.109375 189.753906 C 135.882812 189.414062 135.625 189.097656 135.335938 188.808594 C 135.046875 188.519531 134.730469 188.261719 134.390625 188.035156 C 134.050781 187.808594 133.691406 187.617188 133.3125 187.457031 C 132.933594 187.300781 132.546875 187.183594 132.144531 187.105469 C 131.742188 187.023438 131.335938 186.984375 130.929688 186.984375 L 93.53125 186.984375 C 93.121094 186.984375 92.714844 187.023438 92.316406 187.105469 C 91.914062 187.183594 91.523438 187.300781 91.144531 187.457031 C 90.769531 187.617188 90.410156 187.808594 90.070312 188.035156 C 89.726562 188.261719 89.414062 188.519531 89.125 188.808594 C 88.835938 189.097656 88.574219 189.414062 88.347656 189.753906 C 88.121094 190.09375 87.929688 190.453125 87.773438 190.832031 C 87.617188 191.210938 87.496094 191.601562 87.417969 192 C 87.339844 192.402344 87.296875 192.808594 87.296875 193.21875 L 87.296875 361.503906 L 62.367188 361.503906 L 62.367188 130.890625 C 62.367188 130.480469 62.328125 130.074219 62.246094 129.671875 C 62.167969 129.273438 62.050781 128.882812 61.894531 128.503906 C 61.734375 128.125 61.542969 127.765625 61.316406 127.425781 C 61.089844 127.085938 60.832031 126.769531 60.542969 126.480469 C 60.253906 126.191406 59.9375 125.933594 59.597656 125.707031 C 59.257812 125.480469 58.898438 125.289062 58.519531 125.128906 C 58.140625 124.972656 57.75 124.855469 57.351562 124.777344 C 56.949219 124.695312 56.542969 124.65625 56.132812 124.65625 L 18.738281 124.65625 C 18.328125 124.65625 17.921875 124.695312 17.519531 124.777344 C 17.121094 124.855469 16.730469 124.972656 16.351562 125.128906 C 15.972656 125.289062 15.613281 125.480469 15.273438 125.707031 C 14.933594 125.933594 14.621094 126.191406 14.332031 126.480469 C 14.039062 126.769531 13.78125 127.085938 13.554688 127.425781 C 13.328125 127.765625 13.136719 128.125 12.980469 128.503906 C 12.824219 128.882812 12.703125 129.273438 12.625 129.671875 C 12.542969 130.074219 12.503906 130.480469 12.503906 130.890625 L 12.503906 361.503906 L 6.273438 361.503906 C 5.863281 361.503906 5.457031 361.542969 5.054688 361.621094 C 4.65625 361.703125 4.265625 361.820312 3.886719 361.976562 C 3.507812 362.132812 3.148438 362.324219 2.808594 362.554688 C 2.46875 362.78125 2.152344 363.039062 1.863281 363.328125 C 1.574219 363.617188 1.316406 363.933594 1.089844 364.273438 C 0.863281 364.613281 0.671875 364.972656 0.511719 365.351562 C 0.355469 365.730469 0.238281 366.117188 0.160156 366.519531 C 0.078125 366.921875 0.0390625 367.328125 0.0390625 367.734375 C 0.0390625 368.144531 0.078125 368.550781 0.160156 368.953125 C 0.238281 369.351562 0.355469 369.742188 0.511719 370.121094 C 0.671875 370.5 0.863281 370.859375 1.089844 371.199219 C 1.316406 371.539062 1.574219 371.855469 1.863281 372.144531 C 2.152344 372.433594 2.46875 372.691406 2.808594 372.917969 C 3.148438 373.144531 3.507812 373.335938 3.886719 373.496094 C 4.265625 373.652344 4.65625 373.769531 5.054688 373.847656 C 5.457031 373.929688 5.863281 373.96875 6.273438 373.96875 L 367.773438 373.96875 C 368.183594 373.96875 368.589844 373.929688 368.992188 373.847656 C 369.390625 373.769531 369.78125 373.652344 370.160156 373.496094 C 370.539062 373.335938 370.898438 373.144531 371.238281 372.917969 C 371.578125 372.691406 371.894531 372.433594 372.183594 372.144531 C 372.472656 371.855469 372.730469 371.539062 372.957031 371.199219 C 373.183594 370.859375 373.375 370.5 373.53125 370.121094 C 373.691406 369.742188 373.808594 369.351562 373.886719 368.953125 C 373.96875 368.550781 374.007812 368.144531 374.007812 367.734375 C 374.007812 367.328125 373.96875 366.921875 373.886719 366.519531 C 373.808594 366.117188 373.691406 365.730469 373.53125 365.351562 C 373.375 364.972656 373.183594 364.613281 372.957031 364.273438 C 372.730469 363.933594 372.472656 363.617188 372.183594 363.328125 C 371.894531 363.039062 371.578125 362.78125 371.238281 362.554688 C 370.898438 362.324219 370.539062 362.132812 370.160156 361.976562 C 369.78125 361.820312 369.390625 361.703125 368.992188 361.621094 C 368.589844 361.542969 368.183594 361.503906 367.773438 361.503906 Z M 49.902344 361.503906 L 24.96875 361.503906 L 24.96875 137.121094 L 49.902344 137.121094 Z M 124.695312 361.503906 L 99.765625 361.503906 L 99.765625 199.449219 L 124.695312 199.449219 Z M 199.488281 361.503906 L 174.558594 361.503906 L 174.558594 81.027344 L 199.488281 81.027344 Z M 349.078125 361.503906 L 324.144531 361.503906 L 324.144531 261.777344 L 349.078125 261.777344 Z M 349.078125 361.503906 " fill-opacity="1" fill-rule="nonzero"/></g><path fill="#002190" d="M 249.351562 193.21875 C 249.351562 193.625 249.3125 194.03125 249.230469 194.433594 C 249.152344 194.835938 249.035156 195.222656 248.878906 195.601562 C 248.71875 195.980469 248.527344 196.339844 248.300781 196.679688 C 248.074219 197.019531 247.816406 197.335938 247.527344 197.625 C 247.238281 197.914062 246.921875 198.171875 246.582031 198.398438 C 246.242188 198.625 245.882812 198.820312 245.503906 198.976562 C 245.125 199.132812 244.734375 199.25 244.335938 199.332031 C 243.933594 199.410156 243.527344 199.449219 243.117188 199.449219 C 242.710938 199.449219 242.304688 199.410156 241.902344 199.332031 C 241.5 199.25 241.113281 199.132812 240.734375 198.976562 C 240.355469 198.820312 239.996094 198.625 239.65625 198.398438 C 239.316406 198.171875 239 197.914062 238.710938 197.625 C 238.421875 197.335938 238.164062 197.019531 237.9375 196.679688 C 237.707031 196.339844 237.515625 195.980469 237.359375 195.601562 C 237.203125 195.222656 237.085938 194.835938 237.003906 194.433594 C 236.925781 194.03125 236.886719 193.625 236.886719 193.21875 C 236.886719 192.808594 236.925781 192.402344 237.003906 192 C 237.085938 191.601562 237.203125 191.210938 237.359375 190.832031 C 237.515625 190.453125 237.707031 190.09375 237.9375 189.753906 C 238.164062 189.414062 238.421875 189.097656 238.710938 188.808594 C 239 188.519531 239.316406 188.261719 239.65625 188.035156 C 239.996094 187.808594 240.355469 187.617188 240.734375 187.457031 C 241.113281 187.300781 241.5 187.183594 241.902344 187.105469 C 242.304688 187.023438 242.710938 186.984375 243.117188 186.984375 C 243.527344 186.984375 243.933594 187.023438 244.335938 187.105469 C 244.734375 187.183594 245.125 187.300781 245.503906 187.457031 C 245.882812 187.617188 246.242188 187.808594 246.582031 188.035156 C 246.921875 188.261719 247.238281 188.519531 247.527344 188.808594 C 247.816406 189.097656 248.074219 189.414062 248.300781 189.753906 C 248.527344 190.09375 248.71875 190.453125 248.878906 190.832031 C 249.035156 191.210938 249.152344 191.601562 249.230469 192 C 249.3125 192.402344 249.351562 192.808594 249.351562 193.21875 Z M 249.351562 193.21875 " fill-opacity="1" fill-rule="nonzero"/></svg>