<svg xmlns="http://www.w3.org/2000/svg" xmlns:xlink="http://www.w3.org/1999/xlink" width="500" zoomAndPan="magnify" viewBox="0 0 375 374.999991" height="500" preserveAspectRatio="xMidYMid meet" version="1.0"><path fill="#002190" d="M 368.789062 362.5 L 362.539062 362.5 L 362.539062 256.25 C 362.539062 255.839844 362.5 255.433594 362.417969 255.03125 C 362.339844 254.628906 362.21875 254.238281 362.0625 253.859375 C 361.90625 253.480469 361.714844 253.117188 361.484375 252.777344 C 361.257812 252.4375 361 252.121094 360.707031 251.832031 C 360.417969 251.539062 360.101562 251.28125 359.761719 251.054688 C 359.421875 250.824219 359.058594 250.632812 358.679688 250.476562 C 358.300781 250.320312 357.910156 250.199219 357.507812 250.121094 C 357.105469 250.039062 356.699219 250 356.289062 250 L 318.789062 250 C 318.378906 250 317.972656 250.039062 317.570312 250.121094 C 317.167969 250.199219 316.777344 250.320312 316.398438 250.476562 C 316.019531 250.632812 315.65625 250.824219 315.316406 251.054688 C 314.976562 251.28125 314.660156 251.539062 314.371094 251.832031 C 314.078125 252.121094 313.820312 252.4375 313.59375 252.777344 C 313.363281 253.117188 313.171875 253.480469 313.015625 253.859375 C 312.859375 254.238281 312.738281 254.628906 312.660156 255.03125 C 312.578125 255.433594 312.539062 255.839844 312.539062 256.25 L 312.539062 362.5 L 287.539062 362.5 L 287.539062 6.25 C 287.539062 5.839844 287.5 5.433594 287.417969 5.03125 C 287.339844 4.628906 287.21875 4.238281 287.0625 3.859375 C 286.90625 3.480469 286.714844 3.117188 286.484375 2.777344 C 286.257812 2.4375 286 2.121094 285.707031 1.832031 C 285.417969 1.539062 285.101562 1.28125 284.761719 1.054688 C 284.421875 0.824219 284.058594 0.632812 283.679688 0.476562 C 283.300781 0.320312 282.910156 0.199219 282.507812 0.121094 C 282.105469 0.0390625 281.699219 0 281.289062 0 L 243.789062 0 C 243.378906 0 242.972656 0.0390625 242.570312 0.121094 C 242.167969 0.199219 241.777344 0.320312 241.398438 0.476562 C 241.019531 0.632812 240.65625 0.824219 240.316406 1.054688 C 239.976562 1.28125 239.660156 1.539062 239.371094 1.832031 C 239.078125 2.121094 238.820312 2.4375 238.59375 2.777344 C 238.363281 3.117188 238.171875 3.480469 238.015625 3.859375 C 237.859375 4.238281 237.738281 4.628906 237.660156 5.03125 C 237.578125 5.433594 237.539062 5.839844 237.539062 6.25 L 237.539062 362.5 L 212.539062 362.5 L 212.539062 75 C 212.539062 74.589844 212.5 74.183594 212.417969 73.78125 C 212.339844 73.378906 212.21875 72.988281 212.0625 72.609375 C 211.90625 72.230469 211.714844 71.867188 211.484375 71.527344 C 211.257812 71.1875 211 70.871094 210.707031 70.582031 C 210.417969 70.289062 210.101562 70.03125 209.761719 69.804688 C 209.421875 69.574219 209.058594 69.382812 208.679688 69.226562 C 208.300781 69.070312 207.910156 68.949219 207.507812 68.871094 C 207.105469 68.789062 206.699219 68.75 206.289062 68.75 L 168.789062 68.75 C 168.378906 68.75 167.972656 68.789062 167.570312 68.871094 C 167.167969 68.949219 166.777344 69.070312 166.398438 69.226562 C 166.019531 69.382812 165.65625 69.574219 165.316406 69.804688 C 164.976562 70.03125 164.660156 70.289062 164.371094 70.582031 C 164.078125 70.871094 163.820312 71.1875 163.59375 71.527344 C 163.363281 71.867188 163.171875 72.230469 163.015625 72.609375 C 162.859375 72.988281 162.738281 73.378906 162.660156 73.78125 C 162.578125 74.183594 162.539062 74.589844 162.539062 75 L 162.539062 362.5 L 137.539062 362.5 L 137.539062 193.75 C 137.539062 193.339844 137.5 192.933594 137.417969 192.53125 C 137.339844 192.128906 137.21875 191.738281 137.0625 191.359375 C 136.90625 190.980469 136.714844 190.617188 136.484375 190.277344 C 136.257812 189.9375 136 189.621094 135.707031 189.332031 C 135.417969 189.039062 135.101562 188.78125 134.761719 188.554688 C 134.421875 188.324219 134.058594 188.132812 133.679688 187.976562 C 133.300781 187.820312 132.910156 187.699219 132.507812 187.621094 C 132.105469 187.539062 131.699219 187.5 131.289062 187.5 L 93.789062 187.5 C 93.378906 187.5 92.972656 187.539062 92.570312 187.621094 C 92.167969 187.699219 91.777344 187.820312 91.398438 187.976562 C 91.019531 188.132812 90.65625 188.324219 90.316406 188.554688 C 89.976562 188.78125 89.660156 189.039062 89.371094 189.332031 C 89.078125 189.621094 88.820312 189.9375 88.59375 190.277344 C 88.363281 190.617188 88.171875 190.980469 88.015625 191.359375 C 87.859375 191.738281 87.738281 192.128906 87.660156 192.53125 C 87.578125 192.933594 87.539062 193.339844 87.539062 193.75 L 87.539062 362.5 L 62.539062 362.5 L 62.539062 131.25 C 62.539062 130.839844 62.5 130.433594 62.417969 130.03125 C 62.339844 129.628906 62.21875 129.238281 62.0625 128.859375 C 61.90625 128.480469 61.714844 128.117188 61.484375 127.777344 C 61.257812 127.4375 61 127.121094 60.707031 126.832031 C 60.417969 126.539062 60.101562 126.28125 59.761719 126.054688 C 59.421875 125.824219 59.058594 125.632812 58.679688 125.476562 C 58.300781 125.320312 57.910156 125.199219 57.507812 125.121094 C 57.105469 125.039062 56.699219 125 56.289062 125 L 18.789062 125 C 18.378906 125 17.972656 125.039062 17.570312 125.121094 C 17.167969 125.199219 16.777344 125.320312 16.398438 125.476562 C 16.019531 125.632812 15.65625 125.824219 15.316406 126.054688 C 14.976562 126.28125 14.660156 126.539062 14.371094 126.832031 C 14.078125 127.121094 13.820312 127.4375 13.59375 127.777344 C 13.363281 128.117188 13.171875 128.480469 13.015625 128.859375 C 12.859375 129.238281 12.738281 129.628906 12.660156 130.03125 C 12.578125 130.433594 12.539062 130.839844 12.539062 131.25 L 12.539062 362.5 L 6.289062 362.5 C 5.878906 362.5 5.472656 362.539062 5.070312 362.621094 C 4.667969 362.699219 4.277344 362.820312 3.898438 362.976562 C 3.519531 363.132812 3.15625 363.324219 2.816406 363.554688 C 2.476562 363.78125 2.160156 364.039062 1.871094 364.332031 C 1.578125 364.621094 1.320312 364.9375 1.09375 365.277344 C 0.863281 365.617188 0.671875 365.980469 0.515625 366.359375 C 0.359375 366.738281 0.238281 367.128906 0.160156 367.53125 C 0.078125 367.933594 0.0390625 368.339844 0.0390625 368.75 C 0.0390625 369.160156 0.078125 369.566406 0.160156 369.96875 C 0.238281 370.371094 0.359375 370.761719 0.515625 371.140625 C 0.671875 371.519531 0.863281 371.882812 1.09375 372.222656 C 1.320312 372.5625 1.578125 372.878906 1.871094 373.167969 C 2.160156 373.460938 2.476562 373.71875 2.816406 373.945312 C 3.15625 374.175781 3.519531 374.367188 3.898438 374.523438 C 4.277344 374.679688 4.667969 374.800781 5.070312 374.878906 C 5.472656 374.960938 5.878906 375 6.289062 375 L 368.789062 375 C 369.199219 375 369.605469 374.960938 370.007812 374.878906 C 370.410156 374.800781 370.800781 374.679688 371.179688 374.523438 C 371.558594 374.367188 371.921875 374.175781 372.261719 373.945312 C 372.601562 373.71875 372.917969 373.460938 373.207031 373.167969 C 373.5 372.878906 373.757812 372.5625 373.984375 372.222656 C 374.214844 371.882812 374.40625 371.519531 374.5625 371.140625 C 374.71875 370.761719 374.839844 370.371094 374.917969 369.96875 C 375 369.566406 375.039062 369.160156 375.039062 368.75 C 375.039062 368.339844 375 367.933594 374.917969 367.53125 C 374.839844 367.128906 374.71875 366.738281 374.5625 366.359375 C 374.40625 365.980469 374.214844 365.617188 373.984375 365.277344 C 373.757812 364.9375 373.5 364.621094 373.207031 364.332031 C 372.917969 364.039062 372.601562 363.78125 372.261719 363.554688 C 371.921875 363.324219 371.558594 363.132812 371.179688 362.976562 C 370.800781 362.820312 370.410156 362.699219 370.007812 362.621094 C 369.605469 362.539062 369.199219 362.5 368.789062 362.5 Z M 368.789062 362.5 " fill-opacity="1" fill-rule="nonzero"/></svg>