<svg xmlns="http://www.w3.org/2000/svg" xmlns:xlink="http://www.w3.org/1999/xlink" width="500" zoomAndPan="magnify" viewBox="0 0 375 374.999991" height="500" preserveAspectRatio="xMidYMid meet" version="1.0"><defs><clipPath id="08dc309395"><path d="M 0 57.070312 L 375 57.070312 L 375 200 L 0 200 Z M 0 57.070312 " clip-rule="nonzero"/></clipPath></defs><g clip-path="url(#08dc309395)"><path fill="#002190" d="M 75.65625 198.761719 C 78.9375 200.511719 82.871094 199.199219 84.621094 195.917969 C 86.152344 192.855469 84.839844 188.921875 81.777344 187.171875 L 21.867188 156.558594 L 187.609375 71.5 L 353.351562 156.558594 L 293.441406 187.171875 C 290.160156 188.921875 288.847656 192.855469 290.597656 195.917969 C 292.128906 199.199219 296.0625 200.511719 299.34375 198.761719 L 369.96875 162.464844 C 371.5 162.027344 372.59375 160.933594 373.46875 159.402344 C 375 156.339844 373.6875 152.40625 370.625 150.65625 L 367.566406 156.558594 L 370.625 150.65625 L 191.109375 58.601562 C 189.140625 57.289062 186.734375 57.070312 184.546875 58.164062 L 184.546875 58.382812 L 5.03125 150.4375 C 3.71875 150.875 2.40625 151.96875 1.75 153.5 C 0 156.777344 1.3125 160.714844 4.59375 162.246094 L 7.433594 156.558594 L 4.59375 162.246094 Z M 75.65625 198.761719 " fill-opacity="1" fill-rule="nonzero"/></g><path fill="#002190" d="M 34.546875 243.804688 C 40.015625 243.804688 44.605469 247.085938 47.667969 252.550781 C 50.074219 256.707031 51.605469 262.390625 51.605469 268.511719 C 51.605469 274.636719 50.074219 280.320312 47.667969 284.476562 C 44.605469 289.722656 40.015625 293.003906 34.546875 293.003906 C 29.300781 293.003906 24.707031 289.722656 21.648438 284.476562 C 19.242188 280.320312 17.710938 274.636719 17.710938 268.511719 C 17.710938 262.390625 19.242188 256.707031 21.648438 252.550781 C 24.707031 247.085938 29.300781 243.804688 34.546875 243.804688 Z M 36.296875 258.890625 C 35.640625 257.796875 34.984375 256.925781 34.546875 256.925781 C 34.109375 256.925781 33.675781 257.796875 32.800781 258.890625 C 31.488281 261.296875 30.832031 264.578125 30.832031 268.511719 C 30.832031 272.230469 31.488281 275.730469 32.800781 277.914062 C 33.675781 279.226562 34.109375 279.882812 34.546875 279.882812 C 34.984375 279.882812 35.640625 279.226562 36.296875 277.914062 C 37.609375 275.730469 38.484375 272.230469 38.484375 268.511719 C 38.484375 264.578125 37.609375 261.296875 36.296875 258.890625 Z M 36.296875 258.890625 " fill-opacity="1" fill-rule="nonzero"/><path fill="#002190" d="M 289.722656 277.257812 C 289.722656 280.976562 292.785156 283.820312 296.28125 283.820312 C 300 283.820312 302.84375 280.976562 302.84375 277.257812 L 302.84375 169.460938 C 302.84375 166.398438 300.875 163.996094 298.25 163.121094 C 283.382812 158.089844 266.109375 154.15625 246.867188 151.3125 C 228.5 148.6875 208.382812 147.15625 187.609375 147.15625 C 166.617188 147.15625 146.5 148.6875 128.132812 151.3125 C 108.890625 154.15625 91.398438 158.089844 76.53125 163.339844 L 78.71875 169.460938 L 76.53125 163.339844 C 73.90625 164.214844 72.15625 166.835938 72.15625 169.679688 L 72.15625 277.257812 C 72.15625 280.976562 75 283.820312 78.71875 283.820312 C 82.433594 283.820312 85.277344 280.976562 85.277344 277.257812 L 85.277344 174.269531 C 98.398438 170.117188 113.484375 166.617188 130.101562 164.214844 C 147.8125 161.589844 167.273438 160.277344 187.609375 160.277344 C 207.945312 160.277344 227.40625 161.589844 245.117188 164.214844 C 261.515625 166.617188 276.601562 170.117188 289.722656 174.269531 Z M 289.722656 277.257812 " fill-opacity="1" fill-rule="nonzero"/><path fill="#002190" d="M 187.609375 317.929688 C 156.777344 317.929688 129.007812 314.210938 108.671875 308.308594 C 85.933594 301.53125 71.9375 291.253906 71.9375 279.007812 C 71.9375 266.980469 85.933594 256.707031 108.671875 249.925781 C 129.007812 244.023438 156.777344 240.304688 187.609375 240.304688 C 218.222656 240.304688 246.210938 244.023438 266.546875 249.925781 C 289.066406 256.707031 303.0625 266.980469 303.0625 279.007812 C 303.0625 291.253906 289.066406 301.53125 266.546875 308.308594 C 246.210938 314.210938 218.222656 317.929688 187.609375 317.929688 Z M 112.390625 295.625 C 131.414062 301.3125 158.089844 304.808594 187.609375 304.808594 C 217.128906 304.808594 243.585938 301.3125 262.828125 295.625 C 279.664062 290.597656 289.941406 284.695312 289.941406 279.007812 C 289.941406 273.324219 279.664062 267.417969 262.828125 262.609375 C 243.585938 256.925781 217.128906 253.425781 187.609375 253.425781 C 158.089844 253.425781 131.414062 256.925781 112.390625 262.609375 C 95.554688 267.417969 85.058594 273.324219 85.058594 279.007812 C 85.058594 284.695312 95.554688 290.597656 112.390625 295.625 Z M 112.390625 295.625 " fill-opacity="1" fill-rule="nonzero"/><path fill="#002190" d="M 41.109375 142.566406 C 41.109375 138.847656 38.265625 136.007812 34.546875 136.007812 C 31.050781 136.007812 27.988281 138.847656 27.988281 142.566406 L 27.988281 250.363281 C 27.988281 254.082031 31.050781 256.925781 34.546875 256.925781 C 38.265625 256.925781 41.109375 254.082031 41.109375 250.363281 Z M 41.109375 142.566406 " fill-opacity="1" fill-rule="nonzero"/></svg>