<svg xmlns="http://www.w3.org/2000/svg" xmlns:xlink="http://www.w3.org/1999/xlink" width="500" zoomAndPan="magnify" viewBox="0 0 375 374.999991" height="500" preserveAspectRatio="xMidYMid meet" version="1.0"><defs><clipPath id="d44f510d84"><path d="M 0 57.070312 L 375 57.070312 L 375 200 L 0 200 Z M 0 57.070312 " clip-rule="nonzero"/></clipPath><clipPath id="a24db27fd2"><path d="M 20.171875 64 L 354.980469 64 L 354.980469 307.25 L 20.171875 307.25 Z M 20.171875 64 " clip-rule="nonzero"/></clipPath><clipPath id="08586e8ad9"><path d="M 20.175781 158.550781 C 20.476562 153 20.851562 151.648438 21.375 150.375 C 21.898438 149.101562 22.574219 147.824219 23.398438 146.699219 C 24.226562 145.574219 25.199219 144.523438 26.25 143.625 C 27.300781 142.726562 28.5 141.976562 29.773438 141.375 C 30.976562 140.699219 32.324219 140.25 33.675781 139.949219 C 35.023438 139.648438 37.875 139.574219 37.875 139.574219 C 37.875 139.574219 44.25 139.949219 44.625 139.648438 C 44.699219 139.648438 44.699219 139.574219 44.699219 139.5 C 44.773438 139.199219 45.449219 137.324219 45.523438 137.324219 C 45.523438 137.25 46.351562 135.976562 46.800781 135.375 C 47.25 134.699219 48.074219 133.425781 48.148438 133.351562 C 48.148438 133.351562 49.273438 132.300781 49.875 131.773438 C 50.476562 131.25 51.601562 130.199219 51.601562 130.199219 C 51.675781 130.125 53.023438 129.449219 53.699219 129.074219 C 54.375 128.699219 55.726562 127.949219 55.800781 127.949219 C 55.800781 127.875 57.300781 127.5 58.050781 127.351562 C 58.800781 127.125 60.300781 126.75 60.375 126.75 C 60.375 126.675781 60.375 126.75 60.375 126.75 C 60.375 126.675781 60.375 126.675781 60.375 126.675781 C 60.449219 126.675781 72.449219 122.851562 78.226562 120.601562 C 83.773438 118.351562 88.949219 115.726562 94.425781 113.175781 C 100.050781 110.476562 106.050781 107.699219 111.675781 105 C 117.074219 102.375 122.324219 100.199219 127.425781 97.273438 C 132.75 94.351562 137.851562 90.976562 143.023438 87.449219 C 148.351562 83.851562 153.449219 79.199219 158.925781 75.898438 C 164.101562 72.824219 169.273438 70.050781 174.898438 68.175781 C 180.601562 66.300781 187.125 63.75 192.75 64.574219 C 198.300781 65.398438 203.398438 69.675781 208.5 72.976562 C 213.824219 76.5 218.625 81.75 223.875 85.199219 C 228.824219 88.425781 233.851562 90.824219 239.023438 93.375 C 244.125 95.925781 249.601562 97.949219 254.851562 100.425781 C 260.023438 102.898438 265.050781 105.449219 270.226562 108.148438 C 275.550781 110.851562 281.023438 114 286.273438 116.851562 C 291.375 119.550781 296.25 122.324219 301.351562 124.875 C 306.601562 127.5 311.851562 130.648438 317.324219 132.375 C 322.726562 134.175781 332.175781 135.226562 333.898438 135.523438 C 334.273438 135.601562 334.273438 135.601562 334.5 135.675781 C 335.101562 135.75 336.148438 135.898438 336.976562 135.976562 C 337.800781 136.050781 339.449219 136.273438 339.449219 136.273438 C 339.449219 136.273438 341.023438 136.875 341.773438 137.175781 C 342.523438 137.476562 344.023438 138 344.101562 138.074219 C 344.101562 138.074219 345.449219 138.976562 346.125 139.5 C 346.800781 139.949219 348.148438 140.851562 348.148438 140.851562 C 348.148438 140.925781 349.273438 142.125 349.800781 142.726562 C 350.324219 143.324219 351.449219 144.601562 351.449219 144.601562 C 351.449219 144.601562 352.199219 146.023438 352.574219 146.773438 C 352.949219 147.523438 353.699219 148.949219 353.699219 148.949219 C 353.699219 148.949219 353.773438 148.949219 353.773438 148.949219 C 353.773438 149.023438 354.148438 150.601562 354.300781 151.425781 C 354.523438 152.175781 354.898438 153.75 354.898438 153.824219 C 354.898438 153.824219 354.898438 155.476562 354.898438 156.300781 C 354.898438 157.125 354.898438 158.699219 354.898438 158.773438 C 354.898438 158.773438 354.523438 160.351562 354.300781 161.175781 C 354.074219 162 353.699219 163.5 353.699219 163.574219 C 353.699219 163.574219 352.949219 165 352.574219 165.75 C 352.199219 166.5 351.449219 167.925781 351.375 167.925781 C 351.375 168 350.324219 169.199219 349.726562 169.800781 C 349.199219 170.398438 348.148438 171.601562 348.074219 171.675781 C 348.074219 171.675781 346.726562 172.574219 346.050781 173.101562 C 345.375 173.550781 344.023438 174.449219 344.023438 174.449219 C 344.023438 174.449219 342.449219 175.050781 341.699219 175.351562 C 340.949219 175.648438 339.449219 176.175781 339.375 176.25 C 339.375 176.25 337.726562 176.398438 336.898438 176.476562 C 336.074219 176.625 334.5 176.773438 334.425781 176.773438 C 334.351562 176.851562 321.976562 181.351562 315.898438 182.550781 C 310.125 183.675781 302.699219 184.125 298.875 183.976562 C 297 183.898438 295.800781 182.550781 294.675781 183.300781 C 292.726562 184.648438 292.050781 191.773438 291.449219 196.5 C 290.851562 201.898438 291.300781 208.125 291.523438 213.976562 C 291.75 219.976562 292.574219 226.050781 292.949219 232.050781 C 293.324219 237.976562 293.625 243.898438 293.851562 249.824219 C 294.148438 255.675781 295.351562 261.375 294.675781 267.148438 C 293.925781 273.226562 292.949219 280.648438 289.425781 285.300781 C 286.050781 289.800781 279.449219 292.875 274.199219 294.675781 C 269.398438 296.324219 262.648438 294.75 259.574219 296.324219 C 257.699219 297.300781 257.851562 299.101562 255.976562 300.300781 C 252.375 302.625 244.050781 305.324219 237.976562 306.300781 C 232.199219 307.273438 224.925781 307.125 220.425781 306.523438 C 217.5 306.074219 215.925781 304.648438 213.300781 304.351562 C 210.300781 304.050781 207.074219 304.875 203.25 304.949219 C 198.226562 305.101562 191.550781 304.875 185.699219 304.949219 C 179.773438 305.023438 173.699219 305.324219 167.773438 305.476562 C 162.074219 305.550781 156.523438 305.699219 150.824219 305.773438 C 145.125 305.851562 139.5 306.226562 133.726562 305.851562 C 127.800781 305.476562 121.648438 304.800781 115.800781 303.449219 C 110.023438 302.101562 104.398438 300.375 98.773438 297.824219 C 92.851562 295.125 85.125 292.199219 81.375 287.398438 C 77.851562 282.898438 77.101562 276.074219 76.199219 270.226562 C 75.300781 264.449219 75.75 258.449219 76.050781 252.601562 C 76.273438 246.898438 77.476562 241.351562 77.773438 235.726562 C 78.148438 230.101562 78 224.550781 78.074219 218.773438 C 78.074219 212.550781 78.300781 205.425781 78.074219 199.726562 C 77.925781 194.925781 78.976562 189 77.101562 186.523438 C 75.824219 184.800781 71.25 184.199219 71.101562 184.125 C 71.101562 184.125 69.449219 183.976562 68.625 183.824219 C 67.800781 183.75 66.226562 183.523438 66.226562 183.523438 C 66.148438 183.523438 64.648438 183 63.898438 182.699219 C 63.148438 182.398438 61.648438 181.800781 61.574219 181.800781 C 61.574219 181.800781 60.226562 180.824219 59.550781 180.375 C 58.875 179.925781 57.601562 179.023438 57.523438 178.949219 C 57.523438 178.949219 56.476562 177.75 55.875 177.148438 C 55.351562 176.550781 54.300781 175.273438 54.300781 175.273438 C 54.300781 175.273438 54.300781 175.199219 54.226562 175.199219 C 53.925781 174.976562 51.074219 174.75 48.898438 174.601562 C 45.75 174.375 39.976562 174.523438 37.050781 174.226562 C 35.324219 174.074219 34.199219 174 32.925781 173.625 C 31.574219 173.324219 30.226562 172.726562 29.023438 172.050781 C 27.824219 171.375 26.625 170.550781 25.648438 169.648438 C 24.601562 168.675781 23.699219 167.550781 22.949219 166.425781 C 22.199219 165.300781 21.523438 163.949219 21.074219 162.675781 C 20.625 161.398438 20.175781 158.550781 20.175781 158.550781 M 185.023438 206.773438 C 185.175781 207.300781 185.476562 206.851562 185.476562 206.773438 C 185.398438 206.699219 185.023438 206.773438 185.023438 206.773438 " clip-rule="nonzero"/></clipPath><clipPath id="820d61fb3a"><path d="M 152.128906 267.585938 L 275.515625 267.585938 L 275.515625 311.148438 L 152.128906 311.148438 Z M 152.128906 267.585938 " clip-rule="nonzero"/></clipPath><clipPath id="6ab9d70880"><path d="M 258.148438 302.476562 C 221.699219 304.574219 216.75 306.75 210.75 307.949219 C 204.824219 309.148438 198.976562 310.726562 192.675781 310.949219 C 185.851562 311.25 176.925781 310.800781 171.300781 309.226562 C 167.25 308.175781 164.101562 306.226562 161.550781 304.5 C 159.601562 303.300781 158.175781 302.175781 156.824219 300.675781 C 155.550781 299.175781 154.425781 297.300781 153.601562 295.5 C 152.851562 293.625 152.398438 291.523438 152.25 289.574219 C 152.101562 287.550781 152.324219 285.449219 152.851562 283.5 C 153.300781 281.550781 154.199219 279.601562 155.324219 277.949219 C 156.375 276.226562 157.875 274.648438 159.449219 273.449219 C 161.023438 272.175781 162.898438 271.199219 164.773438 270.523438 C 166.648438 269.851562 168.75 269.476562 170.773438 269.476562 C 172.800781 269.398438 174.898438 269.773438 176.773438 270.375 C 178.726562 270.976562 180.601562 271.949219 182.175781 273.148438 C 183.824219 274.351562 185.324219 275.851562 186.449219 277.5 C 187.574219 279.148438 188.550781 281.101562 189.074219 282.976562 C 189.675781 284.925781 189.898438 287.023438 189.824219 289.050781 C 189.75 291.074219 189.300781 293.175781 188.625 294.976562 C 187.875 296.851562 186.824219 298.726562 185.550781 300.300781 C 184.273438 301.800781 182.625 303.226562 180.898438 304.273438 C 179.25 305.324219 177.226562 306.148438 175.273438 306.601562 C 173.324219 307.050781 171.226562 307.199219 169.199219 306.976562 C 167.25 306.824219 165.148438 306.300781 163.351562 305.476562 C 161.550781 304.648438 159.75 303.449219 158.25 302.101562 C 156.824219 300.75 155.476562 299.101562 154.5 297.300781 C 153.523438 295.574219 152.851562 293.550781 152.476562 291.523438 C 152.175781 289.574219 152.101562 287.476562 152.398438 285.449219 C 152.699219 283.5 153.375 281.476562 154.273438 279.675781 C 155.175781 277.875 156.449219 276.148438 157.875 274.800781 C 159.375 273.375 161.101562 272.175781 162.898438 271.273438 C 164.699219 270.449219 166.726562 269.851562 168.75 269.625 C 170.699219 269.324219 172.875 269.398438 174.824219 269.851562 C 176.773438 270.226562 178.273438 271.425781 180.523438 272.023438 C 183.675781 272.851562 187.273438 273.976562 192.226562 273.976562 C 200.625 273.976562 216.523438 269.023438 226.5 268.125 C 234 267.449219 240.75 267.898438 246.523438 267.898438 C 250.875 267.898438 254.625 267.523438 258.148438 267.976562 C 261.074219 268.351562 264.074219 269.023438 266.175781 269.925781 C 267.601562 270.601562 268.425781 271.199219 269.550781 272.324219 C 271.199219 273.898438 273.300781 276.601562 274.273438 279.074219 C 275.25 281.625 275.550781 284.625 275.25 287.324219 C 274.949219 289.949219 273.824219 292.875 272.324219 295.050781 C 270.824219 297.226562 268.5 299.25 266.175781 300.523438 C 263.773438 301.726562 258.148438 302.476562 258.148438 302.476562 " clip-rule="nonzero"/></clipPath><clipPath id="08d6102798"><path d="M 29.003906 252.410156 L 41.050781 252.410156 L 41.050781 280.429688 L 29.003906 280.429688 Z M 29.003906 252.410156 " clip-rule="nonzero"/></clipPath><clipPath id="578a0cdc19"><path d="M 36.976562 258.449219 C 35.773438 279.300781 35.476562 279.601562 35.101562 279.898438 C 34.648438 280.199219 33.898438 280.425781 33.375 280.351562 C 32.699219 280.125 31.425781 279.226562 31.273438 278.476562 C 31.199219 277.648438 33.226562 276.449219 33.375 275.476562 C 33.449219 274.726562 32.699219 274.425781 32.476562 273.300781 C 31.875 270.148438 31.199219 257.398438 31.875 254.625 C 32.101562 253.726562 32.324219 253.425781 32.773438 253.050781 C 33.148438 252.675781 33.824219 252.375 34.425781 252.449219 C 35.175781 252.523438 36.148438 253.199219 36.75 254.101562 C 37.726562 255.523438 37.875 258.074219 38.398438 260.773438 C 39.226562 264.898438 40.875 273.601562 40.800781 276.226562 C 40.800781 277.050781 40.800781 277.5 40.425781 277.949219 C 40.050781 278.476562 39.074219 279.148438 38.398438 279.074219 C 37.648438 279.074219 36.523438 278.476562 36 277.574219 C 35.023438 275.925781 35.925781 271.351562 35.550781 268.648438 C 35.175781 266.476562 33.898438 264.148438 33.976562 262.648438 C 33.976562 261.675781 34.425781 260.324219 34.574219 260.324219 C 34.800781 260.398438 34.125 266.324219 34.351562 268.800781 C 34.5 270.824219 35.773438 272.925781 35.398438 274.273438 C 35.101562 275.25 34.050781 276.148438 33.300781 276.375 C 32.773438 276.523438 32.023438 276.300781 31.5 276 C 31.050781 275.699219 30.675781 275.398438 30.375 274.574219 C 29.625 272.398438 29.925781 263.773438 30.375 261 C 30.601562 259.648438 30.75 258.675781 31.425781 258.226562 C 32.175781 257.773438 34.125 257.773438 35.023438 258.601562 C 36.898438 260.476562 38.023438 271.425781 36.898438 273.898438 C 36.449219 274.949219 35.175781 275.625 34.351562 275.625 C 33.523438 275.550781 32.25 274.351562 32.023438 273.601562 C 31.800781 272.925781 32.175781 271.800781 32.699219 271.351562 C 33.148438 270.824219 34.199219 270.449219 34.949219 270.523438 C 35.625 270.675781 36.523438 271.351562 36.824219 272.023438 C 37.125 272.625 37.050781 273.75 36.675781 274.351562 C 36.300781 274.949219 35.324219 275.476562 34.648438 275.625 C 34.125 275.699219 33.523438 275.625 33.074219 275.175781 C 32.175781 274.351562 31.199219 271.648438 30.824219 269.625 C 30.449219 267.148438 30.300781 262.273438 31.5 261.375 C 32.324219 260.773438 34.574219 261.300781 35.398438 262.351562 C 36.824219 264.300781 35.925781 273.601562 34.875 275.398438 C 34.5 276.074219 33.898438 276.300781 33.300781 276.375 C 32.625 276.449219 31.648438 276.226562 31.050781 275.625 C 30 274.648438 29.550781 271.800781 29.25 269.476562 C 28.875 266.476562 28.949219 261.226562 29.699219 259.199219 C 30 258.148438 30.375 257.550781 31.050781 257.101562 C 31.875 256.648438 33.300781 256.574219 34.199219 256.726562 C 35.023438 256.800781 35.699219 257.101562 36.375 257.550781 C 37.050781 258 37.574219 258.675781 38.101562 259.726562 C 39 261.523438 40.050781 265.125 40.425781 268.050781 C 40.875 271.199219 41.476562 276.375 40.425781 277.949219 C 39.824219 278.773438 38.550781 279.226562 37.800781 279.074219 C 37.050781 278.851562 36.300781 278.023438 35.851562 276.976562 C 34.800781 274.800781 35.101562 269.550781 34.425781 265.875 C 33.75 262.273438 31.726562 257.398438 31.875 255.226562 C 31.949219 254.175781 32.25 253.5 32.773438 253.050781 C 33.148438 252.601562 33.898438 252.449219 34.425781 252.449219 C 35.023438 252.449219 35.699219 252.675781 36.074219 253.125 C 36.523438 253.5 36.675781 253.800781 36.898438 254.699219 C 37.648438 257.773438 38.101562 272.699219 37.425781 276.300781 C 37.199219 277.574219 37.050781 278.101562 36.523438 278.773438 C 35.925781 279.449219 34.273438 280.425781 34.125 280.273438 C 34.050781 280.199219 36.074219 277.875 36.148438 277.875 C 36.148438 277.949219 35.25 279.898438 34.574219 280.199219 C 33.898438 280.425781 32.851562 280.273438 32.25 279.898438 C 31.800781 279.601562 31.5 279.300781 31.273438 278.476562 C 30.523438 275.699219 31.5 260.699219 32.476562 257.925781 C 32.699219 257.175781 33 256.875 33.375 256.574219 C 33.824219 256.273438 34.5 256.125 34.949219 256.199219 C 35.476562 256.273438 36.074219 256.574219 36.375 256.949219 C 36.75 257.324219 36.976562 258.449219 36.976562 258.449219 " clip-rule="nonzero"/></clipPath></defs><g clip-path="url(#d44f510d84)"><path fill="#002190" d="M 75.65625 198.761719 C 78.9375 200.511719 82.871094 199.199219 84.621094 195.917969 C 86.152344 192.855469 84.839844 188.921875 81.777344 187.171875 L 21.867188 156.558594 L 187.609375 71.5 L 353.351562 156.558594 L 293.441406 187.171875 C 290.160156 188.921875 288.847656 192.855469 290.597656 195.917969 C 292.128906 199.199219 296.0625 200.511719 299.34375 198.761719 L 369.96875 162.464844 C 371.5 162.027344 372.59375 160.933594 373.46875 159.402344 C 375 156.339844 373.6875 152.40625 370.625 150.65625 L 367.566406 156.558594 L 370.625 150.65625 L 191.109375 58.601562 C 189.140625 57.289062 186.734375 57.070312 184.546875 58.164062 L 184.546875 58.382812 L 5.03125 150.4375 C 3.71875 150.875 2.40625 151.96875 1.75 153.5 C 0 156.777344 1.3125 160.714844 4.59375 162.246094 L 7.433594 156.558594 L 4.59375 162.246094 Z M 75.65625 198.761719 " fill-opacity="1" fill-rule="nonzero"/></g><path fill="#002190" d="M 34.546875 243.804688 C 40.015625 243.804688 44.605469 247.085938 47.667969 252.550781 C 50.074219 256.707031 51.605469 262.390625 51.605469 268.511719 C 51.605469 274.636719 50.074219 280.320312 47.667969 284.476562 C 44.605469 289.722656 40.015625 293.003906 34.546875 293.003906 C 29.300781 293.003906 24.707031 289.722656 21.648438 284.476562 C 19.242188 280.320312 17.710938 274.636719 17.710938 268.511719 C 17.710938 262.390625 19.242188 256.707031 21.648438 252.550781 C 24.707031 247.085938 29.300781 243.804688 34.546875 243.804688 Z M 36.296875 258.890625 C 35.640625 257.796875 34.984375 256.925781 34.546875 256.925781 C 34.109375 256.925781 33.675781 257.796875 32.800781 258.890625 C 31.488281 261.296875 30.832031 264.578125 30.832031 268.511719 C 30.832031 272.230469 31.488281 275.730469 32.800781 277.914062 C 33.675781 279.226562 34.109375 279.882812 34.546875 279.882812 C 34.984375 279.882812 35.640625 279.226562 36.296875 277.914062 C 37.609375 275.730469 38.484375 272.230469 38.484375 268.511719 C 38.484375 264.578125 37.609375 261.296875 36.296875 258.890625 Z M 36.296875 258.890625 " fill-opacity="1" fill-rule="nonzero"/><path fill="#002190" d="M 289.722656 277.257812 C 289.722656 280.976562 292.785156 283.820312 296.28125 283.820312 C 300 283.820312 302.84375 280.976562 302.84375 277.257812 L 302.84375 169.460938 C 302.84375 166.398438 300.875 163.996094 298.25 163.121094 C 283.382812 158.089844 266.109375 154.15625 246.867188 151.3125 C 228.5 148.6875 208.382812 147.15625 187.609375 147.15625 C 166.617188 147.15625 146.5 148.6875 128.132812 151.3125 C 108.890625 154.15625 91.398438 158.089844 76.53125 163.339844 L 78.71875 169.460938 L 76.53125 163.339844 C 73.90625 164.214844 72.15625 166.835938 72.15625 169.679688 L 72.15625 277.257812 C 72.15625 280.976562 75 283.820312 78.71875 283.820312 C 82.433594 283.820312 85.277344 280.976562 85.277344 277.257812 L 85.277344 174.269531 C 98.398438 170.117188 113.484375 166.617188 130.101562 164.214844 C 147.8125 161.589844 167.273438 160.277344 187.609375 160.277344 C 207.945312 160.277344 227.40625 161.589844 245.117188 164.214844 C 261.515625 166.617188 276.601562 170.117188 289.722656 174.269531 Z M 289.722656 277.257812 " fill-opacity="1" fill-rule="nonzero"/><path fill="#002190" d="M 187.609375 317.929688 C 156.777344 317.929688 129.007812 314.210938 108.671875 308.308594 C 85.933594 301.53125 71.9375 291.253906 71.9375 279.007812 C 71.9375 266.980469 85.933594 256.707031 108.671875 249.925781 C 129.007812 244.023438 156.777344 240.304688 187.609375 240.304688 C 218.222656 240.304688 246.210938 244.023438 266.546875 249.925781 C 289.066406 256.707031 303.0625 266.980469 303.0625 279.007812 C 303.0625 291.253906 289.066406 301.53125 266.546875 308.308594 C 246.210938 314.210938 218.222656 317.929688 187.609375 317.929688 Z M 112.390625 295.625 C 131.414062 301.3125 158.089844 304.808594 187.609375 304.808594 C 217.128906 304.808594 243.585938 301.3125 262.828125 295.625 C 279.664062 290.597656 289.941406 284.695312 289.941406 279.007812 C 289.941406 273.324219 279.664062 267.417969 262.828125 262.609375 C 243.585938 256.925781 217.128906 253.425781 187.609375 253.425781 C 158.089844 253.425781 131.414062 256.925781 112.390625 262.609375 C 95.554688 267.417969 85.058594 273.324219 85.058594 279.007812 C 85.058594 284.695312 95.554688 290.597656 112.390625 295.625 Z M 112.390625 295.625 " fill-opacity="1" fill-rule="nonzero"/><path fill="#002190" d="M 41.109375 142.566406 C 41.109375 138.847656 38.265625 136.007812 34.546875 136.007812 C 31.050781 136.007812 27.988281 138.847656 27.988281 142.566406 L 27.988281 250.363281 C 27.988281 254.082031 31.050781 256.925781 34.546875 256.925781 C 38.265625 256.925781 41.109375 254.082031 41.109375 250.363281 Z M 41.109375 142.566406 " fill-opacity="1" fill-rule="nonzero"/><g clip-path="url(#a24db27fd2)"><g clip-path="url(#08586e8ad9)"><path fill="#002190" d="M 17.175781 61.574219 L 357.976562 61.574219 L 357.976562 309.496094 L 17.175781 309.496094 Z M 17.175781 61.574219 " fill-opacity="1" fill-rule="nonzero"/></g></g><g clip-path="url(#820d61fb3a)"><g clip-path="url(#6ab9d70880)"><path fill="#002190" d="M 149.25 264.898438 L 278.394531 264.898438 L 278.394531 314.023438 L 149.25 314.023438 Z M 149.25 264.898438 " fill-opacity="1" fill-rule="nonzero"/></g></g><g clip-path="url(#08d6102798)"><g clip-path="url(#578a0cdc19)"><path fill="#002190" d="M 26.25 249.449219 L 43.875 249.449219 L 43.875 283.390625 L 26.25 283.390625 Z M 26.25 249.449219 " fill-opacity="1" fill-rule="nonzero"/></g></g></svg>