<svg xmlns="http://www.w3.org/2000/svg" xmlns:xlink="http://www.w3.org/1999/xlink" width="500" zoomAndPan="magnify" viewBox="0 0 375 374.999991" height="500" preserveAspectRatio="xMidYMid meet" version="1.0"><defs><clipPath id="7680a5f127"><path d="M 92 8.246094 L 288 8.246094 L 288 202 L 92 202 Z M 92 8.246094 " clip-rule="nonzero"/></clipPath><clipPath id="d00dde1eec"><path d="M 201.300781 21.300781 C 204.300781 42.601562 210.976562 39.675781 215.175781 40.5 C 219.226562 41.324219 222.824219 44.925781 226.800781 44.925781 C 231.074219 44.851562 238.875 39 240.074219 39.449219 C 240.375 39.523438 240.226562 40.050781 240.449219 40.050781 C 240.824219 40.199219 241.875 38.550781 243.074219 37.875 C 244.648438 36.976562 247.273438 35.851562 249.523438 35.699219 C 251.699219 35.476562 254.175781 35.851562 256.199219 36.75 C 258.226562 37.574219 260.398438 39.449219 261.675781 40.800781 C 262.574219 41.699219 263.023438 42.449219 263.550781 43.648438 C 264.226562 45.375 265.050781 48.074219 264.976562 50.324219 C 264.898438 52.5 263.925781 55.199219 263.101562 56.851562 C 262.574219 58.050781 262.273438 58.726562 261.074219 59.625 C 258.75 61.273438 249.675781 60.976562 248.398438 63.824219 C 246.976562 66.824219 252.226562 72.976562 253.800781 77.476562 C 255.300781 81.75 256.949219 86.023438 257.699219 90.375 C 258.375 94.574219 259.800781 102.300781 258.226562 103.050781 C 256.574219 103.875 246.300781 94.800781 246.898438 93.226562 C 247.425781 91.726562 255 92.925781 259.574219 93.074219 C 265.125 93.226562 273.449219 93.074219 277.726562 94.5 C 280.425781 95.324219 282.148438 96.601562 283.800781 98.175781 C 285.375 99.824219 286.726562 102.148438 287.398438 104.324219 C 288.074219 106.5 288 109.5 287.699219 111.449219 C 287.550781 112.800781 287.101562 113.773438 286.648438 114.824219 C 286.125 115.875 285.675781 116.851562 284.773438 117.898438 C 283.425781 119.324219 281.175781 121.273438 279.074219 122.175781 C 276.976562 123.074219 275.175781 123.148438 272.101562 123.375 C 266.101562 123.898438 246.375 125.851562 245.324219 123.300781 C 244.574219 121.5 254.175781 113.550781 255.074219 114.074219 C 255.898438 114.675781 253.050781 122.023438 250.5 126.449219 C 246.898438 132.824219 237.824219 148.273438 233.550781 147.675781 C 229.800781 147.148438 223.726562 130.199219 225.523438 128.324219 C 227.023438 126.675781 234.976562 130.949219 239.398438 132.976562 C 243.824219 135.074219 248.550781 136.949219 252.074219 140.476562 C 256.050781 144.449219 259.875 152.851562 261.300781 156.300781 C 261.976562 157.800781 262.199219 158.398438 262.273438 159.75 C 262.5 161.699219 262.425781 164.699219 261.675781 166.949219 C 260.925781 169.125 259.5 171.375 257.773438 172.949219 C 256.050781 174.523438 253.800781 175.875 251.550781 176.476562 C 249.300781 177.148438 246.601562 177.226562 244.351562 176.699219 C 242.101562 176.25 239.476562 174.75 237.898438 173.625 C 236.773438 172.800781 235.199219 171.300781 235.425781 171 C 235.800781 170.398438 248.175781 175.425781 248.101562 175.574219 C 248.023438 175.648438 238.648438 173.023438 234.300781 171.523438 C 230.25 170.101562 227.476562 167.175781 222.75 166.800781 C 215.773438 166.273438 204.898438 172.351562 195.976562 173.476562 C 187.5 174.601562 177.601562 174.300781 170.625 173.925781 C 165.675781 173.699219 162.300781 173.925781 157.949219 172.425781 C 152.699219 170.625 143.625 166.949219 141.75 162.523438 C 140.175781 158.625 142.726562 151.726562 145.273438 148.125 C 147.601562 144.675781 151.875 142.125 155.851562 140.925781 C 160.125 139.648438 165.523438 140.476562 170.25 141 C 174.898438 141.523438 180 141.824219 183.976562 143.925781 C 187.875 145.875 191.175781 148.800781 193.949219 153.074219 C 197.773438 159.074219 200.550781 171.75 201.976562 178.125 C 202.875 181.949219 203.324219 185.175781 203.25 187.574219 C 203.25 189 202.949219 189.976562 202.574219 191.101562 C 202.273438 192.300781 201.898438 193.273438 201.074219 194.476562 C 200.023438 196.050781 198 198.375 195.976562 199.574219 C 194.023438 200.773438 191.398438 201.601562 189.074219 201.75 C 186.75 201.824219 184.125 201.375 181.949219 200.398438 C 179.851562 199.425781 177.601562 197.398438 176.25 195.976562 C 175.351562 194.925781 174.898438 193.949219 174.375 192.824219 C 173.925781 191.773438 173.625 190.949219 173.324219 189.375 C 172.726562 186.300781 174.074219 179.101562 171.976562 175.5 C 170.023438 171.976562 165.148438 169.726562 161.398438 167.699219 C 157.648438 165.675781 153.148438 162.601562 149.550781 163.199219 C 145.875 163.875 142.574219 169.875 139.574219 171.75 C 137.398438 173.101562 135.75 173.851562 133.574219 174.300781 C 131.324219 174.675781 128.625 174.675781 126.375 174.074219 C 124.125 173.398438 121.726562 172.050781 120.074219 170.476562 C 118.351562 168.898438 116.925781 166.574219 116.175781 164.398438 C 115.351562 162.148438 115.125 159.523438 115.5 157.199219 C 115.875 154.875 116.925781 152.398438 118.273438 150.523438 C 119.699219 148.648438 122.25 148.050781 123.824219 145.875 C 125.925781 143.023438 128.324219 138.300781 128.699219 134.25 C 129.074219 130.050781 128.476562 123.675781 125.925781 121.050781 C 123.449219 118.5 117.675781 118.800781 113.851562 118.273438 C 110.324219 117.824219 106.199219 118.351562 103.800781 117.898438 C 102.300781 117.601562 101.550781 117.300781 100.351562 116.550781 C 98.699219 115.574219 96.226562 113.699219 94.949219 111.75 C 93.601562 109.800781 92.625 107.324219 92.324219 105 C 92.101562 102.675781 92.398438 99.976562 93.226562 97.800781 C 94.050781 95.550781 95.625 93.375 97.351562 91.800781 C 99.074219 90.226562 101.101562 89.398438 103.800781 88.425781 C 107.925781 86.925781 115.726562 87.375 120.074219 84.75 C 123.976562 82.351562 126.449219 77.851562 129 74.101562 C 131.550781 70.351562 136.574219 64.5 135.375 62.25 C 134.25 60 125.476562 62.324219 122.324219 60.449219 C 119.773438 58.875 118.125 55.351562 117.074219 53.324219 C 116.398438 51.976562 116.101562 51.226562 115.949219 49.800781 C 115.648438 47.851562 115.648438 44.773438 116.324219 42.523438 C 117 40.273438 118.726562 37.800781 120 36.300781 C 120.898438 35.25 121.648438 34.648438 122.851562 33.976562 C 124.648438 33.074219 127.800781 32.023438 129.824219 31.800781 C 131.175781 31.574219 132.074219 31.648438 133.425781 31.949219 C 135.375 32.398438 137.699219 33.375 140.101562 34.875 C 143.851562 37.273438 149.625 41.851562 152.851562 45.898438 C 155.625 49.5 159.898438 56.25 158.773438 57.601562 C 157.574219 59.023438 144.375 55.050781 143.851562 52.726562 C 143.476562 50.550781 149.925781 46.199219 153.675781 44.398438 C 157.425781 42.675781 161.175781 42.75 166.199219 42.148438 C 173.476562 41.25 186.074219 39.898438 193.273438 40.574219 C 198.300781 41.023438 201.75 42.148438 205.648438 43.726562 C 209.699219 45.375 213.375 47.773438 217.199219 50.101562 C 221.101562 52.574219 225.375 54.898438 228.675781 58.050781 C 231.898438 61.125 234.523438 65.101562 236.773438 68.925781 C 238.949219 72.601562 240.375 75.824219 242.101562 80.476562 C 244.574219 87.226562 248.25 99.148438 249 105.75 C 249.449219 109.875 249.300781 113.324219 248.625 115.949219 C 248.101562 117.75 247.351562 119.023438 246.375 120.300781 C 245.476562 121.648438 244.199219 122.851562 242.925781 123.75 C 241.574219 124.726562 240.074219 125.476562 238.5 125.925781 C 237 126.449219 235.273438 126.675781 233.625 126.601562 C 232.050781 126.523438 230.324219 126.226562 228.824219 125.625 C 227.324219 125.101562 225.824219 124.273438 224.550781 123.226562 C 223.273438 122.175781 222.148438 120.898438 221.25 119.550781 C 220.425781 118.199219 219.75 116.625 219.375 115.050781 C 219 113.476562 218.851562 111.75 219 110.175781 C 219.148438 108.523438 219.523438 106.875 220.199219 105.375 C 220.800781 103.875 221.773438 102.449219 222.824219 101.25 C 223.949219 100.050781 225.300781 99 226.648438 98.175781 C 228.074219 97.425781 229.726562 96.824219 231.300781 96.523438 C 232.875 96.226562 234.601562 96.148438 236.175781 96.375 C 237.824219 96.601562 239.476562 97.125 240.898438 97.875 C 242.324219 98.550781 243.75 99.601562 244.875 100.726562 C 246 101.851562 247.050781 103.273438 247.726562 104.699219 C 248.476562 106.199219 248.925781 107.851562 249.148438 109.425781 C 249.375 111 249.300781 112.726562 249 114.375 C 248.699219 115.949219 248.101562 117.523438 247.273438 118.949219 C 246.523438 120.375 245.398438 121.648438 244.199219 122.773438 C 243 123.824219 241.574219 124.726562 240.074219 125.398438 C 238.574219 126 236.925781 126.449219 235.273438 126.523438 C 233.699219 126.675781 231.976562 126.523438 230.398438 126.148438 C 228.824219 125.773438 227.25 125.023438 225.898438 124.199219 C 224.550781 123.300781 223.273438 122.175781 222.226562 120.898438 C 221.25 119.625 220.425781 118.425781 219.824219 116.625 C 218.925781 113.851562 219.148438 109.273438 218.25 105.449219 C 217.351562 101.25 215.851562 96.675781 214.125 92.476562 C 212.476562 88.273438 211.050781 83.550781 208.125 80.324219 C 205.273438 77.175781 200.773438 74.925781 196.800781 73.425781 C 192.898438 71.925781 188.625 71.324219 184.351562 71.101562 C 179.851562 70.875 175.574219 70.949219 170.476562 72.300781 C 163.5 74.023438 153.75 82.726562 147 82.726562 C 141.898438 82.726562 136.648438 79.949219 133.5 76.800781 C 130.726562 73.949219 130.949219 68.773438 128.550781 65.398438 C 126.148438 61.949219 120.898438 58.726562 118.949219 56.398438 C 117.976562 55.199219 117.523438 54.601562 117.074219 53.324219 C 116.324219 51.449219 115.574219 48.523438 115.648438 46.199219 C 115.800781 43.800781 116.550781 41.25 117.75 39.226562 C 118.949219 37.199219 120.898438 35.25 122.851562 33.976562 C 124.875 32.773438 127.800781 32.023438 129.824219 31.800781 C 131.175781 31.574219 132.074219 31.648438 133.425781 31.949219 C 135.375 32.398438 137.625 33.375 140.101562 34.875 C 144.148438 37.351562 150.601562 42.300781 154.5 46.351562 C 157.800781 49.875 160.648438 53.398438 162.375 57.375 C 164.023438 61.199219 165.449219 64.949219 164.925781 69.601562 C 164.175781 76.273438 157.5 86.851562 153.824219 93.148438 C 151.050781 97.726562 148.726562 101.101562 145.574219 104.324219 C 142.574219 107.398438 139.875 110.101562 135.300781 112.199219 C 128.550781 115.351562 113.625 118.425781 107.398438 118.273438 C 104.25 118.273438 102.449219 117.675781 100.351562 116.550781 C 98.25 115.5 96.148438 113.324219 94.949219 111.75 C 94.050781 110.625 93.675781 109.875 93.226562 108.523438 C 92.625 106.648438 92.101562 103.648438 92.324219 101.324219 C 92.625 99 93.601562 96.449219 94.949219 94.5 C 96.226562 92.625 98.699219 90.75 100.351562 89.699219 C 101.550781 89.023438 102 88.726562 103.800781 88.425781 C 108.75 87.449219 125.925781 86.699219 133.5 88.050781 C 138.449219 88.875 142.199219 90 145.351562 92.476562 C 148.425781 94.949219 150.523438 99.148438 152.25 102.898438 C 153.898438 106.726562 154.199219 111.300781 155.550781 115.351562 C 156.824219 119.398438 159.300781 123.074219 159.898438 127.125 C 160.574219 131.25 160.425781 135.898438 159.375 140.023438 C 158.25 144.300781 155.324219 148.273438 153.074219 152.25 C 150.824219 156.300781 148.5 160.5 145.726562 164.023438 C 143.101562 167.398438 140.023438 171.449219 137.023438 173.101562 C 134.773438 174.375 132.300781 174.675781 129.976562 174.601562 C 127.648438 174.523438 125.023438 173.773438 123 172.648438 C 120.976562 171.523438 118.875 169.273438 117.75 167.699219 C 116.925781 166.574219 116.550781 165.75 116.175781 164.398438 C 115.648438 162.523438 115.125 159.523438 115.5 157.199219 C 115.875 154.875 116.625 152.773438 118.273438 150.523438 C 120.75 147.148438 126.898438 143.699219 130.574219 140.324219 C 133.800781 137.324219 135.675781 132.976562 139.273438 131.324219 C 142.800781 129.75 147.226562 129.898438 152.023438 130.800781 C 158.625 132.074219 168.675781 137.699219 174.824219 140.851562 C 179.324219 143.101562 182.550781 144.601562 186 147.148438 C 189.449219 149.699219 192.824219 152.773438 195.375 156.300781 C 197.925781 159.824219 199.875 163.648438 201.226562 168.226562 C 202.800781 173.773438 203.699219 182.773438 203.25 187.5 C 202.949219 190.425781 202.351562 192.449219 201.074219 194.476562 C 199.875 196.425781 197.625 198.449219 195.976562 199.574219 C 194.851562 200.324219 193.800781 200.699219 192.675781 201.074219 C 191.550781 201.449219 190.5 201.75 189.074219 201.75 C 187.125 201.75 184.125 201.375 181.949219 200.398438 C 179.851562 199.425781 177.601562 197.398438 176.25 195.976562 C 175.351562 194.925781 175.050781 194.398438 174.375 192.824219 C 172.949219 189.449219 171.226562 180.601562 169.5 175.425781 C 168.074219 171.148438 166.351562 168.375 165.074219 163.875 C 163.425781 157.875 158.625 145.125 161.175781 142.425781 C 163.125 140.324219 169.648438 143.699219 173.925781 144 C 178.199219 144.226562 182.476562 144.300781 186.675781 143.925781 C 190.875 143.476562 195.148438 142.5 199.273438 141.601562 C 203.398438 140.625 207.074219 138.976562 211.351562 138.226562 C 215.851562 137.398438 221.023438 136.574219 225.523438 136.875 C 229.800781 137.175781 234.148438 137.699219 237.675781 139.574219 C 241.199219 141.523438 243.226562 146.324219 246.75 148.574219 C 250.425781 150.898438 257.023438 150.75 259.5 153.148438 C 261.375 154.875 261.898438 157.875 262.273438 159.75 C 262.574219 161.101562 262.5 162.148438 262.425781 163.351562 C 262.273438 164.550781 262.199219 165.601562 261.675781 166.949219 C 260.925781 168.75 259.125 171.523438 257.773438 172.949219 C 256.800781 174 256.125 174.523438 254.851562 175.125 C 253.125 175.949219 250.273438 177 247.949219 177.074219 C 245.625 177.148438 242.699219 176.324219 240.898438 175.574219 C 239.625 175.050781 238.949219 174.523438 237.898438 173.625 C 236.398438 172.273438 235.125 169.949219 233.25 167.925781 C 230.851562 165.300781 227.699219 161.398438 224.175781 159.148438 C 220.5 156.898438 214.5 157.800781 211.726562 154.351562 C 207.976562 149.851562 205.875 136.949219 207.601562 131.101562 C 208.949219 126.675781 214.125 124.574219 217.050781 121.199219 C 219.976562 117.824219 223.050781 114.449219 225.226562 110.773438 C 227.324219 107.101562 227.023438 101.925781 230.101562 99.074219 C 233.851562 95.625 241.125 94.351562 247.648438 93.375 C 255.523438 92.25 268.351562 92.773438 274.273438 93.75 C 277.273438 94.273438 279.074219 94.726562 281.023438 96 C 282.976562 97.199219 284.851562 99.449219 285.976562 101.023438 C 286.726562 102.226562 287.101562 102.976562 287.398438 104.324219 C 287.851562 106.199219 288 109.5 287.699219 111.449219 C 287.550781 112.800781 287.25 113.625 286.648438 114.824219 C 285.675781 116.550781 284.023438 118.949219 282.148438 120.375 C 280.351562 121.726562 278.699219 122.625 275.699219 123.226562 C 269.550781 124.425781 254.175781 124.050781 246.449219 122.550781 C 241.199219 121.5 236.550781 120.523438 233.625 117.601562 C 230.851562 114.824219 229.949219 110.023438 229.050781 105.898438 C 228 101.476562 229.425781 96.074219 228.074219 91.800781 C 226.726562 87.675781 223.273438 84.523438 221.101562 80.550781 C 218.925781 76.425781 215.476562 72 215.101562 67.574219 C 214.800781 63.300781 216.601562 58.351562 218.773438 54.523438 C 220.875 50.699219 224.550781 47.25 228 44.550781 C 231.449219 41.925781 235.351562 40.050781 239.398438 38.550781 C 243.523438 37.050781 252.523438 35.476562 252.601562 35.773438 C 252.675781 36 240.675781 40.5 240.449219 40.050781 C 240.300781 39.824219 241.875 38.550781 243.074219 37.875 C 244.648438 36.976562 247.648438 35.925781 249.523438 35.699219 C 250.800781 35.476562 251.625 35.550781 252.898438 35.773438 C 254.699219 36.148438 257.398438 37.125 259.199219 38.398438 C 261 39.75 262.648438 42 263.550781 43.648438 C 264.226562 44.773438 264.449219 45.601562 264.675781 46.875 C 264.898438 48.75 265.050781 51.601562 264.449219 53.699219 C 263.851562 55.800781 261.074219 59.625 261.074219 59.625 C 261.074219 59.625 261.824219 58.5 261.75 58.425781 C 261.300781 58.050781 253.425781 65.398438 249.300781 68.175781 C 245.625 70.726562 242.25 73.574219 238.273438 74.699219 C 234.148438 75.824219 229.050781 75.675781 224.851562 74.699219 C 220.726562 73.800781 217.125 70.800781 213.226562 69.074219 C 209.398438 67.425781 205.574219 65.699219 201.601562 64.726562 C 197.550781 63.675781 192.976562 64.648438 189.074219 63.074219 C 184.949219 61.351562 179.773438 58.050781 177.601562 54.226562 C 175.5 50.625 176.101562 45.976562 175.875 40.949219 C 175.5 34.425781 175.199219 23.476562 176.398438 18.675781 C 177.074219 16.125 178.199219 14.550781 179.175781 13.273438 C 179.851562 12.375 180.601562 11.851562 181.425781 11.25 C 182.25 10.648438 183 10.125 184.050781 9.75 C 185.625 9.300781 188.398438 8.925781 190.050781 9 C 191.25 9 191.925781 9.226562 193.050781 9.675781 C 194.550781 10.351562 196.726562 11.550781 198 13.050781 C 199.351562 14.476562 200.398438 16.726562 200.925781 18.300781 C 201.226562 19.425781 201.300781 21.300781 201.300781 21.300781 " clip-rule="nonzero"/></clipPath></defs><path fill="#002190" d="M 175.738281 0.40625 C 171.8125 0.375 168.429688 3.1875 167.734375 7.050781 L 163.304688 31.285156 C 159.507812 32.519531 155.835938 34.003906 152.230469 35.777344 L 132.328125 21.414062 C 129.132812 19.101562 124.703125 19.417969 121.921875 22.234375 L 104.613281 39.257812 C 101.832031 42.039062 101.417969 46.40625 103.664062 49.632812 L 117.648438 69.882812 C 115.8125 73.457031 114.265625 77.128906 113.03125 80.890625 L 88.765625 84.816406 C 84.871094 85.417969 81.992188 88.769531 81.960938 92.757812 L 81.804688 117.054688 C 81.773438 120.976562 84.585938 124.363281 88.449219 125.058594 L 112.777344 129.488281 C 113.980469 133.253906 115.496094 136.890625 117.269531 140.464844 L 102.8125 160.460938 C 100.5 163.65625 100.816406 168.085938 103.601562 170.902344 L 120.6875 188.175781 C 123.4375 190.960938 127.804688 191.371094 131.03125 189.125 L 151.535156 175.015625 C 155.078125 176.820312 158.714844 178.304688 162.449219 179.539062 L 166.625 204.089844 C 167.289062 207.984375 170.613281 210.828125 174.566406 210.863281 L 198.832031 210.988281 C 202.820312 211.019531 206.203125 208.140625 206.867188 204.25 L 211.011719 179.730469 C 214.714844 178.527344 218.320312 177.070312 221.832031 175.300781 L 242.175781 189.757812 C 245.402344 192.035156 249.769531 191.65625 252.554688 188.90625 L 269.859375 171.851562 C 272.675781 169.066406 273.054688 164.636719 270.746094 161.378906 L 256.320312 141.132812 C 258.121094 137.621094 259.640625 134.042969 260.875 130.375 L 285.519531 126.199219 C 289.382812 125.535156 292.226562 122.179688 292.261719 118.226562 L 292.386719 93.957031 C 292.417969 90.003906 289.570312 86.617188 285.648438 85.953125 L 261.222656 81.808594 C 260.019531 78.078125 258.535156 74.4375 256.792969 70.863281 L 271.15625 50.582031 C 273.46875 47.386719 273.117188 43.019531 270.335938 40.207031 L 253.25 22.929688 C 250.464844 20.148438 246.035156 19.734375 242.808594 22.046875 L 222.75 36.28125 C 219.207031 34.480469 215.601562 32.960938 211.898438 31.726562 L 207.976562 7.367188 C 207.34375 3.441406 203.988281 0.5625 200.003906 0.53125 Z M 182.445312 16.636719 L 193.074219 16.699219 L 196.585938 38.59375 C 197.09375 41.789062 199.464844 44.351562 202.566406 45.140625 C 208.515625 46.660156 214.242188 49.097656 219.617188 52.355469 C 222.371094 54.0625 225.882812 53.9375 228.507812 52.070312 L 246.574219 39.257812 L 254.042969 46.785156 L 241.039062 65.011719 C 239.203125 67.636719 239.042969 71.085938 240.691406 73.835938 C 243.886719 79.246094 246.226562 85.003906 247.617188 90.921875 C 248.378906 94.085938 250.941406 96.488281 254.167969 97.058594 L 276.15625 100.761719 L 276.09375 111.359375 L 253.882812 115.09375 C 250.71875 115.632812 248.15625 118.003906 247.367188 121.105469 C 245.878906 126.988281 243.503906 132.683594 240.246094 138 C 238.570312 140.78125 238.695312 144.296875 240.59375 146.921875 L 253.535156 165.175781 L 246.035156 172.609375 L 227.65625 159.578125 C 225.027344 157.710938 221.582031 157.582031 218.828125 159.226562 C 213.449219 162.421875 207.753906 164.703125 201.839844 166.15625 C 198.675781 166.917969 196.300781 169.480469 195.765625 172.675781 L 192.03125 194.757812 L 181.464844 194.664062 L 177.730469 172.515625 C 177.191406 169.351562 174.820312 166.789062 171.65625 166.03125 C 165.800781 164.574219 160.042969 162.171875 154.664062 158.945312 C 151.945312 157.296875 148.496094 157.394531 145.871094 159.226562 L 127.425781 171.945312 L 119.960938 164.386719 L 132.960938 146.414062 C 134.859375 143.789062 135.019531 140.277344 133.34375 137.492188 C 130.144531 132.082031 127.804688 126.324219 126.351562 120.375 C 125.589844 117.277344 123.089844 114.902344 119.925781 114.300781 L 98.035156 110.347656 L 98.128906 99.71875 L 119.925781 96.207031 C 123.121094 95.699219 125.71875 93.324219 126.507812 90.195312 C 128.027344 84.214844 130.398438 78.457031 133.691406 73.078125 C 135.367188 70.355469 135.273438 66.875 133.4375 64.25 L 120.875 46.027344 L 128.40625 38.558594 L 146.3125 51.46875 C 148.90625 53.367188 152.386719 53.523438 155.171875 51.910156 C 160.613281 48.652344 166.402344 46.34375 172.382812 44.886719 C 175.515625 44.160156 177.886719 41.628906 178.457031 38.496094 Z M 187 65.484375 C 176.589844 65.421875 166.152344 69.3125 158.210938 77.191406 C 142.328125 92.882812 142.199219 118.730469 157.894531 134.644531 C 173.585938 150.527344 199.464844 150.652344 215.347656 134.960938 C 231.230469 119.269531 231.355469 93.390625 215.664062 77.507812 C 207.816406 69.566406 197.410156 65.546875 187 65.484375 Z M 186.9375 81.589844 C 193.167969 81.621094 199.371094 84.054688 204.148438 88.898438 C 213.703125 98.546875 213.609375 113.890625 203.957031 123.414062 C 194.308594 132.96875 178.964844 132.90625 169.410156 123.253906 C 159.855469 113.574219 159.949219 98.230469 169.597656 88.707031 C 174.441406 83.929688 180.671875 81.558594 186.9375 81.589844 Z M 101.417969 210.988281 C 80.285156 210.988281 70.539062 216.050781 60.035156 220.101562 C 60.035156 220.132812 60.035156 220.132812 60.035156 220.132812 C 39.882812 227.976562 5.398438 244.238281 5.398438 244.238281 C 1.347656 246.136719 -0.390625 250.980469 1.507812 255.027344 C 3.4375 259.078125 8.277344 260.816406 12.328125 258.917969 C 12.328125 258.917969 47.03125 242.5625 65.890625 235.222656 C 77.53125 230.699219 82.59375 227.1875 101.417969 227.1875 C 142.960938 227.1875 141.28125 245.21875 158.8125 255.535156 C 159.0625 255.691406 159.347656 255.851562 159.632812 255.945312 C 181.367188 265.691406 204.71875 267.683594 223.542969 267.683594 C 231.863281 267.683594 237.113281 269.613281 239.960938 271.765625 C 242.777344 273.949219 243.789062 276.195312 243.789062 279.832031 C 243.789062 284.105469 242.714844 286.128906 239.898438 288.183594 C 237.113281 290.210938 231.738281 291.980469 223.542969 291.980469 L 181.019531 291.980469 C 163.175781 291.980469 132.457031 284.136719 132.457031 284.136719 C 129.671875 283.375 126.667969 284.199219 124.609375 286.253906 C 122.554688 288.3125 121.761719 291.316406 122.523438 294.101562 C 123.3125 296.917969 125.527344 299.101562 128.34375 299.828125 C 128.34375 299.828125 158.8125 308.179688 181.019531 308.179688 L 223.542969 308.179688 C 231.800781 308.179688 238.980469 306.820312 244.992188 303.847656 C 245.785156 303.625 246.542969 303.277344 247.207031 302.800781 L 324.023438 252.402344 C 335.574219 245.726562 343.449219 243.859375 348.070312 243.921875 C 352.6875 244.019531 354.269531 245.410156 355.664062 247.183594 C 357.71875 249.839844 357.847656 250.851562 356.515625 253.921875 C 355.15625 257.023438 351.203125 261.800781 344.082031 266.734375 C 344.082031 266.734375 344.082031 266.734375 344.050781 266.734375 C 335.257812 272.871094 236.894531 336.972656 225.535156 343.425781 C 216.960938 348.296875 210.160156 353.421875 202.40625 355.605469 C 194.65625 357.757812 185.511719 357.757812 170.390625 350.542969 C 160.296875 345.703125 117.332031 323.683594 103.414062 316.628906 C 95.660156 312.703125 89.046875 310.488281 82.308594 310.871094 C 75.539062 311.25 69.8125 314.128906 63.894531 317.863281 C 63.863281 317.863281 63.832031 317.894531 63.832031 317.925781 L 43.773438 330.738281 C 41.242188 332.257812 39.757812 335.042969 39.851562 337.984375 C 39.945312 340.925781 41.65625 343.582031 44.28125 344.914062 C 46.9375 346.242188 50.070312 346.050781 52.507812 344.375 L 72.46875 331.59375 C 77.628906 328.367188 80.539062 327.195312 83.195312 327.035156 C 85.851562 326.878906 89.492188 327.734375 96.105469 331.085938 C 109.898438 338.078125 152.199219 359.78125 163.429688 365.128906 C 181.050781 373.578125 195.320312 374.367188 206.742188 371.203125 C 218.164062 368.007812 226.292969 361.617188 233.539062 357.503906 C 249.167969 348.613281 342.027344 287.867188 353.320312 280.023438 C 361.894531 274.042969 368.191406 267.808594 371.386719 260.34375 C 374.582031 252.875 373.539062 243.765625 368.445312 237.246094 C 368.445312 237.246094 368.445312 237.246094 368.445312 237.214844 C 364.425781 232.089844 357.308594 227.914062 348.355469 227.726562 C 343.261719 227.628906 337.597656 228.800781 331.300781 231.109375 C 330.128906 229.558594 328.359375 227.535156 325.921875 225.761719 C 321.207031 222.25 313.710938 219.085938 303.523438 219.085938 C 298.304688 219.085938 294.03125 220.289062 290.613281 221.714844 C 285.742188 217.0625 277.105469 211.144531 264.546875 211.144531 C 254.359375 211.144531 244.804688 214.5625 238.160156 218.484375 C 236.925781 219.214844 233.949219 221.082031 228.890625 224.246094 C 223.828125 227.410156 217.214844 231.488281 210.695312 235.570312 C 200.289062 242.058594 193.832031 246.105469 190.101562 248.449219 C 182.160156 246.867188 174.21875 244.621094 166.71875 241.328125 C 160.328125 237.214844 148.023438 210.988281 101.417969 210.988281 Z M 264.546875 227.34375 C 269.671875 227.34375 273.339844 228.640625 275.933594 230.160156 L 238.476562 253.382812 C 234.015625 252.117188 229.015625 251.484375 223.542969 251.484375 C 221.199219 251.484375 218.636719 251.328125 216.203125 251.230469 C 217.71875 250.28125 217.71875 250.28125 219.269531 249.332031 C 225.789062 245.253906 232.367188 241.140625 237.460938 237.976562 C 242.523438 234.84375 246.667969 232.28125 246.386719 232.4375 C 250.214844 230.160156 258.535156 227.34375 264.546875 227.34375 Z M 303.523438 235.285156 C 310.105469 235.285156 313.648438 236.964844 315.796875 238.449219 C 315.671875 238.511719 315.578125 238.578125 315.449219 238.671875 L 259.484375 275.371094 C 258.722656 270.847656 256.855469 266.511719 253.882812 262.90625 L 293.019531 238.640625 L 293.050781 238.578125 C 293.367188 238.417969 300.136719 235.285156 303.523438 235.285156 Z M 303.523438 235.285156 " fill-opacity="1" fill-rule="nonzero"/><g clip-path="url(#7680a5f127)"><g clip-path="url(#d00dde1eec)"><path fill="#002190" d="M 89.324219 6 L 290.773438 6 L 290.773438 204.453125 L 89.324219 204.453125 Z M 89.324219 6 " fill-opacity="1" fill-rule="nonzero"/></g></g></svg>