<svg xmlns="http://www.w3.org/2000/svg" xmlns:xlink="http://www.w3.org/1999/xlink" width="500" zoomAndPan="magnify" viewBox="0 0 375 374.999991" height="500" preserveAspectRatio="xMidYMid meet" version="1.0"><path fill="#727272" d="M 175.738281 0.40625 C 171.8125 0.375 168.429688 3.1875 167.734375 7.050781 L 163.304688 31.285156 C 159.507812 32.519531 155.835938 34.003906 152.230469 35.777344 L 132.328125 21.414062 C 129.132812 19.101562 124.703125 19.417969 121.921875 22.234375 L 104.613281 39.257812 C 101.832031 42.039062 101.417969 46.40625 103.664062 49.632812 L 117.648438 69.882812 C 115.8125 73.457031 114.265625 77.128906 113.03125 80.890625 L 88.765625 84.816406 C 84.871094 85.417969 81.992188 88.769531 81.960938 92.757812 L 81.804688 117.054688 C 81.773438 120.976562 84.585938 124.363281 88.449219 125.058594 L 112.777344 129.488281 C 113.980469 133.253906 115.496094 136.890625 117.269531 140.464844 L 102.8125 160.460938 C 100.5 163.65625 100.816406 168.085938 103.601562 170.902344 L 120.6875 188.175781 C 123.4375 190.960938 127.804688 191.371094 131.03125 189.125 L 151.535156 175.015625 C 155.078125 176.820312 158.714844 178.304688 162.449219 179.539062 L 166.625 204.089844 C 167.289062 207.984375 170.613281 210.828125 174.566406 210.863281 L 198.832031 210.988281 C 202.820312 211.019531 206.203125 208.140625 206.867188 204.25 L 211.011719 179.730469 C 214.714844 178.527344 218.320312 177.070312 221.832031 175.300781 L 242.175781 189.757812 C 245.402344 192.035156 249.769531 191.65625 252.554688 188.90625 L 269.859375 171.851562 C 272.675781 169.066406 273.054688 164.636719 270.746094 161.378906 L 256.320312 141.132812 C 258.121094 137.621094 259.640625 134.042969 260.875 130.375 L 285.519531 126.199219 C 289.382812 125.535156 292.226562 122.179688 292.261719 118.226562 L 292.386719 93.957031 C 292.417969 90.003906 289.570312 86.617188 285.648438 85.953125 L 261.222656 81.808594 C 260.019531 78.078125 258.535156 74.4375 256.792969 70.863281 L 271.15625 50.582031 C 273.46875 47.386719 273.117188 43.019531 270.335938 40.207031 L 253.25 22.929688 C 250.464844 20.148438 246.035156 19.734375 242.808594 22.046875 L 222.75 36.28125 C 219.207031 34.480469 215.601562 32.960938 211.898438 31.726562 L 207.976562 7.367188 C 207.34375 3.441406 203.988281 0.5625 200.003906 0.53125 Z M 182.445312 16.636719 L 193.074219 16.699219 L 196.585938 38.59375 C 197.09375 41.789062 199.464844 44.351562 202.566406 45.140625 C 208.515625 46.660156 214.242188 49.097656 219.617188 52.355469 C 222.371094 54.0625 225.882812 53.9375 228.507812 52.070312 L 246.574219 39.257812 L 254.042969 46.785156 L 241.039062 65.011719 C 239.203125 67.636719 239.042969 71.085938 240.691406 73.835938 C 243.886719 79.246094 246.226562 85.003906 247.617188 90.921875 C 248.378906 94.085938 250.941406 96.488281 254.167969 97.058594 L 276.15625 100.761719 L 276.09375 111.359375 L 253.882812 115.09375 C 250.71875 115.632812 248.15625 118.003906 247.367188 121.105469 C 245.878906 126.988281 243.503906 132.683594 240.246094 138 C 238.570312 140.78125 238.695312 144.296875 240.59375 146.921875 L 253.535156 165.175781 L 246.035156 172.609375 L 227.65625 159.578125 C 225.027344 157.710938 221.582031 157.582031 218.828125 159.226562 C 213.449219 162.421875 207.753906 164.703125 201.839844 166.15625 C 198.675781 166.917969 196.300781 169.480469 195.765625 172.675781 L 192.03125 194.757812 L 181.464844 194.664062 L 177.730469 172.515625 C 177.191406 169.351562 174.820312 166.789062 171.65625 166.03125 C 165.800781 164.574219 160.042969 162.171875 154.664062 158.945312 C 151.945312 157.296875 148.496094 157.394531 145.871094 159.226562 L 127.425781 171.945312 L 119.960938 164.386719 L 132.960938 146.414062 C 134.859375 143.789062 135.019531 140.277344 133.34375 137.492188 C 130.144531 132.082031 127.804688 126.324219 126.351562 120.375 C 125.589844 117.277344 123.089844 114.902344 119.925781 114.300781 L 98.035156 110.347656 L 98.128906 99.71875 L 119.925781 96.207031 C 123.121094 95.699219 125.71875 93.324219 126.507812 90.195312 C 128.027344 84.214844 130.398438 78.457031 133.691406 73.078125 C 135.367188 70.355469 135.273438 66.875 133.4375 64.25 L 120.875 46.027344 L 128.40625 38.558594 L 146.3125 51.46875 C 148.90625 53.367188 152.386719 53.523438 155.171875 51.910156 C 160.613281 48.652344 166.402344 46.34375 172.382812 44.886719 C 175.515625 44.160156 177.886719 41.628906 178.457031 38.496094 Z M 187 65.484375 C 176.589844 65.421875 166.152344 69.3125 158.210938 77.191406 C 142.328125 92.882812 142.199219 118.730469 157.894531 134.644531 C 173.585938 150.527344 199.464844 150.652344 215.347656 134.960938 C 231.230469 119.269531 231.355469 93.390625 215.664062 77.507812 C 207.816406 69.566406 197.410156 65.546875 187 65.484375 Z M 186.9375 81.589844 C 193.167969 81.621094 199.371094 84.054688 204.148438 88.898438 C 213.703125 98.546875 213.609375 113.890625 203.957031 123.414062 C 194.308594 132.96875 178.964844 132.90625 169.410156 123.253906 C 159.855469 113.574219 159.949219 98.230469 169.597656 88.707031 C 174.441406 83.929688 180.671875 81.558594 186.9375 81.589844 Z M 101.417969 210.988281 C 80.285156 210.988281 70.539062 216.050781 60.035156 220.101562 C 60.035156 220.132812 60.035156 220.132812 60.035156 220.132812 C 39.882812 227.976562 5.398438 244.238281 5.398438 244.238281 C 1.347656 246.136719 -0.390625 250.980469 1.507812 255.027344 C 3.4375 259.078125 8.277344 260.816406 12.328125 258.917969 C 12.328125 258.917969 47.03125 242.5625 65.890625 235.222656 C 77.53125 230.699219 82.59375 227.1875 101.417969 227.1875 C 142.960938 227.1875 141.28125 245.21875 158.8125 255.535156 C 159.0625 255.691406 159.347656 255.851562 159.632812 255.945312 C 181.367188 265.691406 204.71875 267.683594 223.542969 267.683594 C 231.863281 267.683594 237.113281 269.613281 239.960938 271.765625 C 242.777344 273.949219 243.789062 276.195312 243.789062 279.832031 C 243.789062 284.105469 242.714844 286.128906 239.898438 288.183594 C 237.113281 290.210938 231.738281 291.980469 223.542969 291.980469 L 181.019531 291.980469 C 163.175781 291.980469 132.457031 284.136719 132.457031 284.136719 C 129.671875 283.375 126.667969 284.199219 124.609375 286.253906 C 122.554688 288.3125 121.761719 291.316406 122.523438 294.101562 C 123.3125 296.917969 125.527344 299.101562 128.34375 299.828125 C 128.34375 299.828125 158.8125 308.179688 181.019531 308.179688 L 223.542969 308.179688 C 231.800781 308.179688 238.980469 306.820312 244.992188 303.847656 C 245.785156 303.625 246.542969 303.277344 247.207031 302.800781 L 324.023438 252.402344 C 335.574219 245.726562 343.449219 243.859375 348.070312 243.921875 C 352.6875 244.019531 354.269531 245.410156 355.664062 247.183594 C 357.71875 249.839844 357.847656 250.851562 356.515625 253.921875 C 355.15625 257.023438 351.203125 261.800781 344.082031 266.734375 C 344.082031 266.734375 344.082031 266.734375 344.050781 266.734375 C 335.257812 272.871094 236.894531 336.972656 225.535156 343.425781 C 216.960938 348.296875 210.160156 353.421875 202.40625 355.605469 C 194.65625 357.757812 185.511719 357.757812 170.390625 350.542969 C 160.296875 345.703125 117.332031 323.683594 103.414062 316.628906 C 95.660156 312.703125 89.046875 310.488281 82.308594 310.871094 C 75.539062 311.25 69.8125 314.128906 63.894531 317.863281 C 63.863281 317.863281 63.832031 317.894531 63.832031 317.925781 L 43.773438 330.738281 C 41.242188 332.257812 39.757812 335.042969 39.851562 337.984375 C 39.945312 340.925781 41.65625 343.582031 44.28125 344.914062 C 46.9375 346.242188 50.070312 346.050781 52.507812 344.375 L 72.46875 331.59375 C 77.628906 328.367188 80.539062 327.195312 83.195312 327.035156 C 85.851562 326.878906 89.492188 327.734375 96.105469 331.085938 C 109.898438 338.078125 152.199219 359.78125 163.429688 365.128906 C 181.050781 373.578125 195.320312 374.367188 206.742188 371.203125 C 218.164062 368.007812 226.292969 361.617188 233.539062 357.503906 C 249.167969 348.613281 342.027344 287.867188 353.320312 280.023438 C 361.894531 274.042969 368.191406 267.808594 371.386719 260.34375 C 374.582031 252.875 373.539062 243.765625 368.445312 237.246094 C 368.445312 237.246094 368.445312 237.246094 368.445312 237.214844 C 364.425781 232.089844 357.308594 227.914062 348.355469 227.726562 C 343.261719 227.628906 337.597656 228.800781 331.300781 231.109375 C 330.128906 229.558594 328.359375 227.535156 325.921875 225.761719 C 321.207031 222.25 313.710938 219.085938 303.523438 219.085938 C 298.304688 219.085938 294.03125 220.289062 290.613281 221.714844 C 285.742188 217.0625 277.105469 211.144531 264.546875 211.144531 C 254.359375 211.144531 244.804688 214.5625 238.160156 218.484375 C 236.925781 219.214844 233.949219 221.082031 228.890625 224.246094 C 223.828125 227.410156 217.214844 231.488281 210.695312 235.570312 C 200.289062 242.058594 193.832031 246.105469 190.101562 248.449219 C 182.160156 246.867188 174.21875 244.621094 166.71875 241.328125 C 160.328125 237.214844 148.023438 210.988281 101.417969 210.988281 Z M 264.546875 227.34375 C 269.671875 227.34375 273.339844 228.640625 275.933594 230.160156 L 238.476562 253.382812 C 234.015625 252.117188 229.015625 251.484375 223.542969 251.484375 C 221.199219 251.484375 218.636719 251.328125 216.203125 251.230469 C 217.71875 250.28125 217.71875 250.28125 219.269531 249.332031 C 225.789062 245.253906 232.367188 241.140625 237.460938 237.976562 C 242.523438 234.84375 246.667969 232.28125 246.386719 232.4375 C 250.214844 230.160156 258.535156 227.34375 264.546875 227.34375 Z M 303.523438 235.285156 C 310.105469 235.285156 313.648438 236.964844 315.796875 238.449219 C 315.671875 238.511719 315.578125 238.578125 315.449219 238.671875 L 259.484375 275.371094 C 258.722656 270.847656 256.855469 266.511719 253.882812 262.90625 L 293.019531 238.640625 L 293.050781 238.578125 C 293.367188 238.417969 300.136719 235.285156 303.523438 235.285156 Z M 303.523438 235.285156 " fill-opacity="1" fill-rule="nonzero"/></svg>